<svg height="512" viewBox="0 0 512 512" width="512" xmlns="http://www.w3.org/2000/svg"><g fill-rule="evenodd"><g fill-rule="nonzero" stroke="#000" stroke-width=".833085" transform="translate(322.17926 20.716981)"><path d="m40.807074 80.786964c21.7019438 0 39.3231803-17.7656518 39.3231803-39.6454546 0-21.8798027-17.6212365-39.64545451-39.3231803-39.64545451-21.7019439 0-39.3231804 17.76565181-39.3231804 39.64545451 0 21.8798028 17.6212365 39.6454546 39.3231804 39.6454546zm0-74.61573758c19.10513 0 34.6860128 15.70857628 34.6860128 34.97028298s-15.5808828 34.9702831-34.6860128 34.9702831c-19.1051301 0-34.68601291-15.7085764-34.68601291-34.9702831s15.58088281-34.97028298 34.68601291-34.97028298z"/><path d="m40.807074 56.8500858c4.0807074 0 7.975928-1.6830618 10.9437152-4.6751716 6.1210611-6.1712264 6.1210611-16.08259 0-22.0668096-2.9677872-2.9921097-6.8630078-4.6751715-10.9437152-4.6751715s-7.9759281 1.6830618-10.9437153 4.6751715c-6.1210611 6.1712264-6.1210611 16.0825901 0 22.0668096 2.9677872 2.9921098 6.8630079 4.6751716 10.9437153 4.6751716zm-7.7904414-23.5628645c2.0403537-2.0570755 4.8226542-3.1791167 7.7904414-3.1791167s5.5646009 1.1220412 7.7904413 3.1791167c4.2661941 4.3011578 4.2661941 11.2204116 0 15.5215694-2.0403537 2.0570755-4.8226541 3.1791167-7.7904413 3.1791167s-5.564601-1.1220412-7.7904414-3.1791167c-4.0807074-4.1141509-4.0807074-11.2204116 0-15.5215694z"/></g><ellipse cx="350.494373" cy="81.169811" rx="3.33119" ry="3.358491"/><ellipse cx="368.815916" cy="84.528302" rx="3.33119" ry="3.358491"/><ellipse cx="360.487942" cy="89.566038" rx="3.33119" ry="3.358491"/><ellipse cx="385.471865" cy="45.90566" rx="3.33119" ry="3.358491"/><ellipse cx="345.497588" cy="39.188679" rx="3.33119" ry="3.358491"/><ellipse cx="355.491157" cy="32.471698" rx="3.33119" ry="3.358491"/><ellipse cx="340.500803" cy="57.660377" rx="3.33119" ry="3.358491"/><ellipse cx="385.471865" cy="76.132075" rx="3.33119" ry="3.358491"/><g transform="translate(122.53135 20.716981)"><path d="m40.807074 80.786964c21.7019438 0 39.3231803-17.7656518 39.3231803-39.6454546 0-21.8798027-17.6212365-39.64545451-39.3231803-39.64545451-21.7019439 0-39.3231804 17.76565181-39.3231804 39.64545451 0 21.8798028 17.6212365 39.6454546 39.3231804 39.6454546zm0-74.61573758c19.10513 0 34.6860128 15.70857628 34.6860128 34.97028298s-15.5808828 34.9702831-34.6860128 34.9702831c-19.1051301 0-34.68601291-15.7085764-34.68601291-34.9702831s15.58088281-34.97028298 34.68601291-34.97028298z" fill-rule="nonzero" stroke="#000" stroke-width=".833085"/><path d="m40.807074 56.8500858c4.0807074 0 7.975928-1.6830618 10.9437152-4.6751716 6.1210611-6.1712264 6.1210611-16.08259 0-22.0668096-2.9677872-2.9921097-6.8630078-4.6751715-10.9437152-4.6751715s-7.9759281 1.6830618-10.9437153 4.6751715c-6.1210611 6.1712264-6.1210611 16.0825901 0 22.0668096 2.9677872 2.9921098 6.8630079 4.6751716 10.9437153 4.6751716zm-7.7904414-23.5628645c2.0403537-2.0570755 4.8226542-3.1791167 7.7904414-3.1791167s5.5646009 1.1220412 7.7904413 3.1791167c4.2661941 4.3011578 4.2661941 11.2204116 0 15.5215694-2.0403537 2.0570755-4.8226541 3.1791167-7.7904413 3.1791167s-5.564601-1.1220412-7.7904414-3.1791167c-4.0807074-4.1141509-4.0807074-11.2204116 0-15.5215694z" fill-rule="nonzero" stroke="#000" stroke-width=".833085"/><path d="m36.9118533 20.7577616c.7419468 0 1.2984069-.3740137 1.854867-.7480275l3.8952207-4.6751715c.7419468-.9350343.7419468-2.4310892-.1854867-3.3661235-1.1129202-.7480274-2.5968138-.7480274-3.5242473.3740137l-3.709734 4.4881647c-.7419468.9350343-.7419468 2.4310892.1854867 3.3661235.5564601.3740137.9274335.5610206 1.4838936.5610206z"/><path d="m52.3072493 24.4978988c.3709734.7480274 1.2984069 1.1220412 2.0403537 1.1220412.3709734 0 .7419468-.1870069 1.1129202-.3740138 1.1129202-.5610205 1.4838936-2.0570754.7419468-3.1791166l-4.0807074-7.1062607c-.5564601-1.1220412-2.0403537-1.4960549-3.1532739-.7480275-1.1129202.5610206-1.4838936 2.0570755-.7419468 3.1791167z"/><path d="m61.0251242 32.5391938c.7419468 0 1.4838936-.3740137 1.854867-.9350343l3.1532739-4.6751715c.7419468-1.1220412.5564601-2.4310892-.5564601-3.1791166-1.1129202-.7480275-2.4113271-.5610206-3.1532739.5610205l-3.1532739 4.6751716c-.7419468 1.1220411-.5564601 2.4310892.5564601 3.1791166.3709734.1870069.9274335.3740137 1.2984069.3740137z"/><path d="m65.2913183 38.7104202 2.7823005 6.5452402c.3709734.9350343 1.2984069 1.4960549 2.2258404 1.4960549.3709734 0 .5564601 0 .9274335-.1870069 1.1129202-.5610206 1.6693803-1.8700686 1.2984069-2.9921098l-2.7823005-6.5452401c-.5564601-1.1220412-1.854867-1.6830618-2.9677872-1.309048-1.4838936.3740137-2.0403537 1.8700686-1.4838936 2.9921097z"/><path d="m60.4686641 59.8421955c.3709734.9350343 1.2984069 1.6830618 2.2258404 1.6830618.1854867 0 .3709734 0 .7419468-.1870069 1.2984069-.3740137 1.854867-1.6830617 1.4838936-2.9921097l-1.6693803-5.423199c-.3709734-1.309048-1.6693803-1.8700686-2.9677872-1.4960549s-1.854867 1.6830617-1.4838936 2.9921098z"/><path d="m54.9040631 57.9721269-5.3791143 1.6830618c-1.2984069.3740137-1.854867 1.6830617-1.4838936 2.9921098.3709734.9350343 1.2984069 1.6830617 2.2258404 1.6830617.1854867 0 .3709734 0 .7419468-.1870069l5.3791143-1.6830617c1.2984069-.3740137 1.854867-1.6830618 1.4838936-2.9921098-.5564601-1.1220411-1.854867-1.8700686-2.9677872-1.4960549z"/><path d="m33.0166326 59.0941681-7.6049547 4.3011578c-1.1129202.5610206-1.4838936 2.0570755-.9274335 3.1791166.3709734.7480275 1.2984069 1.1220412 2.0403537 1.1220412.3709734 0 .7419468-.1870069 1.1129202-.3740137l7.6049547-4.3011578c1.1129202-.5610206 1.4838936-2.0570755.9274335-3.1791167-.5564601-1.1220411-2.0403537-1.4960548-3.1532739-.7480274z"/><path d="m42.2909676 64.5173671c-.9274335-.7480275-2.4113271-.5610206-3.3387606.3740137-.7419468.9350343-.5564601 2.4310892.3709734 3.3661235l6.121061 4.8621784c.3709734.3740137.9274335.5610206 1.4838936.5610206.7419468 0 1.2984069-.3740138 1.854867-.9350343.7419468-.9350344.5564601-2.4310892-.3709734-3.3661235z"/><path d="m19.6615902 57.9721269v-7.8542881c0-1.3090481-1.1129202-2.2440824-2.2258404-2.2440824s-2.2258404 1.1220412-2.2258404 2.2440824v7.8542881c0 1.3090481 1.1129202 2.2440824 2.2258404 2.2440824s2.2258404-.9350343 2.2258404-2.2440824z"/><path d="m20.403537 45.2556604c.7419468 0 1.6693803-.3740137 2.0403537-1.1220412.5564601-1.1220412.1854867-2.618096-.9274335-3.1791166l-6.3065478-3.5531304c-1.1129202-.5610206-2.5968138-.1870068-3.1532739.9350343-.5564601.9350343-.1854867 2.2440824.9274335 2.9921098l6.3065478 3.5531304c.3709734.3740137.7419468.3740137 1.1129202.3740137z"/><path d="m13.1695557 32.5391938 6.3065478-3.7401372c1.1129202-.5610206 1.4838936-2.0570755.7419468-3.1791166-.5564601-1.1220412-2.0403537-1.4960549-3.1532739-.7480275l-6.3065478 3.7401372c-1.11292021.5610206-1.48389361 2.0570755-.7419468 3.1791167.3709734.7480274 1.2984069 1.1220411 2.0403537 1.1220411.1854867 0 .7419468 0 1.1129202-.3740137z"/><path d="m26.5245981 25.2459262c.3709734.7480275 1.2984069 1.1220412 2.0403537 1.1220412.3709734 0 .7419468-.1870069 1.1129202-.3740137 1.1129202-.5610206 1.4838936-2.0570755.9274335-3.1791167l-3.8952207-7.1062607c-.5564601-1.1220411-2.0403537-1.4960549-3.1532739-.9350343s-1.4838936 2.0570755-.9274335 3.1791167z"/></g><g stroke="#000" transform="translate(21.041801 22)"><path d="m75.8184947 25.5773934c-.1449684-.4384696-.4349053-.7307826-.8698106-.8769392-.4349054-.1461565-.8698107-.1461565-1.1597476.1461566-2.0295582 1.1692522-4.2040848 1.7538784-6.5235798 1.6077218-6.3786114-.4384696-11.16257-5.9924179-10.8726331-12.2771488 0-1.0230957.2899369-1.900035.5798738-2.9231307.1449684-.4384696.1449684-.7307827-.1449685-1.1692523-.1449684-.29231303-.5798737-.5846261-.8698106-.5846261-4.2040848-.73078267-7.6833274-3.80006988-8.9880434-7.89245283-.1449684-.4384696-.5798737-.8769392-1.0147791-.8769392-2.319495-.58462614-4.6389901-.73078267-6.8135167-.73078267-21.6002977 0-39.1414791 17.6849406-39.1414791 39.4622642 0 21.7773235 17.5411814 39.4622641 39.1414791 39.4622641s39.1414791-17.6849406 39.1414791-39.4622641c0-4.8231657-.8698106-9.5001748-2.4644635-13.8848708zm-36.6770156-22.80041926c1.7396213 0 3.624211.14615654 5.5088008.43846961 1.5946528 4.23853948 5.0738954 7.45398325 9.4229486 8.62323545-.1449684.7307827-.2899368 1.4615654-.2899368 2.1923481-.5798738 7.8924528 5.3638323 14.7618099 13.3370965 15.2002795 2.3194951.1461565 4.6389901-.2923131 6.6685483-1.1692523 1.1597476 3.5077568 1.7396213 7.1616702 1.7396213 10.8155835-3.624211 3.3616003-9.2779802 3.2154438-12.7572228-.2923131-2.6094319-2.6308176-6.3786114-3.9462264-10.0028224-3.5077568-1.8845898-5.8462613-7.2484221-9.9386443-13.6270335-9.9386443s-11.7424437 4.2385395-13.6270335 9.9386443c-3.624211-.4384696-7.3933905.7307827-10.0028224 3.5077568-3.4792426 3.5077569-9.13301179 3.6539134-12.75722282.2923131.28993688-20.0234451 16.52640232-36.10066386 36.38707872-36.10066386zm11.5974753 36.68529006c0 6.4308874-5.2188639 11.6925227-11.5974753 11.6925227s-11.5974753-5.2616353-11.5974753-11.6925227c0-6.4308875 5.2188639-11.6925228 11.5974753-11.6925228s11.5974753 5.2616353 11.5974753 11.6925228zm-11.5974753 36.68529c-19.1358342 0-34.93739431-14.9079665-36.24211028-33.9083159 4.78395856 2.9231307 10.72766468 2.0461915 14.64181258-1.9000349 2.0295581-2.0461915 4.7839585-2.9231307 7.5383589-2.6308177 0 .5846262-.1449684 1.1692523-.1449684 1.7538785 0 7.8924528 6.3786114 14.3233403 14.2069072 14.3233403s14.2069072-6.4308875 14.2069072-14.3233403c0-.5846262 0-1.1692523-.1449684-1.7538785 2.7544004-.292313 5.5088007.7307827 7.5383589 2.6308177 3.9141479 3.9462264 9.857854 4.677009 14.6418126 1.9000349-1.304716 19.0003494-17.1062761 33.9083159-36.2421103 33.9083159z" fill-rule="nonzero" stroke-width="2.915798"/><g stroke-width="1.66617"><path d="m40.7302149 65.4751444-3.3342742 3.5077568c-.5798737.5846261-.5798737 1.4615653 0 1.900035.5798738.5846261 1.4496844.5846261 1.8845898 0l3.3342741-3.3616003c.5798738-.5846262.5798738-1.4615654 0-1.900035-.5798738-.5846261-1.4496844-.5846261-1.8845897-.1461565z"/><path d="m23.1949506 49.8393781c-.5798738-.5846262-1.4496844-.5846262-1.8845898 0l-3.3342741 3.3616002c-.5798738.5846262-.5798738 1.4615654 0 1.900035.5798738.5846261 1.4496844.5846261 1.8845897 0l3.3342742-3.3616003c.5798737-.5846261.5798737-1.4615653 0-1.9000349z"/><path d="m55.8217254 56.4223877-3.3342741 3.3616002c-.5798738.5846262-.5798738 1.4615654 0 1.900035.5798738.5846261 1.4496844.5846261 1.8845897 0l3.3342742-3.3616003c.5798737-.5846261.5798737-1.4615653 0-1.9000349-.4349053-.5846262-1.304716-.5846262-1.8845898 0z"/><path d="m64.3659879 50.5701607c-.5798738-.5846261-1.4496845-.5846261-1.8845898 0-.5798737.5846262-.5798737 1.4615654 0 1.900035l3.3342742 3.3616002c.5798737.5846262 1.4496844.5846262 1.8845897 0 .5798738-.5846261.5798738-1.4615653 0-1.9000349z"/><path d="m31.0765001 60.034542c-.5798738-.5846261-1.4496844-.5846261-1.8845897 0-.5798738.5846261-.5798738 1.4615653 0 1.9000349l3.3342741 3.3616003c.5798738.5846261 1.4496844.5846261 1.8845898 0 .5798737-.5846261.5798737-1.4615653 0-1.9000349z"/></g></g><path d="m11.6939442 83.9622642h48.231748l7.7303106-61.2224843h3.493388v-12.2444969h-3.8128535l-2.6499614-10.495283h-57.75257302l-2.65090379 10.495283h-3.81191107v12.2444969h3.49244559zm43.5528509-5.2476416h-38.8730115l-1.987471-15.7429245h42.848896zm2.4294455-19.2413522h-43.7319024l-3.0919358-24.4889937h49.9167163zm3.5339101-27.9874213h-50.7997226l-1.10446474-8.7460692h53.00865204zm1.4435347-17.4921384h3.2962004v5.2476415h-60.27919279v-5.2476415h3.04472294l2.35750245-8.74606919h49.4747419z" fill-rule="nonzero" transform="translate(227.35209 17.358491)"/><path d="m8.37559398 68.8490566h48.31032032l8.2722851-68.8490566h-64.38109072zm4.18632202-4.970225-6.06743897-59.07584339h52.73281687l-6.7188639 58.99598609z" fill-rule="nonzero" transform="translate(427 32.471698)"/><g transform="translate(440.324759 14)"><path d="m4.99430593 21.8301887c-.56937725 0-1.1431009-.1233047-1.64583349-.3806361-1.31550775-.6733506-1.64438469-2.0104018-.73309133-2.9839723 3.23081751-3.4546744.56647967-5.8382067.2520907-6.0987548-2.17319563-1.696243-5.06354582-6.30354771-.2506419-11.44374294.90984457-.97249835 2.71504574-1.21589099 4.03200229-.54146821 1.31550776.67442278 1.6429359 2.01040176.73164253 2.98397232-3.36410683 3.59406225-.40711198 5.97437794-.27816904 6.07409386 2.19927398 1.71875947 5.08672661 6.32606417.27961784 11.46733167-.56358207.60044-1.46763145.9231765-2.3876176.9231765z"/><path d="m19.9846603 21.8301887c-.569413 0-1.1431726-.1233032-1.6459368-.3806317-1.3155902-.6733428-1.6444878-2.0103785-.7331373-2.9839378 3.2295713-3.4546344.5665152-5.8381391.2521065-6.0986842-2.1733319-1.6962233-5.0624145-6.30240252-.2521065-11.44361045.9113506-.97248709 2.7152161-1.21587691 4.0322552-.54253414 1.3155903.67441497 1.6444879 2.01037849.7331373 2.98393778-3.3628689 3.59402065-.4071375 5.97430878-.2781864 6.07402356 2.1994119 1.71873955 5.0870456 6.32599095.2781864 11.46719895-.5636174.6015052-1.4662746.924238-2.3863184.924238z"/><path d="m33.3097201 21.8301887c-.5694724 0-1.1432919-.1232947-1.6475575-.3806052-1.3157276-.674368-1.6446594-2.0102386-.7332138-2.9837301 3.2313573-3.454394.5680233-5.8377329.2521328-6.0982598-2.1721097-1.6961053-5.0600447-6.30196399-.2521328-11.44281415.9114456-.97456367 2.7126013-1.21793656 4.0326759-.54249639 1.3157276.67436804 1.6446595 2.01023859.7332138 2.98373013-3.3617708 3.59484267-.4057309 5.97496516-.2782155 6.074673 2.1996415 1.71862001 5.0890255 6.32555081.2782155 11.46640091-.5622271.6003913-1.4649785.9231016-2.3851184.9231016z"/></g><g fill-rule="nonzero" stroke="#000" stroke-width=".833085" transform="translate(322.17926 283.050314)"><path d="m40.807074 80.786964c21.7019438 0 39.3231803-17.7656518 39.3231803-39.6454546 0-21.8798027-17.6212365-39.64545451-39.3231803-39.64545451-21.7019439 0-39.3231804 17.76565181-39.3231804 39.64545451 0 21.8798028 17.6212365 39.6454546 39.3231804 39.6454546zm0-74.61573758c19.10513 0 34.6860128 15.70857628 34.6860128 34.97028298s-15.5808828 34.9702831-34.6860128 34.9702831c-19.1051301 0-34.68601291-15.7085764-34.68601291-34.9702831s15.58088281-34.97028298 34.68601291-34.97028298z"/><path d="m40.807074 56.8500858c4.0807074 0 7.975928-1.6830618 10.9437152-4.6751716 6.1210611-6.1712264 6.1210611-16.08259 0-22.0668096-2.9677872-2.9921097-6.8630078-4.6751715-10.9437152-4.6751715s-7.9759281 1.6830618-10.9437153 4.6751715c-6.1210611 6.1712264-6.1210611 16.0825901 0 22.0668096 2.9677872 2.9921098 6.8630079 4.6751716 10.9437153 4.6751716zm-7.7904414-23.5628645c2.0403537-2.0570755 4.8226542-3.1791167 7.7904414-3.1791167s5.5646009 1.1220412 7.7904413 3.1791167c4.2661941 4.3011578 4.2661941 11.2204116 0 15.5215694-2.0403537 2.0570755-4.8226541 3.1791167-7.7904413 3.1791167s-5.564601-1.1220412-7.7904414-3.1791167c-4.0807074-4.1141509-4.0807074-11.2204116 0-15.5215694z"/></g><ellipse cx="350.494373" cy="343.503144" rx="3.33119" ry="3.358491"/><ellipse cx="368.815916" cy="346.861635" rx="3.33119" ry="3.358491"/><ellipse cx="360.487942" cy="351.899371" rx="3.33119" ry="3.358491"/><ellipse cx="385.471865" cy="308.238993" rx="3.33119" ry="3.358491"/><ellipse cx="345.497588" cy="301.522012" rx="3.33119" ry="3.358491"/><ellipse cx="355.491157" cy="294.805031" rx="3.33119" ry="3.358491"/><ellipse cx="340.500803" cy="319.99371" rx="3.33119" ry="3.358491"/><ellipse cx="385.471865" cy="338.465408" rx="3.33119" ry="3.358491"/><g transform="translate(122.53135 283.050314)"><path d="m40.807074 80.786964c21.7019438 0 39.3231803-17.7656518 39.3231803-39.6454546 0-21.8798027-17.6212365-39.64545451-39.3231803-39.64545451-21.7019439 0-39.3231804 17.76565181-39.3231804 39.64545451 0 21.8798028 17.6212365 39.6454546 39.3231804 39.6454546zm0-74.61573758c19.10513 0 34.6860128 15.70857628 34.6860128 34.97028298s-15.5808828 34.9702831-34.6860128 34.9702831c-19.1051301 0-34.68601291-15.7085764-34.68601291-34.9702831s15.58088281-34.97028298 34.68601291-34.97028298z" fill-rule="nonzero" stroke="#000" stroke-width=".833085"/><path d="m40.807074 56.8500858c4.0807074 0 7.975928-1.6830618 10.9437152-4.6751716 6.1210611-6.1712264 6.1210611-16.08259 0-22.0668096-2.9677872-2.9921097-6.8630078-4.6751715-10.9437152-4.6751715s-7.9759281 1.6830618-10.9437153 4.6751715c-6.1210611 6.1712264-6.1210611 16.0825901 0 22.0668096 2.9677872 2.9921098 6.8630079 4.6751716 10.9437153 4.6751716zm-7.7904414-23.5628645c2.0403537-2.0570755 4.8226542-3.1791167 7.7904414-3.1791167s5.5646009 1.1220412 7.7904413 3.1791167c4.2661941 4.3011578 4.2661941 11.2204116 0 15.5215694-2.0403537 2.0570755-4.8226541 3.1791167-7.7904413 3.1791167s-5.564601-1.1220412-7.7904414-3.1791167c-4.0807074-4.1141509-4.0807074-11.2204116 0-15.5215694z" fill-rule="nonzero" stroke="#000" stroke-width=".833085"/><path d="m36.9118533 20.7577616c.7419468 0 1.2984069-.3740137 1.854867-.7480275l3.8952207-4.6751715c.7419468-.9350343.7419468-2.4310892-.1854867-3.3661235-1.1129202-.7480274-2.5968138-.7480274-3.5242473.3740137l-3.709734 4.4881647c-.7419468.9350343-.7419468 2.4310892.1854867 3.3661235.5564601.3740137.9274335.5610206 1.4838936.5610206z"/><path d="m52.3072493 24.4978988c.3709734.7480274 1.2984069 1.1220412 2.0403537 1.1220412.3709734 0 .7419468-.1870069 1.1129202-.3740138 1.1129202-.5610205 1.4838936-2.0570754.7419468-3.1791166l-4.0807074-7.1062607c-.5564601-1.1220412-2.0403537-1.4960549-3.1532739-.7480275-1.1129202.5610206-1.4838936 2.0570755-.7419468 3.1791167z"/><path d="m61.0251242 32.5391938c.7419468 0 1.4838936-.3740137 1.854867-.9350343l3.1532739-4.6751715c.7419468-1.1220412.5564601-2.4310892-.5564601-3.1791166-1.1129202-.7480275-2.4113271-.5610206-3.1532739.5610205l-3.1532739 4.6751716c-.7419468 1.1220411-.5564601 2.4310892.5564601 3.1791166.3709734.1870069.9274335.3740137 1.2984069.3740137z"/><path d="m65.2913183 38.7104202 2.7823005 6.5452402c.3709734.9350343 1.2984069 1.4960549 2.2258404 1.4960549.3709734 0 .5564601 0 .9274335-.1870069 1.1129202-.5610206 1.6693803-1.8700686 1.2984069-2.9921098l-2.7823005-6.5452401c-.5564601-1.1220412-1.854867-1.6830618-2.9677872-1.309048-1.4838936.3740137-2.0403537 1.8700686-1.4838936 2.9921097z"/><path d="m60.4686641 59.8421955c.3709734.9350343 1.2984069 1.6830618 2.2258404 1.6830618.1854867 0 .3709734 0 .7419468-.1870069 1.2984069-.3740137 1.854867-1.6830617 1.4838936-2.9921097l-1.6693803-5.423199c-.3709734-1.309048-1.6693803-1.8700686-2.9677872-1.4960549s-1.854867 1.6830617-1.4838936 2.9921098z"/><path d="m54.9040631 57.9721269-5.3791143 1.6830618c-1.2984069.3740137-1.854867 1.6830617-1.4838936 2.9921098.3709734.9350343 1.2984069 1.6830617 2.2258404 1.6830617.1854867 0 .3709734 0 .7419468-.1870069l5.3791143-1.6830617c1.2984069-.3740137 1.854867-1.6830618 1.4838936-2.9921098-.5564601-1.1220411-1.854867-1.8700686-2.9677872-1.4960549z"/><path d="m33.0166326 59.0941681-7.6049547 4.3011578c-1.1129202.5610206-1.4838936 2.0570755-.9274335 3.1791166.3709734.7480275 1.2984069 1.1220412 2.0403537 1.1220412.3709734 0 .7419468-.1870069 1.1129202-.3740137l7.6049547-4.3011578c1.1129202-.5610206 1.4838936-2.0570755.9274335-3.1791167-.5564601-1.1220411-2.0403537-1.4960548-3.1532739-.7480274z"/><path d="m42.2909676 64.5173671c-.9274335-.7480275-2.4113271-.5610206-3.3387606.3740137-.7419468.9350343-.5564601 2.4310892.3709734 3.3661235l6.121061 4.8621784c.3709734.3740137.9274335.5610206 1.4838936.5610206.7419468 0 1.2984069-.3740138 1.854867-.9350343.7419468-.9350344.5564601-2.4310892-.3709734-3.3661235z"/><path d="m19.6615902 57.9721269v-7.8542881c0-1.3090481-1.1129202-2.2440824-2.2258404-2.2440824s-2.2258404 1.1220412-2.2258404 2.2440824v7.8542881c0 1.3090481 1.1129202 2.2440824 2.2258404 2.2440824s2.2258404-.9350343 2.2258404-2.2440824z"/><path d="m20.403537 45.2556604c.7419468 0 1.6693803-.3740137 2.0403537-1.1220412.5564601-1.1220412.1854867-2.618096-.9274335-3.1791166l-6.3065478-3.5531304c-1.1129202-.5610206-2.5968138-.1870068-3.1532739.9350343-.5564601.9350343-.1854867 2.2440824.9274335 2.9921098l6.3065478 3.5531304c.3709734.3740137.7419468.3740137 1.1129202.3740137z"/><path d="m13.1695557 32.5391938 6.3065478-3.7401372c1.1129202-.5610206 1.4838936-2.0570755.7419468-3.1791166-.5564601-1.1220412-2.0403537-1.4960549-3.1532739-.7480275l-6.3065478 3.7401372c-1.11292021.5610206-1.48389361 2.0570755-.7419468 3.1791167.3709734.7480274 1.2984069 1.1220411 2.0403537 1.1220411.1854867 0 .7419468 0 1.1129202-.3740137z"/><path d="m26.5245981 25.2459262c.3709734.7480275 1.2984069 1.1220412 2.0403537 1.1220412.3709734 0 .7419468-.1870069 1.1129202-.3740137 1.1129202-.5610206 1.4838936-2.0570755.9274335-3.1791167l-3.8952207-7.1062607c-.5564601-1.1220411-2.0403537-1.4960549-3.1532739-.9350343s-1.4838936 2.0570755-.9274335 3.1791167z"/></g><g stroke="#000" transform="translate(21.041801 284.333333)"><path d="m75.8184947 25.5773934c-.1449684-.4384696-.4349053-.7307826-.8698106-.8769392-.4349054-.1461565-.8698107-.1461565-1.1597476.1461566-2.0295582 1.1692522-4.2040848 1.7538784-6.5235798 1.6077218-6.3786114-.4384696-11.16257-5.9924179-10.8726331-12.2771488 0-1.0230957.2899369-1.900035.5798738-2.9231307.1449684-.4384696.1449684-.7307827-.1449685-1.1692523-.1449684-.29231303-.5798737-.5846261-.8698106-.5846261-4.2040848-.73078267-7.6833274-3.80006988-8.9880434-7.89245283-.1449684-.4384696-.5798737-.8769392-1.0147791-.8769392-2.319495-.58462614-4.6389901-.73078267-6.8135167-.73078267-21.6002977 0-39.1414791 17.6849406-39.1414791 39.4622642 0 21.7773235 17.5411814 39.4622641 39.1414791 39.4622641s39.1414791-17.6849406 39.1414791-39.4622641c0-4.8231657-.8698106-9.5001748-2.4644635-13.8848708zm-36.6770156-22.80041926c1.7396213 0 3.624211.14615654 5.5088008.43846961 1.5946528 4.23853948 5.0738954 7.45398325 9.4229486 8.62323545-.1449684.7307827-.2899368 1.4615654-.2899368 2.1923481-.5798738 7.8924528 5.3638323 14.7618099 13.3370965 15.2002795 2.3194951.1461565 4.6389901-.2923131 6.6685483-1.1692523 1.1597476 3.5077568 1.7396213 7.1616702 1.7396213 10.8155835-3.624211 3.3616003-9.2779802 3.2154438-12.7572228-.2923131-2.6094319-2.6308176-6.3786114-3.9462264-10.0028224-3.5077568-1.8845898-5.8462613-7.2484221-9.9386443-13.6270335-9.9386443s-11.7424437 4.2385395-13.6270335 9.9386443c-3.624211-.4384696-7.3933905.7307827-10.0028224 3.5077568-3.4792426 3.5077569-9.13301179 3.6539134-12.75722282.2923131.28993688-20.0234451 16.52640232-36.10066386 36.38707872-36.10066386zm11.5974753 36.68529006c0 6.4308874-5.2188639 11.6925227-11.5974753 11.6925227s-11.5974753-5.2616353-11.5974753-11.6925227c0-6.4308875 5.2188639-11.6925228 11.5974753-11.6925228s11.5974753 5.2616353 11.5974753 11.6925228zm-11.5974753 36.68529c-19.1358342 0-34.93739431-14.9079665-36.24211028-33.9083159 4.78395856 2.9231307 10.72766468 2.0461915 14.64181258-1.9000349 2.0295581-2.0461915 4.7839585-2.9231307 7.5383589-2.6308177 0 .5846262-.1449684 1.1692523-.1449684 1.7538785 0 7.8924528 6.3786114 14.3233403 14.2069072 14.3233403s14.2069072-6.4308875 14.2069072-14.3233403c0-.5846262 0-1.1692523-.1449684-1.7538785 2.7544004-.292313 5.5088007.7307827 7.5383589 2.6308177 3.9141479 3.9462264 9.857854 4.677009 14.6418126 1.9000349-1.304716 19.0003494-17.1062761 33.9083159-36.2421103 33.9083159z" fill-rule="nonzero" stroke-width="2.915798"/><g stroke-width="1.66617"><path d="m40.7302149 65.4751444-3.3342742 3.5077568c-.5798737.5846261-.5798737 1.4615653 0 1.900035.5798738.5846261 1.4496844.5846261 1.8845898 0l3.3342741-3.3616003c.5798738-.5846262.5798738-1.4615654 0-1.900035-.5798738-.5846261-1.4496844-.5846261-1.8845897-.1461565z"/><path d="m23.1949506 49.8393781c-.5798738-.5846262-1.4496844-.5846262-1.8845898 0l-3.3342741 3.3616002c-.5798738.5846262-.5798738 1.4615654 0 1.900035.5798738.5846261 1.4496844.5846261 1.8845897 0l3.3342742-3.3616003c.5798737-.5846261.5798737-1.4615653 0-1.9000349z"/><path d="m55.8217254 56.4223877-3.3342741 3.3616002c-.5798738.5846262-.5798738 1.4615654 0 1.900035.5798738.5846261 1.4496844.5846261 1.8845897 0l3.3342742-3.3616003c.5798737-.5846261.5798737-1.4615653 0-1.9000349-.4349053-.5846262-1.304716-.5846262-1.8845898 0z"/><path d="m64.3659879 50.5701607c-.5798738-.5846261-1.4496845-.5846261-1.8845898 0-.5798737.5846262-.5798737 1.4615654 0 1.900035l3.3342742 3.3616002c.5798737.5846262 1.4496844.5846262 1.8845897 0 .5798738-.5846261.5798738-1.4615653 0-1.9000349z"/><path d="m31.0765001 60.034542c-.5798738-.5846261-1.4496844-.5846261-1.8845897 0-.5798738.5846261-.5798738 1.4615653 0 1.9000349l3.3342741 3.3616003c.5798738.5846261 1.4496844.5846261 1.8845898 0 .5798737-.5846261.5798737-1.4615653 0-1.9000349z"/></g></g><path d="m11.6939442 83.9622642h48.231748l7.7303106-61.2224843h3.493388v-12.2444969h-3.8128535l-2.6499614-10.495283h-57.75257302l-2.65090379 10.495283h-3.81191107v12.2444969h3.49244559zm43.5528509-5.2476416h-38.8730115l-1.987471-15.7429245h42.848896zm2.4294455-19.2413522h-43.7319024l-3.0919358-24.4889937h49.9167163zm3.5339101-27.9874213h-50.7997226l-1.10446474-8.7460692h53.00865204zm1.4435347-17.4921384h3.2962004v5.2476415h-60.27919279v-5.2476415h3.04472294l2.35750245-8.74606919h49.4747419z" fill-rule="nonzero" transform="translate(227.35209 279.691824)"/><path d="m8.37559398 68.8490566h48.31032032l8.2722851-68.8490566h-64.38109072zm4.18632202-4.970225-6.06743897-59.07584339h52.73281687l-6.7188639 58.99598609z" fill-rule="nonzero" transform="translate(427 294.805031)"/><g transform="translate(440.324759 276.333333)"><path d="m4.99430593 21.8301887c-.56937725 0-1.1431009-.1233047-1.64583349-.3806361-1.31550775-.6733506-1.64438469-2.0104018-.73309133-2.9839723 3.23081751-3.4546744.56647967-5.8382067.2520907-6.0987548-2.17319563-1.696243-5.06354582-6.30354771-.2506419-11.44374294.90984457-.97249835 2.71504574-1.21589099 4.03200229-.54146821 1.31550776.67442278 1.6429359 2.01040176.73164253 2.98397232-3.36410683 3.59406225-.40711198 5.97437794-.27816904 6.07409386 2.19927398 1.71875947 5.08672661 6.32606417.27961784 11.46733167-.56358207.60044-1.46763145.9231765-2.3876176.9231765z"/><path d="m19.9846603 21.8301887c-.569413 0-1.1431726-.1233032-1.6459368-.3806317-1.3155902-.6733428-1.6444878-2.0103785-.7331373-2.9839378 3.2295713-3.4546344.5665152-5.8381391.2521065-6.0986842-2.1733319-1.6962233-5.0624145-6.30240252-.2521065-11.44361045.9113506-.97248709 2.7152161-1.21587691 4.0322552-.54253414 1.3155903.67441497 1.6444879 2.01037849.7331373 2.98393778-3.3628689 3.59402065-.4071375 5.97430878-.2781864 6.07402356 2.1994119 1.71873955 5.0870456 6.32599095.2781864 11.46719895-.5636174.6015052-1.4662746.924238-2.3863184.924238z"/><path d="m33.3097201 21.8301887c-.5694724 0-1.1432919-.1232947-1.6475575-.3806052-1.3157276-.674368-1.6446594-2.0102386-.7332138-2.9837301 3.2313573-3.454394.5680233-5.8377329.2521328-6.0982598-2.1721097-1.6961053-5.0600447-6.30196399-.2521328-11.44281415.9114456-.97456367 2.7126013-1.21793656 4.0326759-.54249639 1.3157276.67436804 1.6446595 2.01023859.7332138 2.98373013-3.3617708 3.59484267-.4057309 5.97496516-.2782155 6.074673 2.1996415 1.71862001 5.0890255 6.32555081.2782155 11.46640091-.5622271.6003913-1.4649785.9231016-2.3851184.9231016z"/></g><g fill-rule="nonzero" stroke="#000" stroke-width=".833085" transform="translate(410 151.666667)"><path d="m40.7992295 80.786964c21.6977721 0 39.3156212-17.7656518 39.3156212-39.6454546 0-21.8798027-17.6178491-39.64545451-39.3156212-39.64545451-21.697772 0-39.31562115 17.76565181-39.31562115 39.64545451 0 21.8798028 17.61784915 39.6454546 39.31562115 39.6454546zm0-74.61573758c19.1014575 0 34.6793451 15.70857628 34.6793451 34.97028298s-15.5778876 34.9702831-34.6793451 34.9702831c-19.1014574 0-34.67934507-15.7085764-34.67934507-34.9702831s15.57788767-34.97028298 34.67934507-34.97028298z"/><path d="m40.7992295 56.8500858c4.079923 0 7.9743949-1.6830618 10.9416116-4.6751716 6.1198844-6.1712264 6.1198844-16.08259 0-22.0668096-2.9672167-2.9921097-6.8616886-4.6751715-10.9416116-4.6751715-4.0799229 0-7.9743948 1.6830618-10.9416115 4.6751715-6.1198845 6.1712264-6.1198845 16.0825901 0 22.0668096 2.9672167 2.9921098 6.8616886 4.6751716 10.9416115 4.6751716zm-7.7889438-23.5628645c2.0399615-2.0570755 4.8217271-3.1791167 7.7889438-3.1791167s5.5635313 1.1220412 7.7889438 3.1791167c4.265374 4.3011578 4.265374 11.2204116 0 15.5215694-2.0399614 2.0570755-4.8217271 3.1791167-7.7889438 3.1791167s-5.5635313-1.1220412-7.7889438-3.1791167c-4.0799229-4.1141509-4.0799229-11.2204116 0-15.5215694z"/></g><ellipse cx="438.30967" cy="212.119497" rx="3.330549" ry="3.358491"/><ellipse cx="456.627691" cy="215.477988" rx="3.330549" ry="3.358491"/><ellipse cx="448.301318" cy="220.515724" rx="3.330549" ry="3.358491"/><ellipse cx="473.280438" cy="176.855346" rx="3.330549" ry="3.358491"/><ellipse cx="433.313845" cy="170.138365" rx="3.330549" ry="3.358491"/><ellipse cx="443.305493" cy="163.421384" rx="3.330549" ry="3.358491"/><ellipse cx="428.318021" cy="188.610063" rx="3.330549" ry="3.358491"/><ellipse cx="473.280438" cy="207.081761" rx="3.330549" ry="3.358491"/><g transform="translate(209.6038 151.383648)"><path d="m40.7992295 80.786964c21.6977721 0 39.3156212-17.7656518 39.3156212-39.6454546 0-21.8798027-17.6178491-39.64545451-39.3156212-39.64545451-21.697772 0-39.31562115 17.76565181-39.31562115 39.64545451 0 21.8798028 17.61784915 39.6454546 39.31562115 39.6454546zm0-74.61573758c19.1014575 0 34.6793451 15.70857628 34.6793451 34.97028298s-15.5778876 34.9702831-34.6793451 34.9702831c-19.1014574 0-34.67934507-15.7085764-34.67934507-34.9702831s15.57788767-34.97028298 34.67934507-34.97028298z" fill-rule="nonzero" stroke="#000" stroke-width=".833085"/><path d="m40.7992295 56.8500858c4.079923 0 7.9743949-1.6830618 10.9416116-4.6751716 6.1198844-6.1712264 6.1198844-16.08259 0-22.0668096-2.9672167-2.9921097-6.8616886-4.6751715-10.9416116-4.6751715-4.0799229 0-7.9743948 1.6830618-10.9416115 4.6751715-6.1198845 6.1712264-6.1198845 16.0825901 0 22.0668096 2.9672167 2.9921098 6.8616886 4.6751716 10.9416115 4.6751716zm-7.7889438-23.5628645c2.0399615-2.0570755 4.8217271-3.1791167 7.7889438-3.1791167s5.5635313 1.1220412 7.7889438 3.1791167c4.265374 4.3011578 4.265374 11.2204116 0 15.5215694-2.0399614 2.0570755-4.8217271 3.1791167-7.7889438 3.1791167s-5.5635313-1.1220412-7.7889438-3.1791167c-4.0799229-4.1141509-4.0799229-11.2204116 0-15.5215694z" fill-rule="nonzero" stroke="#000" stroke-width=".833085"/><path d="m36.9047576 20.7577616c.7418042 0 1.2981573-.3740137 1.8545104-.7480275l3.894472-4.6751715c.7418041-.9350343.7418041-2.4310892-.1854511-3.3661235-1.1127062-.7480274-2.5963146-.7480274-3.5235698.3740137l-3.7090209 4.4881647c-.7418041.9350343-.7418041 2.4310892.1854511 3.3661235.5563531.3740137.9272552.5610206 1.4836083.5610206z"/><path d="m52.2971942 24.4978988c.3709021.7480274 1.2981573 1.1220412 2.0399615 1.1220412.3709021 0 .7418042-.1870069 1.1127062-.3740138 1.1127063-.5610205 1.4836084-2.0570754.7418042-3.1791166l-4.0799229-7.1062607c-.5563532-1.1220412-2.0399615-1.4960549-3.1526678-.7480275-1.1127062.5610206-1.4836083 2.0570755-.7418041 3.1791167z"/><path d="m61.0133932 32.5391938c.7418042 0 1.4836084-.3740137 1.8545105-.9350343l3.1526677-4.6751715c.7418042-1.1220412.5563531-2.4310892-.5563531-3.1791166-1.1127063-.7480275-2.4108636-.5610206-3.1526678.5610205l-3.1526677 4.6751716c-.7418042 1.1220411-.5563531 2.4310892.5563531 3.1791166.3709021.1870069.9272553.3740137 1.2981573.3740137z"/><path d="m65.2787672 38.7104202 2.7817657 6.5452402c.3709021.9350343 1.2981573 1.4960549 2.2254125 1.4960549.3709021 0 .5563531 0 .9272552-.1870069 1.1127063-.5610206 1.6690594-1.8700686 1.2981573-2.9921098l-2.7817656-6.5452401c-.5563532-1.1220412-1.8545105-1.6830618-2.9672167-1.309048-1.4836084.3740137-2.0399615 1.8700686-1.4836084 2.9921097z"/><path d="m60.4570401 59.8421955c.3709021.9350343 1.2981573 1.6830618 2.2254125 1.6830618.1854511 0 .3709021 0 .7418042-.1870069 1.2981573-.3740137 1.8545104-1.6830617 1.4836083-2.9921097l-1.6690593-5.423199c-.3709021-1.309048-1.6690594-1.8700686-2.9672167-1.4960549s-1.8545105 1.6830617-1.4836084 2.9921098z"/><path d="m54.8935088 57.9721269-5.3780802 1.6830618c-1.2981573.3740137-1.8545105 1.6830617-1.4836084 2.9921098.3709021.9350343 1.2981573 1.6830617 2.2254125 1.6830617.1854511 0 .3709021 0 .7418042-.1870069l5.3780803-1.6830617c1.2981573-.3740137 1.8545104-1.6830618 1.4836083-2.9921098-.5563531-1.1220411-1.8545104-1.8700686-2.9672167-1.4960549z"/><path d="m33.0102857 59.0941681-7.6034928 4.3011578c-1.1127062.5610206-1.4836083 2.0570755-.9272552 3.1791166.3709021.7480275 1.2981573 1.1220412 2.0399615 1.1220412.3709021 0 .7418042-.1870069 1.1127062-.3740137l7.6034928-4.3011578c1.1127063-.5610206 1.4836084-2.0570755.9272552-3.1791167-.5563531-1.1220411-2.0399614-1.4960548-3.1526677-.7480274z"/><path d="m42.2828379 64.5173671c-.9272552-.7480275-2.4108636-.5610206-3.3381188.3740137-.7418042.9350343-.5563531 2.4310892.3709021 3.3661235l6.1198844 4.8621784c.3709021.3740137.9272552.5610206 1.4836084.5610206.7418041 0 1.2981573-.3740138 1.8545104-.9350343.7418042-.9350344.5563531-2.4310892-.3709021-3.3661235z"/><path d="m19.6578106 57.9721269v-7.8542881c0-1.3090481-1.1127063-2.2440824-2.2254125-2.2440824-1.1127063 0-2.2254126 1.1220412-2.2254126 2.2440824v7.8542881c0 1.3090481 1.1127063 2.2440824 2.2254126 2.2440824 1.1127062 0 2.2254125-.9350343 2.2254125-2.2440824z"/><path d="m20.3996148 45.2556604c.7418041 0 1.6690594-.3740137 2.0399614-1.1220412.5563532-1.1220412.1854511-2.618096-.9272552-3.1791166l-6.3053355-3.5531304c-1.1127062-.5610206-2.5963146-.1870068-3.1526677.9350343-.5563531.9350343-.185451 2.2440824.9272552 2.9921098l6.3053355 3.5531304c.3709021.3740137.7418042.3740137 1.1127063.3740137z"/><path d="m13.1670241 32.5391938 6.3053354-3.7401372c1.1127063-.5610206 1.4836084-2.0570755.7418042-3.1791166-.5563531-1.1220412-2.0399615-1.4960549-3.1526677-.7480275l-6.3053355 3.7401372c-1.11270625.5610206-1.48360834 2.0570755-.7418042 3.1791167.3709021.7480274 1.2981573 1.1220411 2.0399615 1.1220411.1854511 0 .7418042 0 1.1127063-.3740137z"/><path d="m26.5194992 25.2459262c.3709021.7480275 1.2981573 1.1220412 2.0399615 1.1220412.3709021 0 .7418041-.1870069 1.1127062-.3740137 1.1127063-.5610206 1.4836084-2.0570755.9272552-3.1791167l-3.8944719-7.1062607c-.5563531-1.1220411-2.0399614-1.4960549-3.1526677-.9350343s-1.4836083 2.0570755-.9272552 3.1791167z"/></g><g stroke="#000" transform="translate(107.740425 153.062893)"><path d="m75.8039199 25.5773934c-.1449405-.4384696-.4348217-.7307826-.8696434-.8769392-.4348217-.1461565-.8696434-.1461565-1.1595246.1461566-2.029168 1.1692522-4.2032766 1.7538784-6.5223258 1.6077218-6.3773852-.4384696-11.1604242-5.9924179-10.870543-12.2771488 0-1.0230957.2898811-1.900035.5797623-2.9231307.1449406-.4384696.1449406-.7307827-.1449406-1.1692523-.1449406-.29231303-.5797623-.5846261-.8696434-.5846261-4.2032767-.73078267-7.6818504-3.80006988-8.9863156-7.89245283-.1449406-.4384696-.5797623-.8769392-1.014584-.8769392-2.3190492-.58462614-4.6380983-.73078267-6.812207-.73078267-21.5961454 0-39.1339548 17.6849406-39.1339548 39.4622642 0 21.7773235 17.5378094 39.4622641 39.1339548 39.4622641 21.5961455 0 39.1339549-17.6849406 39.1339549-39.4622641 0-4.8231657-.8696434-9.5001748-2.4639898-13.8848708zm-36.6699651-22.80041926c1.7392869 0 3.6235144.14615654 5.5077418.43846961 1.5943463 4.23853948 5.0729201 7.45398325 9.4211373 8.62323545-.1449406.7307827-.2898811 1.4615654-.2898811 2.1923481-.5797623 7.8924528 5.3628012 14.7618099 13.3345327 15.2002795 2.3190492.1461565 4.6380984-.2923131 6.6672664-1.1692523 1.1595246 3.5077568 1.7392869 7.1616702 1.7392869 10.8155835-3.6235143 3.3616003-9.2761967 3.2154438-12.7547705-.2923131-2.6089303-2.6308176-6.3773852-3.9462264-10.0008995-3.5077568-1.8842275-5.8462613-7.2470287-9.9386443-13.624414-9.9386443-6.3773852 0-11.7401864 4.2385395-13.6244139 9.9386443-3.6235143-.4384696-7.3919692.7307827-10.0008995 3.5077568-3.4785738 3.5077569-9.13125617 3.6539134-12.7547705.2923131.28988114-20.0234451 16.5232254-36.10066386 36.3800839-36.10066386zm11.5952459 36.68529006c0 6.4308874-5.2178606 11.6925227-11.5952459 11.6925227-6.3773852 0-11.5952458-5.2616353-11.5952458-11.6925227 0-6.4308875 5.2178606-11.6925228 11.5952458-11.6925228 6.3773853 0 11.5952459 5.2616353 11.5952459 11.6925228zm-11.5952459 36.68529c-19.1321557 0-34.93067817-14.9079665-36.23514333-33.9083159 4.78303893 2.9231307 10.72560243 2.0461915 14.63899793-1.9000349 2.029168-2.0461915 4.7830389-2.9231307 7.5369098-2.6308177 0 .5846262-.1449406 1.1692523-.1449406 1.7538785 0 7.8924528 6.3773853 14.3233403 14.2041762 14.3233403 7.826791 0 14.2041763-6.4308875 14.2041763-14.3233403 0-.5846262 0-1.1692523-.1449406-1.7538785 2.7538709-.292313 5.5077418.7307827 7.5369098 2.6308177 3.9133955 3.9462264 9.855959 4.677009 14.6389979 1.9000349-1.3044651 19.0003494-17.1029876 33.9083159-36.2351434 33.9083159z" fill-rule="nonzero" stroke-width="2.915798"/><g stroke-width="1.66617"><path d="m40.7223852 65.4751444-3.3336332 3.5077568c-.5797623.5846261-.5797623 1.4615653 0 1.900035.5797623.5846261 1.4494058.5846261 1.8842275 0l3.3336332-3.3616003c.5797623-.5846262.5797623-1.4615654 0-1.900035-.5797623-.5846261-1.4494058-.5846261-1.8842275-.1461565z"/><path d="m23.1904918 49.8393781c-.5797623-.5846262-1.4494058-.5846262-1.8842275 0l-3.3336332 3.3616002c-.5797623.5846262-.5797623 1.4615654 0 1.900035.5797623.5846261 1.4494058.5846261 1.8842275 0l3.3336332-3.3616003c.5797623-.5846261.5797623-1.4615653 0-1.9000349z"/><path d="m55.8109947 56.4223877-3.3336332 3.3616002c-.5797623.5846262-.5797623 1.4615654 0 1.900035.5797623.5846261 1.4494058.5846261 1.8842275 0l3.3336332-3.3616003c.5797623-.5846261.5797623-1.4615653 0-1.9000349-.4348218-.5846262-1.3044652-.5846262-1.8842275 0z"/><path d="m64.3536146 50.5701607c-.5797623-.5846261-1.4494057-.5846261-1.8842274 0-.5797623.5846262-.5797623 1.4615654 0 1.900035l3.3336332 3.3616002c.5797623.5846262 1.4494057.5846262 1.8842274 0 .5797623-.5846261.5797623-1.4615653 0-1.9000349z"/><path d="m31.0705262 60.034542c-.5797623-.5846261-1.4494057-.5846261-1.8842274 0-.5797623.5846261-.5797623 1.4615653 0 1.9000349l3.3336331 3.3616003c.5797623.5846261 1.4494058.5846261 1.8842275 0 .5797623-.5846261.5797623-1.4615653 0-1.9000349z"/></g></g><path d="m11.6916963 83.9622642h48.2224762l7.7288246-61.2224843h3.4927165v-12.2444969h-3.8121205l-2.649452-10.495283h-57.74147116l-2.6503942 10.495283h-3.8111783v12.2444969h3.49177423zm43.5444786-5.2476416h-38.8655388l-1.987089-15.7429245h42.840659zm2.4289784-19.2413522h-43.7234956l-3.0913414-24.4889937h49.9071206zm3.5332308-27.9874213h-50.7899572l-1.10425244-8.7460692h52.99846204zm1.4432573-17.4921384h3.2955667v5.2476415h-60.26760518v-5.2476415h3.04413764l2.35704934-8.74606919h49.4652312z" fill-rule="nonzero" transform="translate(314.797724 148.025158)"/><path d="m8.37398392 68.8490566h48.30103358l8.2706948-68.8490566h-64.36871456zm4.18551728-4.970225-6.06627262-59.07584339h52.72267992l-6.7175723 58.99598609z" fill-rule="nonzero" transform="translate(19.14496 163.138365)"/><g transform="translate(32.467157 144.666667)"><path d="m4.99334586 21.8301887c-.5692678 0-1.14288116-.1233047-1.6455171-.3806361-1.31525488-.6733506-1.64406859-2.0104018-.73295041-2.9839723 3.23019644-3.4546744.56637077-5.8382067.25204224-6.0987548-2.17277787-1.696243-5.06257244-6.30354771-.25059372-11.44374294.90966967-.97249835 2.71452382-1.21589099 4.03122721-.54146821 1.31525487.67442278 1.64262007 2.01040176.73150189 2.98397232-3.36346015 3.59406225-.40703373 5.97437794-.27811557 6.07409386 2.1988512 1.71875947 5.0857487 6.32606417.27956408 11.46733167-.56347372.60044-1.46734932.9231765-2.38715862.9231765z"/><path d="m19.9808186 21.8301887c-.5693035 0-1.1429529-.1233032-1.6456204-.3806317-1.3153373-.6733428-1.6441717-2.0103785-.7329963-2.9839378 3.2289504-3.4546344.5664063-5.8381391.252058-6.0986842-2.1729142-1.6962233-5.0614414-6.30240252-.252058-11.44361045.9111753-.97248709 2.7146941-1.21587691 4.03148-.54253414 1.3153374.67441497 1.6441718 2.01037849.7329964 2.98393778-3.3622225 3.59402065-.4070592 5.97430878-.278133 6.07402356 2.1989891 1.71873955 5.0860678 6.32599095.278133 11.46719895-.5635091.6015052-1.4659927.924238-2.3858597.924238z"/><path d="m33.3033169 21.8301887c-.5693629 0-1.1430721-.1232947-1.6472408-.3806052-1.3154746-.674368-1.6443433-2.0102386-.7330729-2.9837301 3.2307362-3.454394.5679142-5.8377329.2520844-6.0982598-2.1716922-1.6961053-5.059072-6.30196399-.2520844-11.44281415.9112705-.97456367 2.7120799-1.21793656 4.0319008-.54249639 1.3154746.67436804 1.6443433 2.01023859.7330728 2.98373013-3.3611245 3.59484267-.4056529 5.97496516-.278162 6.074673 2.1992186 1.71862001 5.0880472 6.32555081.278162 11.46640091-.5621191.6003913-1.4646969.9231016-2.3846599.9231016z"/></g><g fill-rule="nonzero" stroke="#000" stroke-width=".833085" transform="translate(410 414)"><path d="m40.7992295 80.786964c21.6977721 0 39.3156212-17.7656518 39.3156212-39.6454546 0-21.8798027-17.6178491-39.64545451-39.3156212-39.64545451-21.697772 0-39.31562115 17.76565181-39.31562115 39.64545451 0 21.8798028 17.61784915 39.6454546 39.31562115 39.6454546zm0-74.61573758c19.1014575 0 34.6793451 15.70857628 34.6793451 34.97028298s-15.5778876 34.9702831-34.6793451 34.9702831c-19.1014574 0-34.67934507-15.7085764-34.67934507-34.9702831s15.57788767-34.97028298 34.67934507-34.97028298z"/><path d="m40.7992295 56.8500858c4.079923 0 7.9743949-1.6830618 10.9416116-4.6751716 6.1198844-6.1712264 6.1198844-16.08259 0-22.0668096-2.9672167-2.9921097-6.8616886-4.6751715-10.9416116-4.6751715-4.0799229 0-7.9743948 1.6830618-10.9416115 4.6751715-6.1198845 6.1712264-6.1198845 16.0825901 0 22.0668096 2.9672167 2.9921098 6.8616886 4.6751716 10.9416115 4.6751716zm-7.7889438-23.5628645c2.0399615-2.0570755 4.8217271-3.1791167 7.7889438-3.1791167s5.5635313 1.1220412 7.7889438 3.1791167c4.265374 4.3011578 4.265374 11.2204116 0 15.5215694-2.0399614 2.0570755-4.8217271 3.1791167-7.7889438 3.1791167s-5.5635313-1.1220412-7.7889438-3.1791167c-4.0799229-4.1141509-4.0799229-11.2204116 0-15.5215694z"/></g><ellipse cx="438.30967" cy="474.45283" rx="3.330549" ry="3.358491"/><ellipse cx="456.627691" cy="477.811321" rx="3.330549" ry="3.358491"/><ellipse cx="448.301318" cy="482.849057" rx="3.330549" ry="3.358491"/><ellipse cx="473.280438" cy="439.188679" rx="3.330549" ry="3.358491"/><ellipse cx="433.313845" cy="432.471698" rx="3.330549" ry="3.358491"/><ellipse cx="443.305493" cy="425.754717" rx="3.330549" ry="3.358491"/><ellipse cx="428.318021" cy="450.943396" rx="3.330549" ry="3.358491"/><ellipse cx="473.280438" cy="469.415094" rx="3.330549" ry="3.358491"/><g transform="translate(209.6038 413.716981)"><path d="m40.7992295 80.786964c21.6977721 0 39.3156212-17.7656518 39.3156212-39.6454546 0-21.8798027-17.6178491-39.64545451-39.3156212-39.64545451-21.697772 0-39.31562115 17.76565181-39.31562115 39.64545451 0 21.8798028 17.61784915 39.6454546 39.31562115 39.6454546zm0-74.61573758c19.1014575 0 34.6793451 15.70857628 34.6793451 34.97028298s-15.5778876 34.9702831-34.6793451 34.9702831c-19.1014574 0-34.67934507-15.7085764-34.67934507-34.9702831s15.57788767-34.97028298 34.67934507-34.97028298z" fill-rule="nonzero" stroke="#000" stroke-width=".833085"/><path d="m40.7992295 56.8500858c4.079923 0 7.9743949-1.6830618 10.9416116-4.6751716 6.1198844-6.1712264 6.1198844-16.08259 0-22.0668096-2.9672167-2.9921097-6.8616886-4.6751715-10.9416116-4.6751715-4.0799229 0-7.9743948 1.6830618-10.9416115 4.6751715-6.1198845 6.1712264-6.1198845 16.0825901 0 22.0668096 2.9672167 2.9921098 6.8616886 4.6751716 10.9416115 4.6751716zm-7.7889438-23.5628645c2.0399615-2.0570755 4.8217271-3.1791167 7.7889438-3.1791167s5.5635313 1.1220412 7.7889438 3.1791167c4.265374 4.3011578 4.265374 11.2204116 0 15.5215694-2.0399614 2.0570755-4.8217271 3.1791167-7.7889438 3.1791167s-5.5635313-1.1220412-7.7889438-3.1791167c-4.0799229-4.1141509-4.0799229-11.2204116 0-15.5215694z" fill-rule="nonzero" stroke="#000" stroke-width=".833085"/><path d="m36.9047576 20.7577616c.7418042 0 1.2981573-.3740137 1.8545104-.7480275l3.894472-4.6751715c.7418041-.9350343.7418041-2.4310892-.1854511-3.3661235-1.1127062-.7480274-2.5963146-.7480274-3.5235698.3740137l-3.7090209 4.4881647c-.7418041.9350343-.7418041 2.4310892.1854511 3.3661235.5563531.3740137.9272552.5610206 1.4836083.5610206z"/><path d="m52.2971942 24.4978988c.3709021.7480274 1.2981573 1.1220412 2.0399615 1.1220412.3709021 0 .7418042-.1870069 1.1127062-.3740138 1.1127063-.5610205 1.4836084-2.0570754.7418042-3.1791166l-4.0799229-7.1062607c-.5563532-1.1220412-2.0399615-1.4960549-3.1526678-.7480275-1.1127062.5610206-1.4836083 2.0570755-.7418041 3.1791167z"/><path d="m61.0133932 32.5391938c.7418042 0 1.4836084-.3740137 1.8545105-.9350343l3.1526677-4.6751715c.7418042-1.1220412.5563531-2.4310892-.5563531-3.1791166-1.1127063-.7480275-2.4108636-.5610206-3.1526678.5610205l-3.1526677 4.6751716c-.7418042 1.1220411-.5563531 2.4310892.5563531 3.1791166.3709021.1870069.9272553.3740137 1.2981573.3740137z"/><path d="m65.2787672 38.7104202 2.7817657 6.5452402c.3709021.9350343 1.2981573 1.4960549 2.2254125 1.4960549.3709021 0 .5563531 0 .9272552-.1870069 1.1127063-.5610206 1.6690594-1.8700686 1.2981573-2.9921098l-2.7817656-6.5452401c-.5563532-1.1220412-1.8545105-1.6830618-2.9672167-1.309048-1.4836084.3740137-2.0399615 1.8700686-1.4836084 2.9921097z"/><path d="m60.4570401 59.8421955c.3709021.9350343 1.2981573 1.6830618 2.2254125 1.6830618.1854511 0 .3709021 0 .7418042-.1870069 1.2981573-.3740137 1.8545104-1.6830617 1.4836083-2.9921097l-1.6690593-5.423199c-.3709021-1.309048-1.6690594-1.8700686-2.9672167-1.4960549s-1.8545105 1.6830617-1.4836084 2.9921098z"/><path d="m54.8935088 57.9721269-5.3780802 1.6830618c-1.2981573.3740137-1.8545105 1.6830617-1.4836084 2.9921098.3709021.9350343 1.2981573 1.6830617 2.2254125 1.6830617.1854511 0 .3709021 0 .7418042-.1870069l5.3780803-1.6830617c1.2981573-.3740137 1.8545104-1.6830618 1.4836083-2.9921098-.5563531-1.1220411-1.8545104-1.8700686-2.9672167-1.4960549z"/><path d="m33.0102857 59.0941681-7.6034928 4.3011578c-1.1127062.5610206-1.4836083 2.0570755-.9272552 3.1791166.3709021.7480275 1.2981573 1.1220412 2.0399615 1.1220412.3709021 0 .7418042-.1870069 1.1127062-.3740137l7.6034928-4.3011578c1.1127063-.5610206 1.4836084-2.0570755.9272552-3.1791167-.5563531-1.1220411-2.0399614-1.4960548-3.1526677-.7480274z"/><path d="m42.2828379 64.5173671c-.9272552-.7480275-2.4108636-.5610206-3.3381188.3740137-.7418042.9350343-.5563531 2.4310892.3709021 3.3661235l6.1198844 4.8621784c.3709021.3740137.9272552.5610206 1.4836084.5610206.7418041 0 1.2981573-.3740138 1.8545104-.9350343.7418042-.9350344.5563531-2.4310892-.3709021-3.3661235z"/><path d="m19.6578106 57.9721269v-7.8542881c0-1.3090481-1.1127063-2.2440824-2.2254125-2.2440824-1.1127063 0-2.2254126 1.1220412-2.2254126 2.2440824v7.8542881c0 1.3090481 1.1127063 2.2440824 2.2254126 2.2440824 1.1127062 0 2.2254125-.9350343 2.2254125-2.2440824z"/><path d="m20.3996148 45.2556604c.7418041 0 1.6690594-.3740137 2.0399614-1.1220412.5563532-1.1220412.1854511-2.618096-.9272552-3.1791166l-6.3053355-3.5531304c-1.1127062-.5610206-2.5963146-.1870068-3.1526677.9350343-.5563531.9350343-.185451 2.2440824.9272552 2.9921098l6.3053355 3.5531304c.3709021.3740137.7418042.3740137 1.1127063.3740137z"/><path d="m13.1670241 32.5391938 6.3053354-3.7401372c1.1127063-.5610206 1.4836084-2.0570755.7418042-3.1791166-.5563531-1.1220412-2.0399615-1.4960549-3.1526677-.7480275l-6.3053355 3.7401372c-1.11270625.5610206-1.48360834 2.0570755-.7418042 3.1791167.3709021.7480274 1.2981573 1.1220411 2.0399615 1.1220411.1854511 0 .7418042 0 1.1127063-.3740137z"/><path d="m26.5194992 25.2459262c.3709021.7480275 1.2981573 1.1220412 2.0399615 1.1220412.3709021 0 .7418041-.1870069 1.1127062-.3740137 1.1127063-.5610206 1.4836084-2.0570755.9272552-3.1791167l-3.8944719-7.1062607c-.5563531-1.1220411-2.0399614-1.4960549-3.1526677-.9350343s-1.4836083 2.0570755-.9272552 3.1791167z"/></g><g stroke="#000" transform="translate(107.740425 415.396226)"><path d="m75.8039199 25.5773934c-.1449405-.4384696-.4348217-.7307826-.8696434-.8769392-.4348217-.1461565-.8696434-.1461565-1.1595246.1461566-2.029168 1.1692522-4.2032766 1.7538784-6.5223258 1.6077218-6.3773852-.4384696-11.1604242-5.9924179-10.870543-12.2771488 0-1.0230957.2898811-1.900035.5797623-2.9231307.1449406-.4384696.1449406-.7307827-.1449406-1.1692523-.1449406-.29231303-.5797623-.5846261-.8696434-.5846261-4.2032767-.73078267-7.6818504-3.80006988-8.9863156-7.89245283-.1449406-.4384696-.5797623-.8769392-1.014584-.8769392-2.3190492-.58462614-4.6380983-.73078267-6.812207-.73078267-21.5961454 0-39.1339548 17.6849406-39.1339548 39.4622642 0 21.7773235 17.5378094 39.4622641 39.1339548 39.4622641 21.5961455 0 39.1339549-17.6849406 39.1339549-39.4622641 0-4.8231657-.8696434-9.5001748-2.4639898-13.8848708zm-36.6699651-22.80041926c1.7392869 0 3.6235144.14615654 5.5077418.43846961 1.5943463 4.23853948 5.0729201 7.45398325 9.4211373 8.62323545-.1449406.7307827-.2898811 1.4615654-.2898811 2.1923481-.5797623 7.8924528 5.3628012 14.7618099 13.3345327 15.2002795 2.3190492.1461565 4.6380984-.2923131 6.6672664-1.1692523 1.1595246 3.5077568 1.7392869 7.1616702 1.7392869 10.8155835-3.6235143 3.3616003-9.2761967 3.2154438-12.7547705-.2923131-2.6089303-2.6308176-6.3773852-3.9462264-10.0008995-3.5077568-1.8842275-5.8462613-7.2470287-9.9386443-13.624414-9.9386443-6.3773852 0-11.7401864 4.2385395-13.6244139 9.9386443-3.6235143-.4384696-7.3919692.7307827-10.0008995 3.5077568-3.4785738 3.5077569-9.13125617 3.6539134-12.7547705.2923131.28988114-20.0234451 16.5232254-36.10066386 36.3800839-36.10066386zm11.5952459 36.68529006c0 6.4308874-5.2178606 11.6925227-11.5952459 11.6925227-6.3773852 0-11.5952458-5.2616353-11.5952458-11.6925227 0-6.4308875 5.2178606-11.6925228 11.5952458-11.6925228 6.3773853 0 11.5952459 5.2616353 11.5952459 11.6925228zm-11.5952459 36.68529c-19.1321557 0-34.93067817-14.9079665-36.23514333-33.9083159 4.78303893 2.9231307 10.72560243 2.0461915 14.63899793-1.9000349 2.029168-2.0461915 4.7830389-2.9231307 7.5369098-2.6308177 0 .5846262-.1449406 1.1692523-.1449406 1.7538785 0 7.8924528 6.3773853 14.3233403 14.2041762 14.3233403 7.826791 0 14.2041763-6.4308875 14.2041763-14.3233403 0-.5846262 0-1.1692523-.1449406-1.7538785 2.7538709-.292313 5.5077418.7307827 7.5369098 2.6308177 3.9133955 3.9462264 9.855959 4.677009 14.6389979 1.9000349-1.3044651 19.0003494-17.1029876 33.9083159-36.2351434 33.9083159z" fill-rule="nonzero" stroke-width="2.915798"/><g stroke-width="1.66617"><path d="m40.7223852 65.4751444-3.3336332 3.5077568c-.5797623.5846261-.5797623 1.4615653 0 1.900035.5797623.5846261 1.4494058.5846261 1.8842275 0l3.3336332-3.3616003c.5797623-.5846262.5797623-1.4615654 0-1.900035-.5797623-.5846261-1.4494058-.5846261-1.8842275-.1461565z"/><path d="m23.1904918 49.8393781c-.5797623-.5846262-1.4494058-.5846262-1.8842275 0l-3.3336332 3.3616002c-.5797623.5846262-.5797623 1.4615654 0 1.900035.5797623.5846261 1.4494058.5846261 1.8842275 0l3.3336332-3.3616003c.5797623-.5846261.5797623-1.4615653 0-1.9000349z"/><path d="m55.8109947 56.4223877-3.3336332 3.3616002c-.5797623.5846262-.5797623 1.4615654 0 1.900035.5797623.5846261 1.4494058.5846261 1.8842275 0l3.3336332-3.3616003c.5797623-.5846261.5797623-1.4615653 0-1.9000349-.4348218-.5846262-1.3044652-.5846262-1.8842275 0z"/><path d="m64.3536146 50.5701607c-.5797623-.5846261-1.4494057-.5846261-1.8842274 0-.5797623.5846262-.5797623 1.4615654 0 1.900035l3.3336332 3.3616002c.5797623.5846262 1.4494057.5846262 1.8842274 0 .5797623-.5846261.5797623-1.4615653 0-1.9000349z"/><path d="m31.0705262 60.034542c-.5797623-.5846261-1.4494057-.5846261-1.8842274 0-.5797623.5846261-.5797623 1.4615653 0 1.9000349l3.3336331 3.3616003c.5797623.5846261 1.4494058.5846261 1.8842275 0 .5797623-.5846261.5797623-1.4615653 0-1.9000349z"/></g></g><path d="m11.6916963 83.9622642h48.2224762l7.7288246-61.2224843h3.4927165v-12.2444969h-3.8121205l-2.649452-10.495283h-57.74147116l-2.6503942 10.495283h-3.8111783v12.2444969h3.49177423zm43.5444786-5.2476416h-38.8655388l-1.987089-15.7429245h42.840659zm2.4289784-19.2413522h-43.7234956l-3.0913414-24.4889937h49.9071206zm3.5332308-27.9874213h-50.7899572l-1.10425244-8.7460692h52.99846204zm1.4432573-17.4921384h3.2955667v5.2476415h-60.26760518v-5.2476415h3.04413764l2.35704934-8.74606919h49.4652312z" fill-rule="nonzero" transform="translate(314.797724 410.358491)"/><path d="m8.37398392 68.8490566h48.30103358l8.2706948-68.8490566h-64.36871456zm4.18551728-4.970225-6.06627262-59.07584339h52.72267992l-6.7175723 58.99598609z" fill-rule="nonzero" transform="translate(19.14496 425.471698)"/><g transform="translate(32.467157 407)"><path d="m4.99334586 21.8301887c-.5692678 0-1.14288116-.1233047-1.6455171-.3806361-1.31525488-.6733506-1.64406859-2.0104018-.73295041-2.9839723 3.23019644-3.4546744.56637077-5.8382067.25204224-6.0987548-2.17277787-1.696243-5.06257244-6.30354771-.25059372-11.44374294.90966967-.97249835 2.71452382-1.21589099 4.03122721-.54146821 1.31525487.67442278 1.64262007 2.01040176.73150189 2.98397232-3.36346015 3.59406225-.40703373 5.97437794-.27811557 6.07409386 2.1988512 1.71875947 5.0857487 6.32606417.27956408 11.46733167-.56347372.60044-1.46734932.9231765-2.38715862.9231765z"/><path d="m19.9808186 21.8301887c-.5693035 0-1.1429529-.1233032-1.6456204-.3806317-1.3153373-.6733428-1.6441717-2.0103785-.7329963-2.9839378 3.2289504-3.4546344.5664063-5.8381391.252058-6.0986842-2.1729142-1.6962233-5.0614414-6.30240252-.252058-11.44361045.9111753-.97248709 2.7146941-1.21587691 4.03148-.54253414 1.3153374.67441497 1.6441718 2.01037849.7329964 2.98393778-3.3622225 3.59402065-.4070592 5.97430878-.278133 6.07402356 2.1989891 1.71873955 5.0860678 6.32599095.278133 11.46719895-.5635091.6015052-1.4659927.924238-2.3858597.924238z"/><path d="m33.3033169 21.8301887c-.5693629 0-1.1430721-.1232947-1.6472408-.3806052-1.3154746-.674368-1.6443433-2.0102386-.7330729-2.9837301 3.2307362-3.454394.5679142-5.8377329.2520844-6.0982598-2.1716922-1.6961053-5.059072-6.30196399-.2520844-11.44281415.9112705-.97456367 2.7120799-1.21793656 4.0319008-.54249639 1.3154746.67436804 1.6443433 2.01023859.7330728 2.98373013-3.3611245 3.59484267-.4056529 5.97496516-.278162 6.074673 2.1992186 1.71862001 5.0880472 6.32555081.278162 11.46640091-.5621191.6003913-1.4646969.9231016-2.3846599.9231016z"/></g></g></svg>