<?xml version="1.0" encoding="UTF-8"?>
<svg width="512px" height="512px" viewBox="0 0 512 512" version="1.1" xmlns="http://www.w3.org/2000/svg" xmlns:xlink="http://www.w3.org/1999/xlink">
    <!-- Generator: Sketch 52.5 (67469) - http://www.bohemiancoding.com/sketch -->
    <title>Donuts-tile Copy</title>
    <desc>Created with Sketch.</desc>
    <g id="Page-1" stroke="none" stroke-width="1" fill="none" fill-rule="evenodd">
        <g id="Donuts-tile-Copy" transform="translate(-3.000000, 0.000000)">
            <rect id="Rectangle" x="3" y="0" width="512" height="512"></rect>
            <g id="Group-4" transform="translate(0.000000, 7.000000)" fill="#000000">
                <g id="Group-5">
                    <g id="Group-2" transform="translate(24.000000, 0.000000)">
                        <g id="Group-2-Copy" transform="translate(302.179260, 14.716981)">
                            <g id="noun_donut_551429" fill-rule="nonzero" stroke="#000000" stroke-width="0.833085">
                                <path d="M39.807074,79.786964 C61.5090178,79.786964 79.1302543,62.0213122 79.1302543,40.1415094 C79.1302543,18.2617067 61.5090178,0.49605489 39.807074,0.49605489 C18.1051301,0.49605489 0.4838936,18.2617067 0.4838936,40.1415094 C0.4838936,62.0213122 18.1051301,79.786964 39.807074,79.786964 Z M39.807074,5.17122642 C58.912204,5.17122642 74.4930868,20.8798027 74.4930868,40.1415094 C74.4930868,59.4032161 58.912204,75.1117925 39.807074,75.1117925 C20.7019439,75.1117925 5.12106109,59.4032161 5.12106109,40.1415094 C5.12106109,20.8798027 20.7019439,5.17122642 39.807074,5.17122642 Z" id="Shape"></path>
                                <path d="M39.807074,55.8500858 C43.8877814,55.8500858 47.783002,54.167024 50.7507892,51.1749142 C56.8718503,45.0036878 56.8718503,35.0923242 50.7507892,29.1081046 C47.783002,26.1159949 43.8877814,24.4329331 39.807074,24.4329331 C35.7263666,24.4329331 31.8311459,26.1159949 28.8633587,29.1081046 C22.7422976,35.279331 22.7422976,45.1906947 28.8633587,51.1749142 C31.8311459,54.167024 35.7263666,55.8500858 39.807074,55.8500858 Z M32.0166326,32.2872213 C34.0569863,30.2301458 36.8392868,29.1081046 39.807074,29.1081046 C42.7748612,29.1081046 45.3716749,30.2301458 47.5975153,32.2872213 C51.8637094,36.5883791 51.8637094,43.5076329 47.5975153,47.8087907 C45.5571616,49.8658662 42.7748612,50.9879074 39.807074,50.9879074 C36.8392868,50.9879074 34.242473,49.8658662 32.0166326,47.8087907 C27.9359252,43.6946398 27.9359252,36.5883791 32.0166326,32.2872213 Z" id="Shape"></path>
                            </g>
                            <ellipse id="Oval" cx="27.3151125" cy="59.4528302" rx="3.33118971" ry="3.35849057"></ellipse>
                            <ellipse id="Oval-Copy" cx="45.6366559" cy="62.8113208" rx="3.33118971" ry="3.35849057"></ellipse>
                            <ellipse id="Oval-Copy-2" cx="37.3086817" cy="67.8490566" rx="3.33118971" ry="3.35849057"></ellipse>
                            <ellipse id="Oval-Copy-3" cx="62.2926045" cy="24.1886792" rx="3.33118971" ry="3.35849057"></ellipse>
                            <ellipse id="Oval-Copy-4" cx="22.318328" cy="17.4716981" rx="3.33118971" ry="3.35849057"></ellipse>
                            <ellipse id="Oval-Copy-5" cx="32.3118971" cy="10.754717" rx="3.33118971" ry="3.35849057"></ellipse>
                            <ellipse id="Oval-Copy-6" cx="17.3215434" cy="35.9433962" rx="3.33118971" ry="3.35849057"></ellipse>
                            <ellipse id="Oval-Copy-7" cx="62.2926045" cy="54.4150943" rx="3.33118971" ry="3.35849057"></ellipse>
                        </g>
                        <g id="noun_donut_551429-copy-2" transform="translate(102.531350, 14.716981)">
                            <path d="M39.807074,79.786964 C61.5090178,79.786964 79.1302543,62.0213122 79.1302543,40.1415094 C79.1302543,18.2617067 61.5090178,0.49605489 39.807074,0.49605489 C18.1051301,0.49605489 0.4838936,18.2617067 0.4838936,40.1415094 C0.4838936,62.0213122 18.1051301,79.786964 39.807074,79.786964 Z M39.807074,5.17122642 C58.912204,5.17122642 74.4930868,20.8798027 74.4930868,40.1415094 C74.4930868,59.4032161 58.912204,75.1117925 39.807074,75.1117925 C20.7019439,75.1117925 5.12106109,59.4032161 5.12106109,40.1415094 C5.12106109,20.8798027 20.7019439,5.17122642 39.807074,5.17122642 Z" id="Shape" stroke="#000000" stroke-width="0.833085" fill-rule="nonzero"></path>
                            <path d="M39.807074,55.8500858 C43.8877814,55.8500858 47.783002,54.167024 50.7507892,51.1749142 C56.8718503,45.0036878 56.8718503,35.0923242 50.7507892,29.1081046 C47.783002,26.1159949 43.8877814,24.4329331 39.807074,24.4329331 C35.7263666,24.4329331 31.8311459,26.1159949 28.8633587,29.1081046 C22.7422976,35.279331 22.7422976,45.1906947 28.8633587,51.1749142 C31.8311459,54.167024 35.7263666,55.8500858 39.807074,55.8500858 Z M32.0166326,32.2872213 C34.0569863,30.2301458 36.8392868,29.1081046 39.807074,29.1081046 C42.7748612,29.1081046 45.3716749,30.2301458 47.5975153,32.2872213 C51.8637094,36.5883791 51.8637094,43.5076329 47.5975153,47.8087907 C45.5571616,49.8658662 42.7748612,50.9879074 39.807074,50.9879074 C36.8392868,50.9879074 34.242473,49.8658662 32.0166326,47.8087907 C27.9359252,43.6946398 27.9359252,36.5883791 32.0166326,32.2872213 Z" id="Shape" stroke="#000000" stroke-width="0.833085" fill-rule="nonzero"></path>
                            <path d="M35.9118533,19.7577616 C36.6538001,19.7577616 37.2102602,19.3837479 37.7667203,19.0097341 L41.661941,14.3345626 C42.4038878,13.3995283 42.4038878,11.9034734 41.4764543,10.9684391 C40.3635341,10.2204117 38.8796405,10.2204117 37.952207,11.3424528 L34.242473,15.8306175 C33.5005262,16.7656518 33.5005262,18.2617067 34.4279597,19.196741 C34.9844198,19.5707547 35.3553932,19.7577616 35.9118533,19.7577616 Z" id="Path"></path>
                            <path d="M51.3072493,23.4978988 C51.6782227,24.2459262 52.6056562,24.61994 53.347603,24.61994 C53.7185764,24.61994 54.0895498,24.4329331 54.4605232,24.2459262 C55.5734434,23.6849057 55.9444168,22.1888508 55.20247,21.0668096 L51.1217626,13.9605489 C50.5653025,12.8385077 49.0814089,12.464494 47.9684887,13.2125214 C46.8555685,13.773542 46.4845951,15.2695969 47.2265419,16.3916381 L51.3072493,23.4978988 Z" id="Path"></path>
                            <path d="M60.0251242,31.5391938 C60.767071,31.5391938 61.5090178,31.1651801 61.8799912,30.6041595 L65.0332651,25.928988 C65.7752119,24.8069468 65.5897252,23.4978988 64.476805,22.7498714 C63.3638848,22.0018439 62.0654779,22.1888508 61.3235311,23.3108919 L58.1702572,27.9860635 C57.4283104,29.1081046 57.6137971,30.4171527 58.7267173,31.1651801 C59.0976907,31.352187 59.6541508,31.5391938 60.0251242,31.5391938 Z" id="Path"></path>
                            <path d="M64.2913183,37.7104202 L67.0736188,44.2556604 C67.4445922,45.1906947 68.3720257,45.7517153 69.2994592,45.7517153 C69.6704326,45.7517153 69.8559193,45.7517153 70.2268927,45.5647084 C71.3398129,45.0036878 71.896273,43.6946398 71.5252996,42.5725986 L68.7429991,36.0273585 C68.186539,34.9053173 66.8881321,34.3442967 65.7752119,34.7183105 C64.2913183,35.0923242 63.7348582,36.5883791 64.2913183,37.7104202 Z" id="Path"></path>
                            <path d="M59.4686641,58.8421955 C59.8396375,59.7772298 60.767071,60.5252573 61.6945045,60.5252573 C61.8799912,60.5252573 62.0654779,60.5252573 62.4364513,60.3382504 C63.7348582,59.9642367 64.2913183,58.6551887 63.9203449,57.3461407 L62.2509646,51.9229417 C61.8799912,50.6138937 60.5815843,50.0528731 59.2831774,50.4268868 C57.9847705,50.8009005 57.4283104,52.1099485 57.7992838,53.4189966 L59.4686641,58.8421955 Z" id="Path"></path>
                            <path d="M53.9040631,56.9721269 L48.5249488,58.6551887 C47.2265419,59.0292024 46.6700818,60.3382504 47.0410552,61.6472985 C47.4120286,62.5823328 48.3394621,63.3303602 49.2668956,63.3303602 C49.4523823,63.3303602 49.637869,63.3303602 50.0088424,63.1433533 L55.3879567,61.4602916 C56.6863636,61.0862779 57.2428237,59.7772298 56.8718503,58.4681818 C56.3153902,57.3461407 55.0169833,56.5981132 53.9040631,56.9721269 Z" id="Path"></path>
                            <path d="M32.0166326,58.0941681 L24.4116779,62.3953259 C23.2987577,62.9563465 22.9277843,64.4524014 23.4842444,65.5744425 C23.8552178,66.32247 24.7826513,66.6964837 25.5245981,66.6964837 C25.8955715,66.6964837 26.2665449,66.5094768 26.6375183,66.32247 L34.242473,62.0213122 C35.3553932,61.4602916 35.7263666,59.9642367 35.1699065,58.8421955 C34.6134464,57.7201544 33.1295528,57.3461407 32.0166326,58.0941681 Z" id="Path"></path>
                            <path d="M41.2909676,63.5173671 C40.3635341,62.7693396 38.8796405,62.9563465 37.952207,63.8913808 C37.2102602,64.8264151 37.3957469,66.32247 38.3231804,67.2575043 L44.4442414,72.1196827 C44.8152148,72.4936964 45.3716749,72.6807033 45.928135,72.6807033 C46.6700818,72.6807033 47.2265419,72.3066895 47.783002,71.745669 C48.5249488,70.8106346 48.3394621,69.3145798 47.4120286,68.3795455 L41.2909676,63.5173671 Z" id="Path"></path>
                            <path d="M18.6615902,56.9721269 L18.6615902,49.1178388 C18.6615902,47.8087907 17.54867,46.8737564 16.4357498,46.8737564 C15.3228296,46.8737564 14.2099094,47.9957976 14.2099094,49.1178388 L14.2099094,56.9721269 C14.2099094,58.281175 15.3228296,59.2162093 16.4357498,59.2162093 C17.54867,59.2162093 18.6615902,58.281175 18.6615902,56.9721269 Z" id="Path"></path>
                            <path d="M19.403537,44.2556604 C20.1454838,44.2556604 21.0729173,43.8816467 21.4438907,43.1336192 C22.0003508,42.011578 21.6293774,40.5155232 20.5164572,39.9545026 L14.2099094,36.4013722 C13.0969892,35.8403516 11.6130956,36.2143654 11.0566355,37.3364065 C10.5001754,38.2714408 10.8711488,39.5804889 11.984069,40.3285163 L18.2906168,43.8816467 C18.6615902,44.2556604 19.0325636,44.2556604 19.403537,44.2556604 Z" id="Path"></path>
                            <path d="M12.1695557,31.5391938 L18.4761035,27.7990566 C19.5890237,27.238036 19.9599971,25.7419811 19.2180503,24.61994 C18.6615902,23.4978988 17.1776966,23.1238851 16.0647764,23.8719125 L9.7582286,27.6120497 C8.64530839,28.1730703 8.27433499,29.6691252 9.0162818,30.7911664 C9.3872552,31.5391938 10.3146887,31.9132075 11.0566355,31.9132075 C11.2421222,31.9132075 11.7985823,31.9132075 12.1695557,31.5391938 Z" id="Path"></path>
                            <path d="M25.5245981,24.2459262 C25.8955715,24.9939537 26.823005,25.3679674 27.5649518,25.3679674 C27.9359252,25.3679674 28.3068986,25.1809605 28.677872,24.9939537 C29.7907922,24.4329331 30.1617656,22.9368782 29.6053055,21.814837 L25.7100848,14.7085763 C25.1536247,13.5865352 23.6697311,13.2125214 22.5568109,13.773542 C21.4438907,14.3345626 21.0729173,15.8306175 21.6293774,16.9526587 L25.5245981,24.2459262 Z" id="Path"></path>
                        </g>
                        <g id="noun_donut_1203999-copy" transform="translate(0.041801, 15.000000)" stroke="#000000">
                            <g id="Group">
                                <path d="M75.8184947,25.5773934 C75.6735263,25.1389238 75.3835894,24.8466108 74.9486841,24.7004542 C74.5137787,24.5542977 74.0788734,24.5542977 73.7889365,24.8466108 C71.7593783,26.015863 69.5848517,26.6004892 67.2653567,26.4543326 C60.8867453,26.015863 56.1027867,20.4619147 56.3927236,14.1771838 C56.3927236,13.1540881 56.6826605,12.2771488 56.9725974,11.2540531 C57.1175658,10.8155835 57.1175658,10.5232704 56.8276289,10.0848008 C56.6826605,9.79248777 56.2477552,9.5001747 55.9578183,9.5001747 C51.7537335,8.76939203 48.2744909,5.70010482 46.9697749,1.60772187 C46.8248065,1.16925227 46.3899012,0.730782669 45.9549958,0.730782669 C43.6355008,0.146156534 41.3160057,0 39.1414791,0 C17.5411814,0 0,17.6849406 0,39.4622642 C0,61.2395877 17.5411814,78.9245283 39.1414791,78.9245283 C60.7417768,78.9245283 78.2829582,61.2395877 78.2829582,39.4622642 C78.2829582,34.6390985 77.4131476,29.9620894 75.8184947,25.5773934 Z M39.1414791,2.77697414 C40.8811004,2.77697414 42.7656901,2.92313068 44.6502799,3.21544375 C46.2449327,7.45398323 49.7241753,10.669427 54.0732285,11.8386792 C53.9282601,12.5694619 53.7832917,13.3002446 53.7832917,14.0310273 C53.2034179,21.9234801 59.147124,28.7928372 67.1203882,29.2313068 C69.4398833,29.3774633 71.7593783,28.9389937 73.7889365,28.0620545 C74.9486841,31.5698113 75.5285578,35.2237247 75.5285578,38.877638 C71.9043468,42.2392383 66.2505776,42.0930818 62.771335,38.5853249 C60.1619031,35.9545073 56.3927236,34.6390985 52.7685126,35.0775681 C50.8839228,29.2313068 45.5200905,25.1389238 39.1414791,25.1389238 C32.7628677,25.1389238 27.3990354,29.3774633 25.5144456,35.0775681 C21.8902346,34.6390985 18.1210551,35.8083508 15.5116232,38.5853249 C12.0323806,42.0930818 6.37861141,42.2392383 2.75440038,38.877638 C3.04433726,18.8541929 19.2808027,2.77697414 39.1414791,2.77697414 Z M50.7389544,39.4622642 C50.7389544,45.8931516 45.5200905,51.1547869 39.1414791,51.1547869 C32.7628677,51.1547869 27.5440038,45.8931516 27.5440038,39.4622642 C27.5440038,33.0313767 32.7628677,27.7697414 39.1414791,27.7697414 C45.5200905,27.7697414 50.7389544,33.0313767 50.7389544,39.4622642 Z M39.1414791,76.1475542 C20.0056449,76.1475542 4.20408479,61.2395877 2.89936882,42.2392383 C7.68332738,45.162369 13.6270335,44.2854298 17.5411814,40.3392034 C19.5707395,38.2930119 22.3251399,37.4160727 25.0795403,37.7083857 C25.0795403,38.2930119 24.9345719,38.877638 24.9345719,39.4622642 C24.9345719,47.354717 31.3131833,53.7856045 39.1414791,53.7856045 C46.9697749,53.7856045 53.3483863,47.354717 53.3483863,39.4622642 C53.3483863,38.877638 53.3483863,38.2930119 53.2034179,37.7083857 C55.9578183,37.4160727 58.7122186,38.4391684 60.7417768,40.3392034 C64.6559247,44.2854298 70.5996308,45.0162124 75.3835894,42.2392383 C74.0788734,61.2395877 58.2773133,76.1475542 39.1414791,76.1475542 Z" id="Shape" stroke-width="2.9157975" fill-rule="nonzero"></path>
                                <path d="M40.7302149,65.4751444 L37.3959407,68.9829012 C36.816067,69.5675273 36.816067,70.4444665 37.3959407,70.8829362 C37.9758145,71.4675623 38.8456251,71.4675623 39.2805305,70.8829362 L42.6148046,67.5213359 C43.1946784,66.9367097 43.1946784,66.0597705 42.6148046,65.6213009 C42.0349308,65.0366748 41.1651202,65.0366748 40.7302149,65.4751444 Z" id="Path" stroke-width="1.66617"></path>
                                <path d="M23.1949506,49.8393781 C22.6150768,49.2547519 21.7452662,49.2547519 21.3103608,49.8393781 L17.9760867,53.2009783 C17.3962129,53.7856045 17.3962129,54.6625437 17.9760867,55.1010133 C18.5559605,55.6856394 19.4257711,55.6856394 19.8606764,55.1010133 L23.1949506,51.739413 C23.7748243,51.1547869 23.7748243,50.2778477 23.1949506,49.8393781 Z" id="Path" stroke-width="1.66617"></path>
                                <path d="M55.8217254,56.4223877 L52.4874513,59.7839879 C51.9075775,60.3686141 51.9075775,61.2455533 52.4874513,61.6840229 C53.0673251,62.268649 53.9371357,62.268649 54.372041,61.6840229 L57.7063152,58.3224226 C58.2861889,57.7377965 58.2861889,56.8608573 57.7063152,56.4223877 C57.2714099,55.8377615 56.4015992,55.8377615 55.8217254,56.4223877 Z" id="Path" stroke-width="1.66617"></path>
                                <path d="M64.3659879,50.5701607 C63.7861141,49.9855346 62.9163034,49.9855346 62.4813981,50.5701607 C61.9015244,51.1547869 61.9015244,52.0317261 62.4813981,52.4701957 L65.8156723,55.8317959 C66.395546,56.4164221 67.2653567,56.4164221 67.700262,55.8317959 C68.2801358,55.2471698 68.2801358,54.3702306 67.700262,53.931761 L64.3659879,50.5701607 Z" id="Path" stroke-width="1.66617"></path>
                                <path d="M31.0765001,60.034542 C30.4966263,59.4499159 29.6268157,59.4499159 29.1919104,60.034542 C28.6120366,60.6191681 28.6120366,61.4961073 29.1919104,61.9345769 L32.5261845,65.2961772 C33.1060583,65.8808033 33.9758689,65.8808033 34.4107743,65.2961772 C34.990648,64.7115511 34.990648,63.8346119 34.4107743,63.3961423 L31.0765001,60.034542 Z" id="Path" stroke-width="1.66617"></path>
                            </g>
                        </g>
                        <g id="noun_Coffee_541198-Copy" transform="translate(242.352090, 52.358491) rotate(-345.000000) translate(-242.352090, -52.358491) translate(206.352090, 10.358491)" fill-rule="nonzero">
                            <path d="M11.6939442,83.9622642 L59.9256922,83.9622642 L67.6560028,22.7397799 L71.1493908,22.7397799 L71.1493908,10.495283 L67.3365373,10.495283 L64.6865759,0 L6.93400288,0 L4.28309909,10.495283 L0.471188018,10.495283 L0.471188018,22.7397799 L3.96363361,22.7397799 L11.6939442,83.9622642 Z M55.2467951,78.7146226 L16.3737836,78.7146226 L14.3863126,62.9716981 L57.2352086,62.9716981 L55.2467951,78.7146226 Z M57.6762406,59.4732704 L13.9443382,59.4732704 L10.8524024,34.9842767 L60.7691187,34.9842767 L57.6762406,59.4732704 Z M61.2101507,31.4858491 L10.4104281,31.4858491 L9.30596336,22.7397799 L62.3146154,22.7397799 L61.2101507,31.4858491 Z M62.6536854,13.9937107 L65.9498858,13.9937107 L65.9498858,19.2413522 L5.67069301,19.2413522 L5.67069301,13.9937107 L8.71541595,13.9937107 L11.0729184,5.24764151 L60.5476603,5.24764151 L62.6536854,13.9937107 Z" id="Shape"></path>
                        </g>
                        <g id="Group-24" transform="translate(438.500000, 51.000000) rotate(-15.000000) translate(-438.500000, -51.000000) translate(406.000000, 7.000000)">
                            <g id="noun_Coffee_541198-Copy" transform="translate(0.000000, 18.471698)" fill-rule="nonzero">
                                <path d="M8.37559398,68.8490566 L56.6859143,68.8490566 L64.9581994,0 L0.577108683,0 L8.37559398,68.8490566 Z M12.561916,63.8788316 L6.49447703,4.80298821 L59.2272939,4.80298821 L52.50843,63.7989743 L12.561916,63.8788316 Z" id="Shape"></path>
                            </g>
                            <g id="noun_Coffee_21281" transform="translate(13.324759, 0.000000)">
                                <path d="M4.99430593,21.8301887 C4.42492868,21.8301887 3.85120503,21.706884 3.34847244,21.4495526 C2.03296469,20.776202 1.70408775,19.4391508 2.61538111,18.4655803 C5.84619862,15.0109059 3.18186078,12.6273736 2.86747181,12.3668255 C0.694276179,10.6705825 -2.19607401,6.06327779 2.61682991,0.923082558 C3.52667448,-0.0494157885 5.33187565,-0.292808429 6.6488322,0.38161435 C7.96433996,1.05603713 8.2917681,2.39201611 7.38047473,3.36558667 C4.0163679,6.95964892 6.97336275,9.33996461 7.10230569,9.43968053 C9.30157967,11.15844 12.1890323,15.7657447 7.38192353,20.9070122 C6.81834146,21.5074522 5.91429208,21.8301887 4.99430593,21.8301887 Z" id="Path"></path>
                                <path d="M19.9846603,21.8301887 C19.4152473,21.8301887 18.8414877,21.7068855 18.3387235,21.449557 C17.0231333,20.7762142 16.6942357,19.4391785 17.6055862,18.4656192 C20.8351575,15.0109848 18.1721014,12.6274801 17.8576927,12.366935 C15.6843608,10.6707117 12.7952782,6.06453248 17.6055862,0.923324549 C18.5169368,-0.049162541 20.3208023,-0.292552364 21.6378414,0.380790406 C22.9534317,1.05520538 23.2823293,2.3911689 22.3709787,3.36472819 C19.0081098,6.95874884 21.9638412,9.33903697 22.0927923,9.43875175 C24.2922042,11.1574913 27.1798379,15.7647427 22.3709787,20.9059507 C21.8073613,21.5074559 20.9047041,21.8301887 19.9846603,21.8301887 Z" id="Path"></path>
                                <path d="M33.3097201,21.8301887 C32.7402477,21.8301887 32.1664282,21.706894 31.6621626,21.4495835 C30.346435,20.7752155 30.0175032,19.4393449 30.9289488,18.4658534 C34.1603061,15.0114594 31.4969721,12.6281205 31.1810816,12.3675936 C29.0089719,10.6714883 26.1210369,6.06562961 30.9289488,0.924779447 C31.8403944,-0.0497842225 33.6415501,-0.293157108 34.9616247,0.382283059 C36.2773523,1.0566511 36.6062842,2.39252165 35.6948385,3.36601319 C32.3330677,6.96085586 35.2891076,9.34097835 35.416623,9.44068619 C37.6162645,11.1593062 40.5056485,15.766237 35.6948385,20.9070871 C35.1326114,21.5074784 34.22986,21.8301887 33.3097201,21.8301887 Z" id="Path"></path>
                            </g>
                        </g>
                    </g>
                    <g id="Group-2-Copy-2" transform="translate(13.000000, 258.333333)">
                        <g id="Group-2-Copy" transform="translate(353.179260, 58.716981) rotate(47.000000) translate(-353.179260, -58.716981) translate(313.179260, 18.716981)">
                            <g id="noun_donut_551429" fill-rule="nonzero" stroke="#000000" stroke-width="0.833085">
                                <path d="M39.807074,79.786964 C61.5090178,79.786964 79.1302543,62.0213122 79.1302543,40.1415094 C79.1302543,18.2617067 61.5090178,0.49605489 39.807074,0.49605489 C18.1051301,0.49605489 0.4838936,18.2617067 0.4838936,40.1415094 C0.4838936,62.0213122 18.1051301,79.786964 39.807074,79.786964 Z M39.807074,5.17122642 C58.912204,5.17122642 74.4930868,20.8798027 74.4930868,40.1415094 C74.4930868,59.4032161 58.912204,75.1117925 39.807074,75.1117925 C20.7019439,75.1117925 5.12106109,59.4032161 5.12106109,40.1415094 C5.12106109,20.8798027 20.7019439,5.17122642 39.807074,5.17122642 Z" id="Shape"></path>
                                <path d="M39.807074,55.8500858 C43.8877814,55.8500858 47.783002,54.167024 50.7507892,51.1749142 C56.8718503,45.0036878 56.8718503,35.0923242 50.7507892,29.1081046 C47.783002,26.1159949 43.8877814,24.4329331 39.807074,24.4329331 C35.7263666,24.4329331 31.8311459,26.1159949 28.8633587,29.1081046 C22.7422976,35.279331 22.7422976,45.1906947 28.8633587,51.1749142 C31.8311459,54.167024 35.7263666,55.8500858 39.807074,55.8500858 Z M32.0166326,32.2872213 C34.0569863,30.2301458 36.8392868,29.1081046 39.807074,29.1081046 C42.7748612,29.1081046 45.3716749,30.2301458 47.5975153,32.2872213 C51.8637094,36.5883791 51.8637094,43.5076329 47.5975153,47.8087907 C45.5571616,49.8658662 42.7748612,50.9879074 39.807074,50.9879074 C36.8392868,50.9879074 34.242473,49.8658662 32.0166326,47.8087907 C27.9359252,43.6946398 27.9359252,36.5883791 32.0166326,32.2872213 Z" id="Shape"></path>
                            </g>
                            <ellipse id="Oval" cx="27.3151125" cy="59.4528302" rx="3.33118971" ry="3.35849057"></ellipse>
                            <ellipse id="Oval-Copy" cx="45.6366559" cy="62.8113208" rx="3.33118971" ry="3.35849057"></ellipse>
                            <ellipse id="Oval-Copy-2" cx="37.3086817" cy="67.8490566" rx="3.33118971" ry="3.35849057"></ellipse>
                            <ellipse id="Oval-Copy-3" cx="62.2926045" cy="24.1886792" rx="3.33118971" ry="3.35849057"></ellipse>
                            <ellipse id="Oval-Copy-4" cx="22.318328" cy="17.4716981" rx="3.33118971" ry="3.35849057"></ellipse>
                            <ellipse id="Oval-Copy-5" cx="32.3118971" cy="10.754717" rx="3.33118971" ry="3.35849057"></ellipse>
                            <ellipse id="Oval-Copy-6" cx="17.3215434" cy="35.9433962" rx="3.33118971" ry="3.35849057"></ellipse>
                            <ellipse id="Oval-Copy-7" cx="62.2926045" cy="54.4150943" rx="3.33118971" ry="3.35849057"></ellipse>
                        </g>
                        <g id="noun_donut_551429-copy-2" transform="translate(113.531350, 18.716981)">
                            <path d="M39.807074,79.786964 C61.5090178,79.786964 79.1302543,62.0213122 79.1302543,40.1415094 C79.1302543,18.2617067 61.5090178,0.49605489 39.807074,0.49605489 C18.1051301,0.49605489 0.4838936,18.2617067 0.4838936,40.1415094 C0.4838936,62.0213122 18.1051301,79.786964 39.807074,79.786964 Z M39.807074,5.17122642 C58.912204,5.17122642 74.4930868,20.8798027 74.4930868,40.1415094 C74.4930868,59.4032161 58.912204,75.1117925 39.807074,75.1117925 C20.7019439,75.1117925 5.12106109,59.4032161 5.12106109,40.1415094 C5.12106109,20.8798027 20.7019439,5.17122642 39.807074,5.17122642 Z" id="Shape" stroke="#000000" stroke-width="0.833085" fill-rule="nonzero"></path>
                            <path d="M39.807074,55.8500858 C43.8877814,55.8500858 47.783002,54.167024 50.7507892,51.1749142 C56.8718503,45.0036878 56.8718503,35.0923242 50.7507892,29.1081046 C47.783002,26.1159949 43.8877814,24.4329331 39.807074,24.4329331 C35.7263666,24.4329331 31.8311459,26.1159949 28.8633587,29.1081046 C22.7422976,35.279331 22.7422976,45.1906947 28.8633587,51.1749142 C31.8311459,54.167024 35.7263666,55.8500858 39.807074,55.8500858 Z M32.0166326,32.2872213 C34.0569863,30.2301458 36.8392868,29.1081046 39.807074,29.1081046 C42.7748612,29.1081046 45.3716749,30.2301458 47.5975153,32.2872213 C51.8637094,36.5883791 51.8637094,43.5076329 47.5975153,47.8087907 C45.5571616,49.8658662 42.7748612,50.9879074 39.807074,50.9879074 C36.8392868,50.9879074 34.242473,49.8658662 32.0166326,47.8087907 C27.9359252,43.6946398 27.9359252,36.5883791 32.0166326,32.2872213 Z" id="Shape" stroke="#000000" stroke-width="0.833085" fill-rule="nonzero"></path>
                            <path d="M35.9118533,19.7577616 C36.6538001,19.7577616 37.2102602,19.3837479 37.7667203,19.0097341 L41.661941,14.3345626 C42.4038878,13.3995283 42.4038878,11.9034734 41.4764543,10.9684391 C40.3635341,10.2204117 38.8796405,10.2204117 37.952207,11.3424528 L34.242473,15.8306175 C33.5005262,16.7656518 33.5005262,18.2617067 34.4279597,19.196741 C34.9844198,19.5707547 35.3553932,19.7577616 35.9118533,19.7577616 Z" id="Path"></path>
                            <path d="M51.3072493,23.4978988 C51.6782227,24.2459262 52.6056562,24.61994 53.347603,24.61994 C53.7185764,24.61994 54.0895498,24.4329331 54.4605232,24.2459262 C55.5734434,23.6849057 55.9444168,22.1888508 55.20247,21.0668096 L51.1217626,13.9605489 C50.5653025,12.8385077 49.0814089,12.464494 47.9684887,13.2125214 C46.8555685,13.773542 46.4845951,15.2695969 47.2265419,16.3916381 L51.3072493,23.4978988 Z" id="Path"></path>
                            <path d="M60.0251242,31.5391938 C60.767071,31.5391938 61.5090178,31.1651801 61.8799912,30.6041595 L65.0332651,25.928988 C65.7752119,24.8069468 65.5897252,23.4978988 64.476805,22.7498714 C63.3638848,22.0018439 62.0654779,22.1888508 61.3235311,23.3108919 L58.1702572,27.9860635 C57.4283104,29.1081046 57.6137971,30.4171527 58.7267173,31.1651801 C59.0976907,31.352187 59.6541508,31.5391938 60.0251242,31.5391938 Z" id="Path"></path>
                            <path d="M64.2913183,37.7104202 L67.0736188,44.2556604 C67.4445922,45.1906947 68.3720257,45.7517153 69.2994592,45.7517153 C69.6704326,45.7517153 69.8559193,45.7517153 70.2268927,45.5647084 C71.3398129,45.0036878 71.896273,43.6946398 71.5252996,42.5725986 L68.7429991,36.0273585 C68.186539,34.9053173 66.8881321,34.3442967 65.7752119,34.7183105 C64.2913183,35.0923242 63.7348582,36.5883791 64.2913183,37.7104202 Z" id="Path"></path>
                            <path d="M59.4686641,58.8421955 C59.8396375,59.7772298 60.767071,60.5252573 61.6945045,60.5252573 C61.8799912,60.5252573 62.0654779,60.5252573 62.4364513,60.3382504 C63.7348582,59.9642367 64.2913183,58.6551887 63.9203449,57.3461407 L62.2509646,51.9229417 C61.8799912,50.6138937 60.5815843,50.0528731 59.2831774,50.4268868 C57.9847705,50.8009005 57.4283104,52.1099485 57.7992838,53.4189966 L59.4686641,58.8421955 Z" id="Path"></path>
                            <path d="M53.9040631,56.9721269 L48.5249488,58.6551887 C47.2265419,59.0292024 46.6700818,60.3382504 47.0410552,61.6472985 C47.4120286,62.5823328 48.3394621,63.3303602 49.2668956,63.3303602 C49.4523823,63.3303602 49.637869,63.3303602 50.0088424,63.1433533 L55.3879567,61.4602916 C56.6863636,61.0862779 57.2428237,59.7772298 56.8718503,58.4681818 C56.3153902,57.3461407 55.0169833,56.5981132 53.9040631,56.9721269 Z" id="Path"></path>
                            <path d="M32.0166326,58.0941681 L24.4116779,62.3953259 C23.2987577,62.9563465 22.9277843,64.4524014 23.4842444,65.5744425 C23.8552178,66.32247 24.7826513,66.6964837 25.5245981,66.6964837 C25.8955715,66.6964837 26.2665449,66.5094768 26.6375183,66.32247 L34.242473,62.0213122 C35.3553932,61.4602916 35.7263666,59.9642367 35.1699065,58.8421955 C34.6134464,57.7201544 33.1295528,57.3461407 32.0166326,58.0941681 Z" id="Path"></path>
                            <path d="M41.2909676,63.5173671 C40.3635341,62.7693396 38.8796405,62.9563465 37.952207,63.8913808 C37.2102602,64.8264151 37.3957469,66.32247 38.3231804,67.2575043 L44.4442414,72.1196827 C44.8152148,72.4936964 45.3716749,72.6807033 45.928135,72.6807033 C46.6700818,72.6807033 47.2265419,72.3066895 47.783002,71.745669 C48.5249488,70.8106346 48.3394621,69.3145798 47.4120286,68.3795455 L41.2909676,63.5173671 Z" id="Path"></path>
                            <path d="M18.6615902,56.9721269 L18.6615902,49.1178388 C18.6615902,47.8087907 17.54867,46.8737564 16.4357498,46.8737564 C15.3228296,46.8737564 14.2099094,47.9957976 14.2099094,49.1178388 L14.2099094,56.9721269 C14.2099094,58.281175 15.3228296,59.2162093 16.4357498,59.2162093 C17.54867,59.2162093 18.6615902,58.281175 18.6615902,56.9721269 Z" id="Path"></path>
                            <path d="M19.403537,44.2556604 C20.1454838,44.2556604 21.0729173,43.8816467 21.4438907,43.1336192 C22.0003508,42.011578 21.6293774,40.5155232 20.5164572,39.9545026 L14.2099094,36.4013722 C13.0969892,35.8403516 11.6130956,36.2143654 11.0566355,37.3364065 C10.5001754,38.2714408 10.8711488,39.5804889 11.984069,40.3285163 L18.2906168,43.8816467 C18.6615902,44.2556604 19.0325636,44.2556604 19.403537,44.2556604 Z" id="Path"></path>
                            <path d="M12.1695557,31.5391938 L18.4761035,27.7990566 C19.5890237,27.238036 19.9599971,25.7419811 19.2180503,24.61994 C18.6615902,23.4978988 17.1776966,23.1238851 16.0647764,23.8719125 L9.7582286,27.6120497 C8.64530839,28.1730703 8.27433499,29.6691252 9.0162818,30.7911664 C9.3872552,31.5391938 10.3146887,31.9132075 11.0566355,31.9132075 C11.2421222,31.9132075 11.7985823,31.9132075 12.1695557,31.5391938 Z" id="Path"></path>
                            <path d="M25.5245981,24.2459262 C25.8955715,24.9939537 26.823005,25.3679674 27.5649518,25.3679674 C27.9359252,25.3679674 28.3068986,25.1809605 28.677872,24.9939537 C29.7907922,24.4329331 30.1617656,22.9368782 29.6053055,21.814837 L25.7100848,14.7085763 C25.1536247,13.5865352 23.6697311,13.2125214 22.5568109,13.773542 C21.4438907,14.3345626 21.0729173,15.8306175 21.6293774,16.9526587 L25.5245981,24.2459262 Z" id="Path"></path>
                        </g>
                        <g id="noun_donut_1203999-copy" transform="translate(50.541801, 58.500000) rotate(-72.000000) translate(-50.541801, -58.500000) translate(11.041801, 19.000000)" stroke="#000000">
                            <g id="Group">
                                <path d="M75.8184947,25.5773934 C75.6735263,25.1389238 75.3835894,24.8466108 74.9486841,24.7004542 C74.5137787,24.5542977 74.0788734,24.5542977 73.7889365,24.8466108 C71.7593783,26.015863 69.5848517,26.6004892 67.2653567,26.4543326 C60.8867453,26.015863 56.1027867,20.4619147 56.3927236,14.1771838 C56.3927236,13.1540881 56.6826605,12.2771488 56.9725974,11.2540531 C57.1175658,10.8155835 57.1175658,10.5232704 56.8276289,10.0848008 C56.6826605,9.79248777 56.2477552,9.5001747 55.9578183,9.5001747 C51.7537335,8.76939203 48.2744909,5.70010482 46.9697749,1.60772187 C46.8248065,1.16925227 46.3899012,0.730782669 45.9549958,0.730782669 C43.6355008,0.146156534 41.3160057,0 39.1414791,0 C17.5411814,0 0,17.6849406 0,39.4622642 C0,61.2395877 17.5411814,78.9245283 39.1414791,78.9245283 C60.7417768,78.9245283 78.2829582,61.2395877 78.2829582,39.4622642 C78.2829582,34.6390985 77.4131476,29.9620894 75.8184947,25.5773934 Z M39.1414791,2.77697414 C40.8811004,2.77697414 42.7656901,2.92313068 44.6502799,3.21544375 C46.2449327,7.45398323 49.7241753,10.669427 54.0732285,11.8386792 C53.9282601,12.5694619 53.7832917,13.3002446 53.7832917,14.0310273 C53.2034179,21.9234801 59.147124,28.7928372 67.1203882,29.2313068 C69.4398833,29.3774633 71.7593783,28.9389937 73.7889365,28.0620545 C74.9486841,31.5698113 75.5285578,35.2237247 75.5285578,38.877638 C71.9043468,42.2392383 66.2505776,42.0930818 62.771335,38.5853249 C60.1619031,35.9545073 56.3927236,34.6390985 52.7685126,35.0775681 C50.8839228,29.2313068 45.5200905,25.1389238 39.1414791,25.1389238 C32.7628677,25.1389238 27.3990354,29.3774633 25.5144456,35.0775681 C21.8902346,34.6390985 18.1210551,35.8083508 15.5116232,38.5853249 C12.0323806,42.0930818 6.37861141,42.2392383 2.75440038,38.877638 C3.04433726,18.8541929 19.2808027,2.77697414 39.1414791,2.77697414 Z M50.7389544,39.4622642 C50.7389544,45.8931516 45.5200905,51.1547869 39.1414791,51.1547869 C32.7628677,51.1547869 27.5440038,45.8931516 27.5440038,39.4622642 C27.5440038,33.0313767 32.7628677,27.7697414 39.1414791,27.7697414 C45.5200905,27.7697414 50.7389544,33.0313767 50.7389544,39.4622642 Z M39.1414791,76.1475542 C20.0056449,76.1475542 4.20408479,61.2395877 2.89936882,42.2392383 C7.68332738,45.162369 13.6270335,44.2854298 17.5411814,40.3392034 C19.5707395,38.2930119 22.3251399,37.4160727 25.0795403,37.7083857 C25.0795403,38.2930119 24.9345719,38.877638 24.9345719,39.4622642 C24.9345719,47.354717 31.3131833,53.7856045 39.1414791,53.7856045 C46.9697749,53.7856045 53.3483863,47.354717 53.3483863,39.4622642 C53.3483863,38.877638 53.3483863,38.2930119 53.2034179,37.7083857 C55.9578183,37.4160727 58.7122186,38.4391684 60.7417768,40.3392034 C64.6559247,44.2854298 70.5996308,45.0162124 75.3835894,42.2392383 C74.0788734,61.2395877 58.2773133,76.1475542 39.1414791,76.1475542 Z" id="Shape" stroke-width="2.9157975" fill-rule="nonzero"></path>
                                <path d="M40.7302149,65.4751444 L37.3959407,68.9829012 C36.816067,69.5675273 36.816067,70.4444665 37.3959407,70.8829362 C37.9758145,71.4675623 38.8456251,71.4675623 39.2805305,70.8829362 L42.6148046,67.5213359 C43.1946784,66.9367097 43.1946784,66.0597705 42.6148046,65.6213009 C42.0349308,65.0366748 41.1651202,65.0366748 40.7302149,65.4751444 Z" id="Path" stroke-width="1.66617"></path>
                                <path d="M23.1949506,49.8393781 C22.6150768,49.2547519 21.7452662,49.2547519 21.3103608,49.8393781 L17.9760867,53.2009783 C17.3962129,53.7856045 17.3962129,54.6625437 17.9760867,55.1010133 C18.5559605,55.6856394 19.4257711,55.6856394 19.8606764,55.1010133 L23.1949506,51.739413 C23.7748243,51.1547869 23.7748243,50.2778477 23.1949506,49.8393781 Z" id="Path" stroke-width="1.66617"></path>
                                <path d="M55.8217254,56.4223877 L52.4874513,59.7839879 C51.9075775,60.3686141 51.9075775,61.2455533 52.4874513,61.6840229 C53.0673251,62.268649 53.9371357,62.268649 54.372041,61.6840229 L57.7063152,58.3224226 C58.2861889,57.7377965 58.2861889,56.8608573 57.7063152,56.4223877 C57.2714099,55.8377615 56.4015992,55.8377615 55.8217254,56.4223877 Z" id="Path" stroke-width="1.66617"></path>
                                <path d="M64.3659879,50.5701607 C63.7861141,49.9855346 62.9163034,49.9855346 62.4813981,50.5701607 C61.9015244,51.1547869 61.9015244,52.0317261 62.4813981,52.4701957 L65.8156723,55.8317959 C66.395546,56.4164221 67.2653567,56.4164221 67.700262,55.8317959 C68.2801358,55.2471698 68.2801358,54.3702306 67.700262,53.931761 L64.3659879,50.5701607 Z" id="Path" stroke-width="1.66617"></path>
                                <path d="M31.0765001,60.034542 C30.4966263,59.4499159 29.6268157,59.4499159 29.1919104,60.034542 C28.6120366,60.6191681 28.6120366,61.4961073 29.1919104,61.9345769 L32.5261845,65.2961772 C33.1060583,65.8808033 33.9758689,65.8808033 34.4107743,65.2961772 C34.990648,64.7115511 34.990648,63.8346119 34.4107743,63.3961423 L31.0765001,60.034542 Z" id="Path" stroke-width="1.66617"></path>
                            </g>
                        </g>
                        <g id="noun_Coffee_541198-Copy" transform="translate(204.352090, 3.358491)" fill-rule="nonzero">
                            <path d="M24.6939442,94.9622642 L72.9256922,94.9622642 L80.6560028,33.7397799 L84.1493908,33.7397799 L84.1493908,21.495283 L80.3365373,21.495283 L77.6865759,11 L19.9340029,11 L17.2830991,21.495283 L13.471188,21.495283 L13.471188,33.7397799 L16.9636336,33.7397799 L24.6939442,94.9622642 Z M68.2467951,89.7146226 L29.3737836,89.7146226 L27.3863126,73.9716981 L70.2352086,73.9716981 L68.2467951,89.7146226 Z M70.6762406,70.4732704 L26.9443382,70.4732704 L23.8524024,45.9842767 L73.7691187,45.9842767 L70.6762406,70.4732704 Z M74.2101507,42.4858491 L23.4104281,42.4858491 L22.3059634,33.7397799 L75.3146154,33.7397799 L74.2101507,42.4858491 Z M75.6536854,24.9937107 L78.9498858,24.9937107 L78.9498858,30.2413522 L18.670693,30.2413522 L18.670693,24.9937107 L21.715416,24.9937107 L24.0729184,16.2476415 L73.5476603,16.2476415 L75.6536854,24.9937107 Z" id="Shape" transform="translate(48.810289, 52.981132) rotate(22.000000) translate(-48.810289, -52.981132) "></path>
                        </g>
                        <g id="Group-24" transform="translate(449.500000, 55.000000) rotate(-330.000000) translate(-449.500000, -55.000000) translate(417.000000, 11.000000)">
                            <g id="noun_Coffee_541198-Copy" transform="translate(0.000000, 18.471698)" fill-rule="nonzero">
                                <path d="M8.37559398,68.8490566 L56.6859143,68.8490566 L64.9581994,0 L0.577108683,0 L8.37559398,68.8490566 Z M12.561916,63.8788316 L6.49447703,4.80298821 L59.2272939,4.80298821 L52.50843,63.7989743 L12.561916,63.8788316 Z" id="Shape"></path>
                            </g>
                            <g id="noun_Coffee_21281" transform="translate(13.324759, 0.000000)">
                                <path d="M4.99430593,21.8301887 C4.42492868,21.8301887 3.85120503,21.706884 3.34847244,21.4495526 C2.03296469,20.776202 1.70408775,19.4391508 2.61538111,18.4655803 C5.84619862,15.0109059 3.18186078,12.6273736 2.86747181,12.3668255 C0.694276179,10.6705825 -2.19607401,6.06327779 2.61682991,0.923082558 C3.52667448,-0.0494157885 5.33187565,-0.292808429 6.6488322,0.38161435 C7.96433996,1.05603713 8.2917681,2.39201611 7.38047473,3.36558667 C4.0163679,6.95964892 6.97336275,9.33996461 7.10230569,9.43968053 C9.30157967,11.15844 12.1890323,15.7657447 7.38192353,20.9070122 C6.81834146,21.5074522 5.91429208,21.8301887 4.99430593,21.8301887 Z" id="Path"></path>
                                <path d="M19.9846603,21.8301887 C19.4152473,21.8301887 18.8414877,21.7068855 18.3387235,21.449557 C17.0231333,20.7762142 16.6942357,19.4391785 17.6055862,18.4656192 C20.8351575,15.0109848 18.1721014,12.6274801 17.8576927,12.366935 C15.6843608,10.6707117 12.7952782,6.06453248 17.6055862,0.923324549 C18.5169368,-0.049162541 20.3208023,-0.292552364 21.6378414,0.380790406 C22.9534317,1.05520538 23.2823293,2.3911689 22.3709787,3.36472819 C19.0081098,6.95874884 21.9638412,9.33903697 22.0927923,9.43875175 C24.2922042,11.1574913 27.1798379,15.7647427 22.3709787,20.9059507 C21.8073613,21.5074559 20.9047041,21.8301887 19.9846603,21.8301887 Z" id="Path"></path>
                                <path d="M33.3097201,21.8301887 C32.7402477,21.8301887 32.1664282,21.706894 31.6621626,21.4495835 C30.346435,20.7752155 30.0175032,19.4393449 30.9289488,18.4658534 C34.1603061,15.0114594 31.4969721,12.6281205 31.1810816,12.3675936 C29.0089719,10.6714883 26.1210369,6.06562961 30.9289488,0.924779447 C31.8403944,-0.0497842225 33.6415501,-0.293157108 34.9616247,0.382283059 C36.2773523,1.0566511 36.6062842,2.39252165 35.6948385,3.36601319 C32.3330677,6.96085586 35.2891076,9.34097835 35.416623,9.44068619 C37.6162645,11.1593062 40.5056485,15.766237 35.6948385,20.9070871 C35.1326114,21.5074784 34.22986,21.8301887 33.3097201,21.8301887 Z" id="Path"></path>
                            </g>
                        </g>
                    </g>
                    <g id="Group-3" transform="translate(0.000000, 126.666667)">
                        <g id="Group-2-Copy" transform="translate(414.000000, 19.000000)">
                            <g id="noun_donut_551429" fill-rule="nonzero" stroke="#000000" stroke-width="0.833085">
                                <path d="M39.7992295,79.786964 C61.4970016,79.786964 79.1148507,62.0213122 79.1148507,40.1415094 C79.1148507,18.2617067 61.4970016,0.49605489 39.7992295,0.49605489 C18.1014575,0.49605489 0.48360835,18.2617067 0.48360835,40.1415094 C0.48360835,62.0213122 18.1014575,79.786964 39.7992295,79.786964 Z M39.7992295,5.17122642 C58.900687,5.17122642 74.4785746,20.8798027 74.4785746,40.1415094 C74.4785746,59.4032161 58.900687,75.1117925 39.7992295,75.1117925 C20.6977721,75.1117925 5.11988443,59.4032161 5.11988443,40.1415094 C5.11988443,20.8798027 20.6977721,5.17122642 39.7992295,5.17122642 Z" id="Shape"></path>
                                <path d="M39.7992295,55.8500858 C43.8791525,55.8500858 47.7736244,54.167024 50.7408411,51.1749142 C56.8607255,45.0036878 56.8607255,35.0923242 50.7408411,29.1081046 C47.7736244,26.1159949 43.8791525,24.4329331 39.7992295,24.4329331 C35.7193066,24.4329331 31.8248347,26.1159949 28.857618,29.1081046 C22.7377335,35.279331 22.7377335,45.1906947 28.857618,51.1749142 C31.8248347,54.167024 35.7193066,55.8500858 39.7992295,55.8500858 Z M32.0102857,32.2872213 C34.0502472,30.2301458 36.8320128,29.1081046 39.7992295,29.1081046 C42.7664462,29.1081046 45.3627608,30.2301458 47.5881733,32.2872213 C51.8535473,36.5883791 51.8535473,43.5076329 47.5881733,47.8087907 C45.5482119,49.8658662 42.7664462,50.9879074 39.7992295,50.9879074 C36.8320128,50.9879074 34.2356982,49.8658662 32.0102857,47.8087907 C27.9303628,43.6946398 27.9303628,36.5883791 32.0102857,32.2872213 Z" id="Shape"></path>
                            </g>
                            <ellipse id="Oval" cx="27.3096695" cy="59.4528302" rx="3.33054935" ry="3.35849057"></ellipse>
                            <ellipse id="Oval-Copy" cx="45.6276909" cy="62.8113208" rx="3.33054935" ry="3.35849057"></ellipse>
                            <ellipse id="Oval-Copy-2" cx="37.3013175" cy="67.8490566" rx="3.33054935" ry="3.35849057"></ellipse>
                            <ellipse id="Oval-Copy-3" cx="62.2804376" cy="24.1886792" rx="3.33054935" ry="3.35849057"></ellipse>
                            <ellipse id="Oval-Copy-4" cx="22.3138454" cy="17.4716981" rx="3.33054935" ry="3.35849057"></ellipse>
                            <ellipse id="Oval-Copy-5" cx="32.3054935" cy="10.754717" rx="3.33054935" ry="3.35849057"></ellipse>
                            <ellipse id="Oval-Copy-6" cx="17.3180214" cy="35.9433962" rx="3.33054935" ry="3.35849057"></ellipse>
                            <ellipse id="Oval-Copy-7" cx="62.2804376" cy="54.4150943" rx="3.33054935" ry="3.35849057"></ellipse>
                        </g>
                        <g id="noun_donut_551429-copy-2" transform="translate(213.603800, 18.716981)">
                            <path d="M39.7992295,79.786964 C61.4970016,79.786964 79.1148507,62.0213122 79.1148507,40.1415094 C79.1148507,18.2617067 61.4970016,0.49605489 39.7992295,0.49605489 C18.1014575,0.49605489 0.48360835,18.2617067 0.48360835,40.1415094 C0.48360835,62.0213122 18.1014575,79.786964 39.7992295,79.786964 Z M39.7992295,5.17122642 C58.900687,5.17122642 74.4785746,20.8798027 74.4785746,40.1415094 C74.4785746,59.4032161 58.900687,75.1117925 39.7992295,75.1117925 C20.6977721,75.1117925 5.11988443,59.4032161 5.11988443,40.1415094 C5.11988443,20.8798027 20.6977721,5.17122642 39.7992295,5.17122642 Z" id="Shape" stroke="#000000" stroke-width="0.833085" fill-rule="nonzero"></path>
                            <path d="M39.7992295,55.8500858 C43.8791525,55.8500858 47.7736244,54.167024 50.7408411,51.1749142 C56.8607255,45.0036878 56.8607255,35.0923242 50.7408411,29.1081046 C47.7736244,26.1159949 43.8791525,24.4329331 39.7992295,24.4329331 C35.7193066,24.4329331 31.8248347,26.1159949 28.857618,29.1081046 C22.7377335,35.279331 22.7377335,45.1906947 28.857618,51.1749142 C31.8248347,54.167024 35.7193066,55.8500858 39.7992295,55.8500858 Z M32.0102857,32.2872213 C34.0502472,30.2301458 36.8320128,29.1081046 39.7992295,29.1081046 C42.7664462,29.1081046 45.3627608,30.2301458 47.5881733,32.2872213 C51.8535473,36.5883791 51.8535473,43.5076329 47.5881733,47.8087907 C45.5482119,49.8658662 42.7664462,50.9879074 39.7992295,50.9879074 C36.8320128,50.9879074 34.2356982,49.8658662 32.0102857,47.8087907 C27.9303628,43.6946398 27.9303628,36.5883791 32.0102857,32.2872213 Z" id="Shape" stroke="#000000" stroke-width="0.833085" fill-rule="nonzero"></path>
                            <path d="M35.9047576,19.7577616 C36.6465618,19.7577616 37.2029149,19.3837479 37.759268,19.0097341 L41.65374,14.3345626 C42.3955441,13.3995283 42.3955441,11.9034734 41.4682889,10.9684391 C40.3555827,10.2204117 38.8719743,10.2204117 37.9447191,11.3424528 L34.2356982,15.8306175 C33.4938941,16.7656518 33.4938941,18.2617067 34.4211493,19.196741 C34.9775024,19.5707547 35.3484045,19.7577616 35.9047576,19.7577616 Z" id="Path"></path>
                            <path d="M51.2971942,23.4978988 C51.6680963,24.2459262 52.5953515,24.61994 53.3371557,24.61994 C53.7080578,24.61994 54.0789599,24.4329331 54.4498619,24.2459262 C55.5625682,23.6849057 55.9334703,22.1888508 55.1916661,21.0668096 L51.1117432,13.9605489 C50.55539,12.8385077 49.0717817,12.464494 47.9590754,13.2125214 C46.8463692,13.773542 46.4754671,15.2695969 47.2172713,16.3916381 L51.2971942,23.4978988 Z" id="Path"></path>
                            <path d="M60.0133932,31.5391938 C60.7551974,31.5391938 61.4970016,31.1651801 61.8679037,30.6041595 L65.0205714,25.928988 C65.7623756,24.8069468 65.5769245,23.4978988 64.4642183,22.7498714 C63.351512,22.0018439 62.0533547,22.1888508 61.3115505,23.3108919 L58.1588828,27.9860635 C57.4170786,29.1081046 57.6025297,30.4171527 58.7152359,31.1651801 C59.086138,31.352187 59.6424912,31.5391938 60.0133932,31.5391938 Z" id="Path"></path>
                            <path d="M64.2787672,37.7104202 L67.0605329,44.2556604 C67.431435,45.1906947 68.3586902,45.7517153 69.2859454,45.7517153 C69.6568475,45.7517153 69.8422985,45.7517153 70.2132006,45.5647084 C71.3259069,45.0036878 71.88226,43.6946398 71.5113579,42.5725986 L68.7295923,36.0273585 C68.1732391,34.9053173 66.8750818,34.3442967 65.7623756,34.7183105 C64.2787672,35.0923242 63.7224141,36.5883791 64.2787672,37.7104202 Z" id="Path"></path>
                            <path d="M59.4570401,58.8421955 C59.8279422,59.7772298 60.7551974,60.5252573 61.6824526,60.5252573 C61.8679037,60.5252573 62.0533547,60.5252573 62.4242568,60.3382504 C63.7224141,59.9642367 64.2787672,58.6551887 63.9078651,57.3461407 L62.2388058,51.9229417 C61.8679037,50.6138937 60.5697464,50.0528731 59.2715891,50.4268868 C57.9734318,50.8009005 57.4170786,52.1099485 57.7879807,53.4189966 L59.4570401,58.8421955 Z" id="Path"></path>
                            <path d="M53.8935088,56.9721269 L48.5154286,58.6551887 C47.2172713,59.0292024 46.6609181,60.3382504 47.0318202,61.6472985 C47.4027223,62.5823328 48.3299775,63.3303602 49.2572327,63.3303602 C49.4426838,63.3303602 49.6281348,63.3303602 49.9990369,63.1433533 L55.3771172,61.4602916 C56.6752745,61.0862779 57.2316276,59.7772298 56.8607255,58.4681818 C56.3043724,57.3461407 55.0062151,56.5981132 53.8935088,56.9721269 Z" id="Path"></path>
                            <path d="M32.0102857,58.0941681 L24.4067929,62.3953259 C23.2940867,62.9563465 22.9231846,64.4524014 23.4795377,65.5744425 C23.8504398,66.32247 24.777695,66.6964837 25.5194992,66.6964837 C25.8904013,66.6964837 26.2613034,66.5094768 26.6322054,66.32247 L34.2356982,62.0213122 C35.3484045,61.4602916 35.7193066,59.9642367 35.1629534,58.8421955 C34.6066003,57.7201544 33.122992,57.3461407 32.0102857,58.0941681 Z" id="Path"></path>
                            <path d="M41.2828379,63.5173671 C40.3555827,62.7693396 38.8719743,62.9563465 37.9447191,63.8913808 C37.2029149,64.8264151 37.388366,66.32247 38.3156212,67.2575043 L44.4355056,72.1196827 C44.8064077,72.4936964 45.3627608,72.6807033 45.919114,72.6807033 C46.6609181,72.6807033 47.2172713,72.3066895 47.7736244,71.745669 C48.5154286,70.8106346 48.3299775,69.3145798 47.4027223,68.3795455 L41.2828379,63.5173671 Z" id="Path"></path>
                            <path d="M18.6578106,56.9721269 L18.6578106,49.1178388 C18.6578106,47.8087907 17.5451043,46.8737564 16.4323981,46.8737564 C15.3196918,46.8737564 14.2069855,47.9957976 14.2069855,49.1178388 L14.2069855,56.9721269 C14.2069855,58.281175 15.3196918,59.2162093 16.4323981,59.2162093 C17.5451043,59.2162093 18.6578106,58.281175 18.6578106,56.9721269 Z" id="Path"></path>
                            <path d="M19.3996148,44.2556604 C20.1414189,44.2556604 21.0686742,43.8816467 21.4395762,43.1336192 C21.9959294,42.011578 21.6250273,40.5155232 20.512321,39.9545026 L14.2069855,36.4013722 C13.0942793,35.8403516 11.6106709,36.2143654 11.0543178,37.3364065 C10.4979647,38.2714408 10.8688668,39.5804889 11.981573,40.3285163 L18.2869085,43.8816467 C18.6578106,44.2556604 19.0287127,44.2556604 19.3996148,44.2556604 Z" id="Path"></path>
                            <path d="M12.1670241,31.5391938 L18.4723595,27.7990566 C19.5850658,27.238036 19.9559679,25.7419811 19.2141637,24.61994 C18.6578106,23.4978988 17.1742022,23.1238851 16.061496,23.8719125 L9.7561605,27.6120497 C8.64345425,28.1730703 8.27255216,29.6691252 9.0143563,30.7911664 C9.3852584,31.5391938 10.3125136,31.9132075 11.0543178,31.9132075 C11.2397689,31.9132075 11.796122,31.9132075 12.1670241,31.5391938 Z" id="Path"></path>
                            <path d="M25.5194992,24.2459262 C25.8904013,24.9939537 26.8176565,25.3679674 27.5594607,25.3679674 C27.9303628,25.3679674 28.3012648,25.1809605 28.6721669,24.9939537 C29.7848732,24.4329331 30.1557753,22.9368782 29.5994221,21.814837 L25.7049502,14.7085763 C25.1485971,13.5865352 23.6649888,13.2125214 22.5522825,13.773542 C21.4395762,14.3345626 21.0686742,15.8306175 21.6250273,16.9526587 L25.5194992,24.2459262 Z" id="Path"></path>
                        </g>
                        <g id="noun_donut_1203999-copy" transform="translate(98.740425, 7.396226)" stroke="#000000">
                            <g id="Group" transform="translate(51.500000, 51.500000) rotate(-159.000000) translate(-51.500000, -51.500000) translate(12.000000, 12.000000)">
                                <path d="M75.8039199,25.5773934 C75.6589794,25.1389238 75.3690982,24.8466108 74.9342765,24.7004542 C74.4994548,24.5542977 74.0646331,24.5542977 73.7747519,24.8466108 C71.7455839,26.015863 69.5714753,26.6004892 67.2524261,26.4543326 C60.8750409,26.015863 56.0920019,20.4619147 56.3818831,14.1771838 C56.3818831,13.1540881 56.6717642,12.2771488 56.9616454,11.2540531 C57.106586,10.8155835 57.106586,10.5232704 56.8167048,10.0848008 C56.6717642,9.79248777 56.2369425,9.5001747 55.9470614,9.5001747 C51.7437847,8.76939203 48.265211,5.70010482 46.9607458,1.60772187 C46.8158052,1.16925227 46.3809835,0.730782669 45.9461618,0.730782669 C43.6271126,0.146156534 41.3080635,0 39.1339548,0 C17.5378094,0 0,17.6849406 0,39.4622642 C0,61.2395877 17.5378094,78.9245283 39.1339548,78.9245283 C60.7301003,78.9245283 78.2679097,61.2395877 78.2679097,39.4622642 C78.2679097,34.6390985 77.3982663,29.9620894 75.8039199,25.5773934 Z M39.1339548,2.77697414 C40.8732417,2.77697414 42.7574692,2.92313068 44.6416966,3.21544375 C46.2360429,7.45398323 49.7146167,10.669427 54.0628339,11.8386792 C53.9178933,12.5694619 53.7729528,13.3002446 53.7729528,14.0310273 C53.1931905,21.9234801 59.135754,28.7928372 67.1074855,29.2313068 C69.4265347,29.3774633 71.7455839,28.9389937 73.7747519,28.0620545 C74.9342765,31.5698113 75.5140388,35.2237247 75.5140388,38.877638 C71.8905245,42.2392383 66.2378421,42.0930818 62.7592683,38.5853249 C60.150338,35.9545073 56.3818831,34.6390985 52.7583688,35.0775681 C50.8741413,29.2313068 45.5113401,25.1389238 39.1339548,25.1389238 C32.7565696,25.1389238 27.3937684,29.3774633 25.5095409,35.0775681 C21.8860266,34.6390985 18.1175717,35.8083508 15.5086414,38.5853249 C12.0300676,42.0930818 6.37738523,42.2392383 2.7538709,38.877638 C3.04375204,18.8541929 19.2770963,2.77697414 39.1339548,2.77697414 Z M50.7292007,39.4622642 C50.7292007,45.8931516 45.5113401,51.1547869 39.1339548,51.1547869 C32.7565696,51.1547869 27.538709,45.8931516 27.538709,39.4622642 C27.538709,33.0313767 32.7565696,27.7697414 39.1339548,27.7697414 C45.5113401,27.7697414 50.7292007,33.0313767 50.7292007,39.4622642 Z M39.1339548,76.1475542 C20.0017991,76.1475542 4.20327663,61.2395877 2.89881147,42.2392383 C7.6818504,45.162369 13.6244139,44.2854298 17.5378094,40.3392034 C19.5669774,38.2930119 22.3208483,37.4160727 25.0747192,37.7083857 C25.0747192,38.2930119 24.9297786,38.877638 24.9297786,39.4622642 C24.9297786,47.354717 31.3071639,53.7856045 39.1339548,53.7856045 C46.9607458,53.7856045 53.3381311,47.354717 53.3381311,39.4622642 C53.3381311,38.877638 53.3381311,38.2930119 53.1931905,37.7083857 C55.9470614,37.4160727 58.7009323,38.4391684 60.7301003,40.3392034 C64.6434958,44.2854298 70.5860593,45.0162124 75.3690982,42.2392383 C74.0646331,61.2395877 58.2661106,76.1475542 39.1339548,76.1475542 Z" id="Shape" stroke-width="2.9157975" fill-rule="nonzero"></path>
                                <path d="M40.7223852,65.4751444 L37.388752,68.9829012 C36.8089897,69.5675273 36.8089897,70.4444665 37.388752,70.8829362 C37.9685143,71.4675623 38.8381578,71.4675623 39.2729795,70.8829362 L42.6066127,67.5213359 C43.186375,66.9367097 43.186375,66.0597705 42.6066127,65.6213009 C42.0268504,65.0366748 41.1572069,65.0366748 40.7223852,65.4751444 Z" id="Path" stroke-width="1.66617"></path>
                                <path d="M23.1904918,49.8393781 C22.6107295,49.2547519 21.741086,49.2547519 21.3062643,49.8393781 L17.9726311,53.2009783 C17.3928688,53.7856045 17.3928688,54.6625437 17.9726311,55.1010133 C18.5523934,55.6856394 19.4220369,55.6856394 19.8568586,55.1010133 L23.1904918,51.739413 C23.7702541,51.1547869 23.7702541,50.2778477 23.1904918,49.8393781 Z" id="Path" stroke-width="1.66617"></path>
                                <path d="M55.8109947,56.4223877 L52.4773615,59.7839879 C51.8975992,60.3686141 51.8975992,61.2455533 52.4773615,61.6840229 C53.0571238,62.268649 53.9267673,62.268649 54.361589,61.6840229 L57.6952222,58.3224226 C58.2749845,57.7377965 58.2749845,56.8608573 57.6952222,56.4223877 C57.2604004,55.8377615 56.390757,55.8377615 55.8109947,56.4223877 Z" id="Path" stroke-width="1.66617"></path>
                                <path d="M64.3536146,50.5701607 C63.7738523,49.9855346 62.9042089,49.9855346 62.4693872,50.5701607 C61.8896249,51.1547869 61.8896249,52.0317261 62.4693872,52.4701957 L65.8030204,55.8317959 C66.3827827,56.4164221 67.2524261,56.4164221 67.6872478,55.8317959 C68.2670101,55.2471698 68.2670101,54.3702306 67.6872478,53.931761 L64.3536146,50.5701607 Z" id="Path" stroke-width="1.66617"></path>
                                <path d="M31.0705262,60.034542 C30.4907639,59.4499159 29.6211205,59.4499159 29.1862988,60.034542 C28.6065365,60.6191681 28.6065365,61.4961073 29.1862988,61.9345769 L32.5199319,65.2961772 C33.0996942,65.8808033 33.9693377,65.8808033 34.4041594,65.2961772 C34.9839217,64.7115511 34.9839217,63.8346119 34.4041594,63.3961423 L31.0705262,60.034542 Z" id="Path" stroke-width="1.66617"></path>
                            </g>
                        </g>
                        <g id="noun_Coffee_541198-Copy" transform="translate(353.797724, 56.358491) rotate(-75.000000) translate(-353.797724, -56.358491) translate(317.797724, 14.358491)" fill-rule="nonzero">
                            <path d="M11.6916963,83.9622642 L59.9141725,83.9622642 L67.6429971,22.7397799 L71.1357136,22.7397799 L71.1357136,10.495283 L67.3235931,10.495283 L64.6741411,0 L6.93266994,0 L4.28227574,10.495283 L0.471097441,10.495283 L0.471097441,22.7397799 L3.96287167,22.7397799 L11.6916963,83.9622642 Z M55.2361749,78.7146226 L16.3706361,78.7146226 L14.3835471,62.9716981 L57.2242061,62.9716981 L55.2361749,78.7146226 Z M57.6651533,59.4732704 L13.9416577,59.4732704 L10.8503163,34.9842767 L60.7574369,34.9842767 L57.6651533,59.4732704 Z M61.1983841,31.4858491 L10.4084269,31.4858491 L9.30417446,22.7397799 L62.3026365,22.7397799 L61.1983841,31.4858491 Z M62.6416414,13.9937107 L65.9372081,13.9937107 L65.9372081,19.2413522 L5.66960292,19.2413522 L5.66960292,13.9937107 L8.71374056,13.9937107 L11.0707899,5.24764151 L60.5360211,5.24764151 L62.6416414,13.9937107 Z" id="Shape"></path>
                        </g>
                        <g id="Group-24" transform="translate(54.644960, 55.000000) rotate(-315.000000) translate(-54.644960, -55.000000) translate(22.144960, 11.000000)">
                            <g id="noun_Coffee_541198-Copy" transform="translate(0.000000, 18.471698)" fill-rule="nonzero">
                                <path d="M8.37398392,68.8490566 L56.6750175,68.8490566 L64.9457123,0 L0.576997744,0 L8.37398392,68.8490566 Z M12.5595012,63.8788316 L6.49322858,4.80298821 L59.2159085,4.80298821 L52.4983362,63.7989743 L12.5595012,63.8788316 Z" id="Shape"></path>
                            </g>
                            <g id="noun_Coffee_21281" transform="translate(13.322197, 0.000000)">
                                <path d="M4.99334586,21.8301887 C4.42407806,21.8301887 3.8504647,21.706884 3.34782876,21.4495526 C2.03257388,20.776202 1.70376017,19.4391508 2.61487835,18.4655803 C5.84507479,15.0109059 3.18124912,12.6273736 2.86692059,12.3668255 C0.694142717,10.6705825 -2.19565185,6.06327779 2.61632687,0.923082558 C3.52599654,-0.0494157885 5.33085069,-0.292808429 6.64755408,0.38161435 C7.96280895,1.05603713 8.29017415,2.39201611 7.37905597,3.36558667 C4.01559582,6.95964892 6.97202224,9.33996461 7.1009404,9.43968053 C9.2997916,11.15844 12.1866891,15.7657447 7.38050448,20.9070122 C6.81703076,21.5074522 5.91315516,21.8301887 4.99334586,21.8301887 Z" id="Path"></path>
                                <path d="M19.9808186,21.8301887 C19.4115151,21.8301887 18.8378657,21.7068855 18.3351982,21.449557 C17.0198609,20.7762142 16.6910265,19.4391785 17.6022019,18.4656192 C20.8311523,15.0109848 18.1686082,12.6274801 17.8542599,12.366935 C15.6813457,10.6707117 12.7928185,6.06453248 17.6022019,0.923324549 C18.5133772,-0.049162541 20.316896,-0.292552364 21.6336819,0.380790406 C22.9490193,1.05520538 23.2778537,2.3911689 22.3666783,3.36472819 C19.0044558,6.95874884 21.9596191,9.33903697 22.0885453,9.43875175 C24.2875344,11.1574913 27.1746131,15.7647427 22.3666783,20.9059507 C21.8031692,21.5074559 20.9006856,21.8301887 19.9808186,21.8301887 Z" id="Path"></path>
                                <path d="M33.3033169,21.8301887 C32.733954,21.8301887 32.1602448,21.706894 31.6560761,21.4495835 C30.3406015,20.7752155 30.0117328,19.4393449 30.9230032,18.4658534 C34.1537394,15.0114594 31.4909174,12.6281205 31.1750876,12.3675936 C29.0033954,10.6714883 26.1160156,6.06562961 30.9230032,0.924779447 C31.8342737,-0.0497842225 33.6350831,-0.293157108 34.954904,0.382283059 C36.2703786,1.0566511 36.5992473,2.39252165 35.6879768,3.36601319 C32.3268523,6.96085586 35.2823239,9.34097835 35.4098148,9.44068619 C37.6090334,11.1593062 40.497862,15.766237 35.6879768,20.9070871 C35.1258577,21.5074784 34.2232799,21.8301887 33.3033169,21.8301887 Z" id="Path"></path>
                            </g>
                        </g>
                    </g>
                    <g id="Group-3-Copy" transform="translate(11.000000, 392.000000)">
                        <g id="Group-2-Copy" transform="translate(403.000000, 16.000000)">
                            <g id="noun_donut_551429" fill-rule="nonzero" stroke="#000000" stroke-width="0.833085">
                                <path d="M39.7992295,79.786964 C61.4970016,79.786964 79.1148507,62.0213122 79.1148507,40.1415094 C79.1148507,18.2617067 61.4970016,0.49605489 39.7992295,0.49605489 C18.1014575,0.49605489 0.48360835,18.2617067 0.48360835,40.1415094 C0.48360835,62.0213122 18.1014575,79.786964 39.7992295,79.786964 Z M39.7992295,5.17122642 C58.900687,5.17122642 74.4785746,20.8798027 74.4785746,40.1415094 C74.4785746,59.4032161 58.900687,75.1117925 39.7992295,75.1117925 C20.6977721,75.1117925 5.11988443,59.4032161 5.11988443,40.1415094 C5.11988443,20.8798027 20.6977721,5.17122642 39.7992295,5.17122642 Z" id="Shape"></path>
                                <path d="M39.7992295,55.8500858 C43.8791525,55.8500858 47.7736244,54.167024 50.7408411,51.1749142 C56.8607255,45.0036878 56.8607255,35.0923242 50.7408411,29.1081046 C47.7736244,26.1159949 43.8791525,24.4329331 39.7992295,24.4329331 C35.7193066,24.4329331 31.8248347,26.1159949 28.857618,29.1081046 C22.7377335,35.279331 22.7377335,45.1906947 28.857618,51.1749142 C31.8248347,54.167024 35.7193066,55.8500858 39.7992295,55.8500858 Z M32.0102857,32.2872213 C34.0502472,30.2301458 36.8320128,29.1081046 39.7992295,29.1081046 C42.7664462,29.1081046 45.3627608,30.2301458 47.5881733,32.2872213 C51.8535473,36.5883791 51.8535473,43.5076329 47.5881733,47.8087907 C45.5482119,49.8658662 42.7664462,50.9879074 39.7992295,50.9879074 C36.8320128,50.9879074 34.2356982,49.8658662 32.0102857,47.8087907 C27.9303628,43.6946398 27.9303628,36.5883791 32.0102857,32.2872213 Z" id="Shape"></path>
                            </g>
                            <ellipse id="Oval" cx="27.3096695" cy="59.4528302" rx="3.33054935" ry="3.35849057"></ellipse>
                            <ellipse id="Oval-Copy" cx="45.6276909" cy="62.8113208" rx="3.33054935" ry="3.35849057"></ellipse>
                            <ellipse id="Oval-Copy-2" cx="37.3013175" cy="67.8490566" rx="3.33054935" ry="3.35849057"></ellipse>
                            <ellipse id="Oval-Copy-3" cx="62.2804376" cy="24.1886792" rx="3.33054935" ry="3.35849057"></ellipse>
                            <ellipse id="Oval-Copy-4" cx="22.3138454" cy="17.4716981" rx="3.33054935" ry="3.35849057"></ellipse>
                            <ellipse id="Oval-Copy-5" cx="32.3054935" cy="10.754717" rx="3.33054935" ry="3.35849057"></ellipse>
                            <ellipse id="Oval-Copy-6" cx="17.3180214" cy="35.9433962" rx="3.33054935" ry="3.35849057"></ellipse>
                            <ellipse id="Oval-Copy-7" cx="62.2804376" cy="54.4150943" rx="3.33054935" ry="3.35849057"></ellipse>
                        </g>
                        <g id="noun_donut_551429-copy-2" transform="translate(242.603800, 55.716981) rotate(-59.000000) translate(-242.603800, -55.716981) translate(202.603800, 15.716981)">
                            <path d="M39.7992295,79.786964 C61.4970016,79.786964 79.1148507,62.0213122 79.1148507,40.1415094 C79.1148507,18.2617067 61.4970016,0.49605489 39.7992295,0.49605489 C18.1014575,0.49605489 0.48360835,18.2617067 0.48360835,40.1415094 C0.48360835,62.0213122 18.1014575,79.786964 39.7992295,79.786964 Z M39.7992295,5.17122642 C58.900687,5.17122642 74.4785746,20.8798027 74.4785746,40.1415094 C74.4785746,59.4032161 58.900687,75.1117925 39.7992295,75.1117925 C20.6977721,75.1117925 5.11988443,59.4032161 5.11988443,40.1415094 C5.11988443,20.8798027 20.6977721,5.17122642 39.7992295,5.17122642 Z" id="Shape" stroke="#000000" stroke-width="0.833085" fill-rule="nonzero"></path>
                            <path d="M39.7992295,55.8500858 C43.8791525,55.8500858 47.7736244,54.167024 50.7408411,51.1749142 C56.8607255,45.0036878 56.8607255,35.0923242 50.7408411,29.1081046 C47.7736244,26.1159949 43.8791525,24.4329331 39.7992295,24.4329331 C35.7193066,24.4329331 31.8248347,26.1159949 28.857618,29.1081046 C22.7377335,35.279331 22.7377335,45.1906947 28.857618,51.1749142 C31.8248347,54.167024 35.7193066,55.8500858 39.7992295,55.8500858 Z M32.0102857,32.2872213 C34.0502472,30.2301458 36.8320128,29.1081046 39.7992295,29.1081046 C42.7664462,29.1081046 45.3627608,30.2301458 47.5881733,32.2872213 C51.8535473,36.5883791 51.8535473,43.5076329 47.5881733,47.8087907 C45.5482119,49.8658662 42.7664462,50.9879074 39.7992295,50.9879074 C36.8320128,50.9879074 34.2356982,49.8658662 32.0102857,47.8087907 C27.9303628,43.6946398 27.9303628,36.5883791 32.0102857,32.2872213 Z" id="Shape" stroke="#000000" stroke-width="0.833085" fill-rule="nonzero"></path>
                            <path d="M35.9047576,19.7577616 C36.6465618,19.7577616 37.2029149,19.3837479 37.759268,19.0097341 L41.65374,14.3345626 C42.3955441,13.3995283 42.3955441,11.9034734 41.4682889,10.9684391 C40.3555827,10.2204117 38.8719743,10.2204117 37.9447191,11.3424528 L34.2356982,15.8306175 C33.4938941,16.7656518 33.4938941,18.2617067 34.4211493,19.196741 C34.9775024,19.5707547 35.3484045,19.7577616 35.9047576,19.7577616 Z" id="Path"></path>
                            <path d="M51.2971942,23.4978988 C51.6680963,24.2459262 52.5953515,24.61994 53.3371557,24.61994 C53.7080578,24.61994 54.0789599,24.4329331 54.4498619,24.2459262 C55.5625682,23.6849057 55.9334703,22.1888508 55.1916661,21.0668096 L51.1117432,13.9605489 C50.55539,12.8385077 49.0717817,12.464494 47.9590754,13.2125214 C46.8463692,13.773542 46.4754671,15.2695969 47.2172713,16.3916381 L51.2971942,23.4978988 Z" id="Path"></path>
                            <path d="M60.0133932,31.5391938 C60.7551974,31.5391938 61.4970016,31.1651801 61.8679037,30.6041595 L65.0205714,25.928988 C65.7623756,24.8069468 65.5769245,23.4978988 64.4642183,22.7498714 C63.351512,22.0018439 62.0533547,22.1888508 61.3115505,23.3108919 L58.1588828,27.9860635 C57.4170786,29.1081046 57.6025297,30.4171527 58.7152359,31.1651801 C59.086138,31.352187 59.6424912,31.5391938 60.0133932,31.5391938 Z" id="Path"></path>
                            <path d="M64.2787672,37.7104202 L67.0605329,44.2556604 C67.431435,45.1906947 68.3586902,45.7517153 69.2859454,45.7517153 C69.6568475,45.7517153 69.8422985,45.7517153 70.2132006,45.5647084 C71.3259069,45.0036878 71.88226,43.6946398 71.5113579,42.5725986 L68.7295923,36.0273585 C68.1732391,34.9053173 66.8750818,34.3442967 65.7623756,34.7183105 C64.2787672,35.0923242 63.7224141,36.5883791 64.2787672,37.7104202 Z" id="Path"></path>
                            <path d="M59.4570401,58.8421955 C59.8279422,59.7772298 60.7551974,60.5252573 61.6824526,60.5252573 C61.8679037,60.5252573 62.0533547,60.5252573 62.4242568,60.3382504 C63.7224141,59.9642367 64.2787672,58.6551887 63.9078651,57.3461407 L62.2388058,51.9229417 C61.8679037,50.6138937 60.5697464,50.0528731 59.2715891,50.4268868 C57.9734318,50.8009005 57.4170786,52.1099485 57.7879807,53.4189966 L59.4570401,58.8421955 Z" id="Path"></path>
                            <path d="M53.8935088,56.9721269 L48.5154286,58.6551887 C47.2172713,59.0292024 46.6609181,60.3382504 47.0318202,61.6472985 C47.4027223,62.5823328 48.3299775,63.3303602 49.2572327,63.3303602 C49.4426838,63.3303602 49.6281348,63.3303602 49.9990369,63.1433533 L55.3771172,61.4602916 C56.6752745,61.0862779 57.2316276,59.7772298 56.8607255,58.4681818 C56.3043724,57.3461407 55.0062151,56.5981132 53.8935088,56.9721269 Z" id="Path"></path>
                            <path d="M32.0102857,58.0941681 L24.4067929,62.3953259 C23.2940867,62.9563465 22.9231846,64.4524014 23.4795377,65.5744425 C23.8504398,66.32247 24.777695,66.6964837 25.5194992,66.6964837 C25.8904013,66.6964837 26.2613034,66.5094768 26.6322054,66.32247 L34.2356982,62.0213122 C35.3484045,61.4602916 35.7193066,59.9642367 35.1629534,58.8421955 C34.6066003,57.7201544 33.122992,57.3461407 32.0102857,58.0941681 Z" id="Path"></path>
                            <path d="M41.2828379,63.5173671 C40.3555827,62.7693396 38.8719743,62.9563465 37.9447191,63.8913808 C37.2029149,64.8264151 37.388366,66.32247 38.3156212,67.2575043 L44.4355056,72.1196827 C44.8064077,72.4936964 45.3627608,72.6807033 45.919114,72.6807033 C46.6609181,72.6807033 47.2172713,72.3066895 47.7736244,71.745669 C48.5154286,70.8106346 48.3299775,69.3145798 47.4027223,68.3795455 L41.2828379,63.5173671 Z" id="Path"></path>
                            <path d="M18.6578106,56.9721269 L18.6578106,49.1178388 C18.6578106,47.8087907 17.5451043,46.8737564 16.4323981,46.8737564 C15.3196918,46.8737564 14.2069855,47.9957976 14.2069855,49.1178388 L14.2069855,56.9721269 C14.2069855,58.281175 15.3196918,59.2162093 16.4323981,59.2162093 C17.5451043,59.2162093 18.6578106,58.281175 18.6578106,56.9721269 Z" id="Path"></path>
                            <path d="M19.3996148,44.2556604 C20.1414189,44.2556604 21.0686742,43.8816467 21.4395762,43.1336192 C21.9959294,42.011578 21.6250273,40.5155232 20.512321,39.9545026 L14.2069855,36.4013722 C13.0942793,35.8403516 11.6106709,36.2143654 11.0543178,37.3364065 C10.4979647,38.2714408 10.8688668,39.5804889 11.981573,40.3285163 L18.2869085,43.8816467 C18.6578106,44.2556604 19.0287127,44.2556604 19.3996148,44.2556604 Z" id="Path"></path>
                            <path d="M12.1670241,31.5391938 L18.4723595,27.7990566 C19.5850658,27.238036 19.9559679,25.7419811 19.2141637,24.61994 C18.6578106,23.4978988 17.1742022,23.1238851 16.061496,23.8719125 L9.7561605,27.6120497 C8.64345425,28.1730703 8.27255216,29.6691252 9.0143563,30.7911664 C9.3852584,31.5391938 10.3125136,31.9132075 11.0543178,31.9132075 C11.2397689,31.9132075 11.796122,31.9132075 12.1670241,31.5391938 Z" id="Path"></path>
                            <path d="M25.5194992,24.2459262 C25.8904013,24.9939537 26.8176565,25.3679674 27.5594607,25.3679674 C27.9303628,25.3679674 28.3012648,25.1809605 28.6721669,24.9939537 C29.7848732,24.4329331 30.1557753,22.9368782 29.5994221,21.814837 L25.7049502,14.7085763 C25.1485971,13.5865352 23.6649888,13.2125214 22.5522825,13.773542 C21.4395762,14.3345626 21.0686742,15.8306175 21.6250273,16.9526587 L25.5194992,24.2459262 Z" id="Path"></path>
                        </g>
                        <g id="noun_donut_1203999-copy" transform="translate(139.240425, 55.896226) rotate(51.000000) translate(-139.240425, -55.896226) translate(99.740425, 16.396226)" stroke="#000000">
                            <g id="Group">
                                <path d="M75.8039199,25.5773934 C75.6589794,25.1389238 75.3690982,24.8466108 74.9342765,24.7004542 C74.4994548,24.5542977 74.0646331,24.5542977 73.7747519,24.8466108 C71.7455839,26.015863 69.5714753,26.6004892 67.2524261,26.4543326 C60.8750409,26.015863 56.0920019,20.4619147 56.3818831,14.1771838 C56.3818831,13.1540881 56.6717642,12.2771488 56.9616454,11.2540531 C57.106586,10.8155835 57.106586,10.5232704 56.8167048,10.0848008 C56.6717642,9.79248777 56.2369425,9.5001747 55.9470614,9.5001747 C51.7437847,8.76939203 48.265211,5.70010482 46.9607458,1.60772187 C46.8158052,1.16925227 46.3809835,0.730782669 45.9461618,0.730782669 C43.6271126,0.146156534 41.3080635,0 39.1339548,0 C17.5378094,0 0,17.6849406 0,39.4622642 C0,61.2395877 17.5378094,78.9245283 39.1339548,78.9245283 C60.7301003,78.9245283 78.2679097,61.2395877 78.2679097,39.4622642 C78.2679097,34.6390985 77.3982663,29.9620894 75.8039199,25.5773934 Z M39.1339548,2.77697414 C40.8732417,2.77697414 42.7574692,2.92313068 44.6416966,3.21544375 C46.2360429,7.45398323 49.7146167,10.669427 54.0628339,11.8386792 C53.9178933,12.5694619 53.7729528,13.3002446 53.7729528,14.0310273 C53.1931905,21.9234801 59.135754,28.7928372 67.1074855,29.2313068 C69.4265347,29.3774633 71.7455839,28.9389937 73.7747519,28.0620545 C74.9342765,31.5698113 75.5140388,35.2237247 75.5140388,38.877638 C71.8905245,42.2392383 66.2378421,42.0930818 62.7592683,38.5853249 C60.150338,35.9545073 56.3818831,34.6390985 52.7583688,35.0775681 C50.8741413,29.2313068 45.5113401,25.1389238 39.1339548,25.1389238 C32.7565696,25.1389238 27.3937684,29.3774633 25.5095409,35.0775681 C21.8860266,34.6390985 18.1175717,35.8083508 15.5086414,38.5853249 C12.0300676,42.0930818 6.37738523,42.2392383 2.7538709,38.877638 C3.04375204,18.8541929 19.2770963,2.77697414 39.1339548,2.77697414 Z M50.7292007,39.4622642 C50.7292007,45.8931516 45.5113401,51.1547869 39.1339548,51.1547869 C32.7565696,51.1547869 27.538709,45.8931516 27.538709,39.4622642 C27.538709,33.0313767 32.7565696,27.7697414 39.1339548,27.7697414 C45.5113401,27.7697414 50.7292007,33.0313767 50.7292007,39.4622642 Z M39.1339548,76.1475542 C20.0017991,76.1475542 4.20327663,61.2395877 2.89881147,42.2392383 C7.6818504,45.162369 13.6244139,44.2854298 17.5378094,40.3392034 C19.5669774,38.2930119 22.3208483,37.4160727 25.0747192,37.7083857 C25.0747192,38.2930119 24.9297786,38.877638 24.9297786,39.4622642 C24.9297786,47.354717 31.3071639,53.7856045 39.1339548,53.7856045 C46.9607458,53.7856045 53.3381311,47.354717 53.3381311,39.4622642 C53.3381311,38.877638 53.3381311,38.2930119 53.1931905,37.7083857 C55.9470614,37.4160727 58.7009323,38.4391684 60.7301003,40.3392034 C64.6434958,44.2854298 70.5860593,45.0162124 75.3690982,42.2392383 C74.0646331,61.2395877 58.2661106,76.1475542 39.1339548,76.1475542 Z" id="Shape" stroke-width="2.9157975" fill-rule="nonzero"></path>
                                <path d="M40.7223852,65.4751444 L37.388752,68.9829012 C36.8089897,69.5675273 36.8089897,70.4444665 37.388752,70.8829362 C37.9685143,71.4675623 38.8381578,71.4675623 39.2729795,70.8829362 L42.6066127,67.5213359 C43.186375,66.9367097 43.186375,66.0597705 42.6066127,65.6213009 C42.0268504,65.0366748 41.1572069,65.0366748 40.7223852,65.4751444 Z" id="Path" stroke-width="1.66617"></path>
                                <path d="M23.1904918,49.8393781 C22.6107295,49.2547519 21.741086,49.2547519 21.3062643,49.8393781 L17.9726311,53.2009783 C17.3928688,53.7856045 17.3928688,54.6625437 17.9726311,55.1010133 C18.5523934,55.6856394 19.4220369,55.6856394 19.8568586,55.1010133 L23.1904918,51.739413 C23.7702541,51.1547869 23.7702541,50.2778477 23.1904918,49.8393781 Z" id="Path" stroke-width="1.66617"></path>
                                <path d="M55.8109947,56.4223877 L52.4773615,59.7839879 C51.8975992,60.3686141 51.8975992,61.2455533 52.4773615,61.6840229 C53.0571238,62.268649 53.9267673,62.268649 54.361589,61.6840229 L57.6952222,58.3224226 C58.2749845,57.7377965 58.2749845,56.8608573 57.6952222,56.4223877 C57.2604004,55.8377615 56.390757,55.8377615 55.8109947,56.4223877 Z" id="Path" stroke-width="1.66617"></path>
                                <path d="M64.3536146,50.5701607 C63.7738523,49.9855346 62.9042089,49.9855346 62.4693872,50.5701607 C61.8896249,51.1547869 61.8896249,52.0317261 62.4693872,52.4701957 L65.8030204,55.8317959 C66.3827827,56.4164221 67.2524261,56.4164221 67.6872478,55.8317959 C68.2670101,55.2471698 68.2670101,54.3702306 67.6872478,53.931761 L64.3536146,50.5701607 Z" id="Path" stroke-width="1.66617"></path>
                                <path d="M31.0705262,60.034542 C30.4907639,59.4499159 29.6211205,59.4499159 29.1862988,60.034542 C28.6065365,60.6191681 28.6065365,61.4961073 29.1862988,61.9345769 L32.5199319,65.2961772 C33.0996942,65.8808033 33.9693377,65.8808033 34.4041594,65.2961772 C34.9839217,64.7115511 34.9839217,63.8346119 34.4041594,63.3961423 L31.0705262,60.034542 Z" id="Path" stroke-width="1.66617"></path>
                            </g>
                        </g>
                        <g id="noun_Coffee_541198-Copy" transform="translate(342.797724, 53.358491) rotate(-13.000000) translate(-342.797724, -53.358491) translate(306.797724, 11.358491)" fill-rule="nonzero">
                            <path d="M11.6916963,83.9622642 L59.9141725,83.9622642 L67.6429971,22.7397799 L71.1357136,22.7397799 L71.1357136,10.495283 L67.3235931,10.495283 L64.6741411,0 L6.93266994,0 L4.28227574,10.495283 L0.471097441,10.495283 L0.471097441,22.7397799 L3.96287167,22.7397799 L11.6916963,83.9622642 Z M55.2361749,78.7146226 L16.3706361,78.7146226 L14.3835471,62.9716981 L57.2242061,62.9716981 L55.2361749,78.7146226 Z M57.6651533,59.4732704 L13.9416577,59.4732704 L10.8503163,34.9842767 L60.7574369,34.9842767 L57.6651533,59.4732704 Z M61.1983841,31.4858491 L10.4084269,31.4858491 L9.30417446,22.7397799 L62.3026365,22.7397799 L61.1983841,31.4858491 Z M62.6416414,13.9937107 L65.9372081,13.9937107 L65.9372081,19.2413522 L5.66960292,19.2413522 L5.66960292,13.9937107 L8.71374056,13.9937107 L11.0707899,5.24764151 L60.5360211,5.24764151 L62.6416414,13.9937107 Z" id="Shape"></path>
                        </g>
                        <g id="Group-24" transform="translate(43.644960, 52.000000) rotate(-15.000000) translate(-43.644960, -52.000000) translate(11.144960, 8.000000)">
                            <g id="noun_Coffee_541198-Copy" transform="translate(0.000000, 18.471698)" fill-rule="nonzero">
                                <path d="M8.37398392,68.8490566 L56.6750175,68.8490566 L64.9457123,0 L0.576997744,0 L8.37398392,68.8490566 Z M12.5595012,63.8788316 L6.49322858,4.80298821 L59.2159085,4.80298821 L52.4983362,63.7989743 L12.5595012,63.8788316 Z" id="Shape"></path>
                            </g>
                            <g id="noun_Coffee_21281" transform="translate(13.322197, 0.000000)">
                                <path d="M4.99334586,21.8301887 C4.42407806,21.8301887 3.8504647,21.706884 3.34782876,21.4495526 C2.03257388,20.776202 1.70376017,19.4391508 2.61487835,18.4655803 C5.84507479,15.0109059 3.18124912,12.6273736 2.86692059,12.3668255 C0.694142717,10.6705825 -2.19565185,6.06327779 2.61632687,0.923082558 C3.52599654,-0.0494157885 5.33085069,-0.292808429 6.64755408,0.38161435 C7.96280895,1.05603713 8.29017415,2.39201611 7.37905597,3.36558667 C4.01559582,6.95964892 6.97202224,9.33996461 7.1009404,9.43968053 C9.2997916,11.15844 12.1866891,15.7657447 7.38050448,20.9070122 C6.81703076,21.5074522 5.91315516,21.8301887 4.99334586,21.8301887 Z" id="Path"></path>
                                <path d="M19.9808186,21.8301887 C19.4115151,21.8301887 18.8378657,21.7068855 18.3351982,21.449557 C17.0198609,20.7762142 16.6910265,19.4391785 17.6022019,18.4656192 C20.8311523,15.0109848 18.1686082,12.6274801 17.8542599,12.366935 C15.6813457,10.6707117 12.7928185,6.06453248 17.6022019,0.923324549 C18.5133772,-0.049162541 20.316896,-0.292552364 21.6336819,0.380790406 C22.9490193,1.05520538 23.2778537,2.3911689 22.3666783,3.36472819 C19.0044558,6.95874884 21.9596191,9.33903697 22.0885453,9.43875175 C24.2875344,11.1574913 27.1746131,15.7647427 22.3666783,20.9059507 C21.8031692,21.5074559 20.9006856,21.8301887 19.9808186,21.8301887 Z" id="Path"></path>
                                <path d="M33.3033169,21.8301887 C32.733954,21.8301887 32.1602448,21.706894 31.6560761,21.4495835 C30.3406015,20.7752155 30.0117328,19.4393449 30.9230032,18.4658534 C34.1537394,15.0114594 31.4909174,12.6281205 31.1750876,12.3675936 C29.0033954,10.6714883 26.1160156,6.06562961 30.9230032,0.924779447 C31.8342737,-0.0497842225 33.6350831,-0.293157108 34.954904,0.382283059 C36.2703786,1.0566511 36.5992473,2.39252165 35.6879768,3.36601319 C32.3268523,6.96085586 35.2823239,9.34097835 35.4098148,9.44068619 C37.6090334,11.1593062 40.497862,15.766237 35.6879768,20.9070871 C35.1258577,21.5074784 34.2232799,21.8301887 33.3033169,21.8301887 Z" id="Path"></path>
                            </g>
                        </g>
                    </g>
                </g>
            </g>
        </g>
    </g>
</svg>