<?xml version="1.0" encoding="UTF-8"?>
<svg width="474px" height="482px" viewBox="0 0 474 482" version="1.1" xmlns="http://www.w3.org/2000/svg" xmlns:xlink="http://www.w3.org/1999/xlink">
    <!-- Generator: Sketch 52.5 (67469) - http://www.bohemiancoding.com/sketch -->
    <title>Jpn-fare</title>
    <desc>Created with Sketch.</desc>
    <g id="Page-1" stroke="none" stroke-width="1" fill="none" fill-rule="evenodd">
        <g id="Jpn-fare" transform="translate(1.000000, 0.000000)">
            <g id="Group-4" transform="translate(1.000000, 126.000000)">
                <g id="Group-3-Copy-3" transform="translate(0.957490, 10.567951)" stroke="#FFFFFF">
                    <g id="noun_Sushi_1898168" transform="translate(10.112494, 7.230242)" fill="#FFFFFF" fill-rule="nonzero" stroke-width="0.9978507">
                        <path d="M24.7541127,0.0662779743 C24.3723732,0.0780085553 16.0580738,0.401186924 10.7577899,6.30989564 C9.48572165,3.7238825 6.70634813,-0.348985623 1.97778008,0.0703837257 C1.35901662,0.125517552 0.881395477,0.630520406 0.868293636,1.24227171 C0.864124835,1.46222071 0.800997873,6.03129362 3.20637398,8.69531532 C0.801593433,11.3599236 0.864124835,15.9284101 0.868293636,16.1483589 C0.881395477,16.7601102 1.35901662,17.2651131 1.97778008,17.3202469 C2.20765762,17.3407754 2.43217522,17.3501599 2.65311959,17.3501599 C6.9761265,17.3501599 9.54765749,13.540644 10.7571942,11.0801483 C16.0580737,16.9894436 24.3753507,17.312622 24.7880582,17.3249391 C24.808902,17.3249391 24.8297459,17.3249391 24.8511852,17.3249391 C35.400537,17.3249391 38.0816468,9.13110732 38.1078505,9.04840658 C38.1876525,8.79150618 38.1781239,8.51525026 38.0804558,8.26421527 C34.4548235,-1.02466881 24.7410109,0.0651048682 24.7541127,0.0662779743 Z M3.36776475,14.8837992 C3.54106611,13.1904854 4.12945722,10.7035959 5.71537369,9.70825356 C6.06733634,9.48771801 6.27994323,9.10588674 6.27994323,8.69531532 C6.27994323,8.28474391 6.06674078,7.90291252 5.71537369,7.68237709 C4.12945722,6.68703473 3.54106623,4.20014521 3.36776475,2.50683148 C6.76471073,3.07869874 8.65137361,7.40905381 9.14031003,8.69531532 C8.65077805,9.98216339 6.76530629,14.3125185 3.36776475,14.8837992 Z M11.9274256,8.69531532 C14.9899773,4.7111599 19.7805556,3.27137404 22.6160586,2.75156141 C21.4999468,5.198127 20.2313775,9.69652297 22.5888127,14.642955 C19.7917963,14.1323068 15.0020369,12.6991928 11.9274256,8.69531532 Z M25.4977902,14.8986091 C21.8222071,9.00815604 24.8141876,3.56493262 25.5316614,2.42405747 C27.3727657,2.36907019 33.0461539,2.70617869 35.6333923,8.71291131 C35.0517754,10.0825334 32.5708406,14.6416354 25.4977902,14.8986091 Z" id="Shape"></path>
                        <path d="M24.7541127,23.4269258 C24.3723732,23.4386564 16.0580738,23.7618348 10.7577899,29.6705435 C9.48572165,27.0845304 6.70634813,23.0099026 1.97778008,23.4310316 C1.35901662,23.4861654 0.881395477,23.9911683 0.868293636,24.6029196 C0.864124835,24.8228686 0.801593433,29.3913549 3.20637398,32.0559632 C0.800997873,34.7199849 0.864124835,39.2890579 0.868293636,39.5090068 C0.881395477,40.1207581 1.35901662,40.625761 1.97778008,40.6808948 C2.20765762,40.7014233 2.43217522,40.7108078 2.65311959,40.7108078 C6.9761265,40.7108078 9.54765749,36.9012919 10.7571942,34.4407962 C16.0580737,40.3500915 24.3753507,40.6732698 24.7880582,40.685587 C24.8094975,40.685587 24.8285547,40.685587 24.8499941,40.685587 C35.3993458,40.685587 38.0816468,32.4917552 38.1078505,32.4090544 C38.1876525,32.1521541 38.1781239,31.8758981 38.0804558,31.6248631 C34.4554191,22.3359791 24.7386288,23.4239932 24.7541127,23.4269258 Z M3.36478707,38.2450336 C3.53451531,36.5546525 4.12052418,34.0695226 5.71537369,33.0689015 C6.06674078,32.848366 6.27994323,32.4665347 6.27994323,32.0559633 C6.27994323,31.6453919 6.06733634,31.2635605 5.71537369,31.0430251 C4.12945722,30.0476827 3.54106623,27.5607932 3.36776475,25.8674795 C6.76471073,26.4393467 8.65137361,30.7697018 9.14031003,32.0559633 C8.65077805,33.3433978 6.76411517,37.676099 3.36478707,38.2450336 Z M11.9274256,32.0559632 C14.9894562,28.0724677 19.7791413,26.6324619 22.6159842,26.1123559 C21.4999468,28.5589215 20.2313775,33.0570243 22.5888129,38.0036029 C19.7917219,37.4930281 15.0020369,36.059914 11.9274256,32.0559632 Z M25.4977902,38.2591837 C21.8260781,32.3742294 24.8084556,26.936358 25.5293537,25.7885178 C27.3538573,25.7469474 33.0617123,26.1126492 35.6333923,32.0735592 C35.0512544,33.4436945 32.5709895,38.0017701 25.4977902,38.2591837 Z" id="Shape"></path>
                        <path d="M24.7541127,46.7869872 C24.3723732,46.7987177 16.0580738,47.1218961 10.7577899,53.0306048 C9.48572165,50.4445917 6.70634813,46.3687909 1.97778008,46.7910929 C1.35901662,46.8462267 0.881395477,47.3512296 0.868293636,47.9629809 C0.864124835,48.1829299 0.800997873,52.7514163 3.20637398,55.4160245 C0.800997873,58.0806328 0.864124835,62.6491192 0.868293636,62.8690681 C0.881395477,63.4808194 1.35901662,63.9858223 1.97778008,64.0409561 C2.20765762,64.0614846 2.43217522,64.0708691 2.65311959,64.0708691 C6.9761265,64.0708691 9.54765749,60.2613532 10.7571942,57.8008575 C16.0580737,63.7101528 24.3753507,64.0333312 24.7880582,64.0456483 C24.8094975,64.0456483 24.8285547,64.0456483 24.8499941,64.0456483 C35.3993458,64.0456483 38.0816468,55.8518165 38.1078505,55.7691158 C38.1876525,55.5122154 38.1781239,55.2359594 38.0804558,54.9849245 C34.4554191,45.6960404 24.7386288,46.7840545 24.7541127,46.7869872 Z M3.36776475,61.6045085 C3.54106611,59.9111947 4.12945722,57.4243052 5.71537369,56.4289629 C6.06733634,56.2084273 6.27994323,55.826596 6.27994323,55.4160246 C6.27994323,55.0054532 6.06733634,54.6236218 5.71537369,54.4030864 C4.12945722,53.407744 3.54106623,50.9208545 3.36776475,49.2275408 C6.76471073,49.799408 8.65137361,54.1297631 9.14031003,55.4160246 C8.65077805,56.7028727 6.76530629,61.0332276 3.36776475,61.6045085 Z M11.9274256,55.4160246 C14.9894562,51.4325292 19.7791413,49.9925234 22.6159842,49.4724174 C21.4999468,51.918983 20.2313775,56.4170857 22.5888129,61.3636643 C19.7917219,60.8530894 15.0020369,59.4199753 11.9274256,55.4160246 Z M25.4977902,61.619245 C21.8257058,55.7337042 24.809051,50.2953196 25.529577,49.1482126 C27.3543041,49.1064956 33.0617868,49.4734438 35.6333923,55.4336205 C35.0512544,56.8037559 32.5709895,61.3618314 25.4977902,61.619245 Z" id="Shape"></path>
                    </g>
                    <rect id="Rectangle" stroke-width="4.76576488" x="0.38288244" y="0.38288244" width="57.1425377" height="79.5103567" rx="9.53152976"></rect>
                </g>
                <g id="noun_Bento-tray_1468440-Copy-2" transform="translate(195.641143, 19.149992)" fill="#FFFFFF" fill-rule="nonzero">
                    <path d="M0,0 L0,1.88135431 L0,58.3219837 L0,60.203338 L1.87600917,60.203338 L42.7874399,60.203338 L41.8494353,77.0179421 L45.6014536,77.2531114 L46.5394582,60.203338 L54.0434949,60.203338 L54.9814995,77.2531114 L58.7335178,77.0179421 L57.7955132,60.203338 L65.6603209,60.203338 L67.5363301,60.203338 L67.5363301,58.3219837 L67.5363301,1.88135431 L67.5363301,0 L65.6603209,0 L1.87600917,0 L0,0 Z M3.75201834,5.05026048 L13.7092982,5.05026048 L13.7092982,15.0508341 L3.75201834,15.0508341 L3.75201834,5.05026048 Z M17.4613161,5.05026048 L63.7843122,5.05026048 L63.7843122,15.0508341 L17.4613161,15.0508341 L17.4613161,5.05026048 Z M3.75201834,18.8135431 L13.7092982,18.8135431 L13.7092982,55.1530771 L3.75201834,55.1530771 L3.75201834,18.8135431 Z M17.4613155,18.8135431 L63.7843112,18.8135431 L63.7843112,55.1530771 L57.5903242,55.1530771 L55.9195035,25.9678889 L52.1674852,26.195011 L53.8383058,55.1530771 L46.7446462,55.1530771 L48.4154668,26.195011 L44.6634485,25.9678889 L42.9926278,55.1530771 L17.4613155,55.1530771 L17.4613155,18.8135431 Z" id="Shape"></path>
                </g>
                <g id="noun_Sushi_1186942-Copy-2" transform="translate(384.494836, 0.890166)" fill="#FFFFFF">
                    <g id="Group">
                        <path d="M83.0460796,18.0932054 C84.0271073,17.5271508 84.3545022,16.2809177 83.7806935,15.3165706 C83.2057279,14.3487998 81.9505215,14.0246879 80.9683369,14.5907425 L37.8239405,39.4880157 L66.8938282,4.21916112 C67.6122459,3.34725442 67.4792056,2.07134905 66.596512,1.36492202 C65.7161322,0.656212509 64.4192783,0.789737489 63.7043312,1.65936172 L27.7151902,45.3186065 L1.56293451,60.4092117 C0.58306365,60.9752663 0.254511911,62.2180758 0.824849965,63.1835641 C1.21008845,63.8283642 1.89727061,64.1889958 2.60296272,64.1889958 C2.95812252,64.1889958 3.31212545,64.0999791 3.63952032,63.9128159 L20.3274036,54.2841812 L9.36372457,67.5807585 C8.6476206,68.4503827 8.77950404,69.7274293 9.65988388,70.4327151 C10.0428086,70.7419909 10.5009301,70.8892108 10.954424,70.8892108 C11.552527,70.8892108 12.1460025,70.632432 12.5520647,70.1416992 L30.4326833,48.4513079 L83.0460796,18.0932054 Z" id="Path"></path>
                        <path d="M47.6839633,58.463399 C40.6143166,58.463399 34.8623474,64.1387812 34.8623474,71.1163174 C34.8623474,78.0892886 40.6143166,83.7658121 47.6839633,83.7658121 C54.7582376,83.7658121 60.5113636,78.0892886 60.5113636,71.1163174 C60.5113636,64.13764 54.7582376,58.463399 47.6839633,58.463399 Z M47.6839633,79.7052832 C42.8852569,79.7052832 38.9761854,75.8536011 38.9761854,71.1163174 C38.9761854,66.3767512 42.8852569,62.5227866 47.6839633,62.5227866 C52.4896109,62.5227866 56.3975256,66.3767512 56.3975256,71.1163174 C56.3975256,75.8536011 52.4896109,79.7052832 47.6839633,79.7052832 Z" id="Shape" fill-rule="nonzero"></path>
                        <path d="M56.3975256,49.8698682 C56.3975256,56.8474043 62.1471811,62.5216454 69.2179847,62.5216454 C76.2934158,62.5216454 82.045385,56.8474043 82.045385,49.8698682 C82.045385,42.8957558 76.2934158,37.2215147 69.2179847,37.2215147 C62.1471811,37.2215147 56.3975256,42.8957558 56.3975256,49.8698682 Z M77.9303902,49.8698682 C77.9303902,54.6082931 74.0236323,58.4622577 69.2179847,58.4622577 C64.4204352,58.4622577 60.5113636,54.6082931 60.5113636,49.8698682 C60.5113636,45.1360082 64.4204352,41.2797611 69.2179847,41.2797611 C74.0236323,41.2797611 77.9303902,45.1360082 77.9303902,49.8698682 Z" id="Shape" fill-rule="nonzero"></path>
                        <path d="M65.6305236,49.8698682 C65.6305236,51.8293758 67.2339487,53.4122745 69.2179847,53.4122745 C71.2066482,53.4122745 72.8100733,51.8293758 72.8100733,49.8698682 C72.8100733,47.9160668 71.2054914,46.3331681 69.2179847,46.3331681 C67.2339487,46.3331681 65.6305236,47.9160668 65.6305236,49.8698682 Z" id="Path"></path>
                        <path d="M47.6839633,67.5750523 C45.7045548,67.5750523 44.0976591,69.1568098 44.0976591,71.1163174 C44.0976591,73.0701188 45.7033979,74.6564412 47.6839633,74.6564412 C49.6691562,74.6564412 51.2772088,73.0701188 51.2772088,71.1163174 C51.2772088,69.1568098 49.6691562,67.5750523 47.6839633,67.5750523 Z" id="Path"></path>
                        <path d="M77.6640673,76.2878313 C77.318418,76.2982931 69.7901672,76.5865161 64.9909814,81.8561332 C63.8391768,79.5498258 61.3225701,75.9148675 57.0410492,76.2914929 C56.4807847,76.3406634 56.0483187,76.7910447 56.0364556,77.3366284 C56.0326809,77.5327875 55.9755221,81.607142 58.1534897,83.9835436 C55.9755221,86.3599453 56.0326809,90.4342999 56.0364556,90.6304588 C56.0483187,91.1760425 56.4807847,91.6264238 57.0410492,91.6755943 C57.2491937,91.6939024 57.452485,91.7022719 57.6525409,91.7022719 C61.5668431,91.7022719 63.8952571,88.3047969 64.990442,86.1104308 C69.7901671,91.380571 77.3211141,91.6687941 77.6948035,91.679779 C77.7142159,91.679779 77.7314714,91.679779 77.7508838,91.679779 C87.3028813,91.679779 89.7315928,84.3721999 89.7553191,84.2984442 C89.8275765,84.0693304 89.8189488,83.8229546 89.7305144,83.5990718 C86.448195,75.3148823 77.6500472,76.2852158 77.6640673,76.2878313 Z M58.2996223,89.5026752 C58.4565394,87.9925119 58.989303,85.7746068 60.4252841,84.8869216 C60.7439716,84.6902394 60.9364783,84.3497073 60.9364783,83.9835437 C60.9364783,83.6173801 60.7439716,83.276848 60.4252841,83.0801659 C58.989303,82.1924807 58.4565395,79.9745755 58.2996223,78.4644123 C61.375415,78.9744258 63.0837094,82.8364055 63.526421,83.9835437 C63.0831702,85.1312051 61.3759543,88.9931846 58.2996223,89.5026752 Z M66.0500377,83.9835437 C68.8225786,80.430907 73.1594383,79.1466536 75.7280812,78.6828028 C74.7175559,80.8647455 73.5689193,84.8763291 75.7034786,89.287881 C73.1708296,88.8325303 68.8339699,87.5544233 66.0500377,83.9835437 Z M78.3374362,89.5158178 C75.0125171,84.2668628 77.7138116,79.4166991 78.3662178,78.3936643 C80.0184319,78.3564594 85.1863192,78.6837182 87.5148006,83.9992364 C86.987699,85.2211766 84.7419227,89.2862463 78.3374362,89.5158178 Z" id="Shape" stroke="#FFFFFF" stroke-width="1.25414865" fill-rule="nonzero" transform="translate(72.919746, 83.976961) rotate(-53.000000) translate(-72.919746, -83.976961) "></path>
                    </g>
                </g>
                <g id="noun_Sauce_129416-Copy-2" transform="translate(297.897949, 5.103972)">
                    <polygon id="Path-Copy-2" fill="#FFFFFF" points="14.6833795 0 16.331973 5.27789852 22.5423962 5.27789852 29.5153132 5.27789852 35.728054 5.27789852 37.375875 0"></polygon>
                    <path d="M17.5786003,40.8185861 C13.8650034,48.8515376 9.30283771,60.3456481 11.0719212,71.4609302 L11.1143003,71.8546731 C11.1221848,71.9600689 11.3597052,75.1249265 13.1494855,75.1249265 L38.9081293,75.1249265 C40.6949529,75.1249265 40.9423289,71.8924565 40.9433145,71.8546731 L40.9876648,71.4609302 C42.7557627,60.3446538 38.1945826,48.8515376 34.4790145,40.8185861 L17.5786003,40.8185861 Z" id="Path" stroke="#FFFFFF" stroke-width="4.74068191" stroke-linecap="round" stroke-linejoin="round"></path>
                    <path d="M40.7072495,30.8814337 C40.2099438,29.8797171 39.7487064,28.9509873 39.339932,28.1100531 C35.9484161,21.0969795 35.6423818,18.3509857 35.6150573,17.9617231 L35.1814018,11.7901443 L30.9471987,11.7901443 L31.4114576,17.7194917 C31.3742963,18.2409767 31.3950629,21.290553 35.5308979,29.8342326 C35.9451372,30.6942068 36.4118395,31.6313989 36.9167961,32.6415776 C41.812252,42.4820941 50.0095993,58.9485371 47.3219624,75.1410153 C47.3099396,75.2087132 47.3033817,75.2806421 47.3001028,75.3515133 C47.285894,75.6106691 46.9066301,81.6103906 42.2221193,81.6103906 L9.83603931,81.6103906 C5.19743367,81.6103906 4.77445055,75.6043225 4.75805585,75.3515133 C4.75586989,75.2806421 4.74712605,75.2087132 4.73510328,75.1410153 C2.0485593,58.9485371 10.2448137,42.4820941 15.1424555,32.6415776 C15.6452261,31.6313989 16.1141144,30.693149 16.5272607,29.8342326 C20.6620027,21.290553 20.6849553,18.2409767 20.6368642,17.6348694 L21.11096,11.7901443 L16.8800357,11.7901443 L16.4452873,17.9617231 C16.4168698,18.3509857 16.1108355,21.0969795 12.7193196,28.1100531 C12.3105452,28.9509873 11.8504008,29.8797171 11.3530951,30.8740292 C6.25215903,41.1291949 -2.27964012,58.2715586 0.567571872,75.6773092 C0.796004619,79.2050016 3.00600947,85.6807236 9.83603931,85.6807236 L42.2221193,85.6807236 C49.0543351,85.6807236 51.262154,79.2050016 51.4916797,75.6773092 C54.3388917,58.2715586 45.8070926,41.1291949 40.7072495,30.8814337 Z" id="Path" fill="#FFFFFF"></path>
                </g>
                <g id="new-rice-bowl-copy-2" transform="translate(96.341826, 11.525355)">
                    <g id="Group-3" transform="translate(0.000000, 31.318458)" stroke="#FFFFFF" stroke-width="3.91314">
                        <path d="M31.5573334,0.74046337 L64.3645868,0.74046337 C63.232647,8.19791063 61.3863666,13.8818875 58.8257456,17.7923939 C56.2651246,21.7029003 52.8042631,25.0519331 48.4431611,27.8394924 L48.4431611,31.9546348 C48.4431611,33.8422088 47.522162,35.6110488 45.97576,36.6934426 L44.5188485,37.7131981 C43.8611381,38.1735581 43.0777483,38.4204837 42.2749319,38.4204837 L33.318939,38.4204837" id="Path-13"></path>
                        <path d="M2.31945754,0.74216262 L33.3651052,0.74208925 C32.2331654,8.19953651 30.386885,13.8835133 27.8262641,17.7940198 C25.2656431,21.7045262 21.8047816,25.053559 17.4436796,27.8411182 L17.4436796,31.9562607 C17.4436796,33.8438347 16.5226804,35.6126747 14.9762785,36.6950685 L13.519367,37.714824 C12.8616566,38.175184 12.0782668,38.4221095 11.2754504,38.4221095 L0.607065,38.4221095" id="Path-13" transform="translate(16.986085, 19.582099) scale(-1, 1) translate(-16.986085, -19.582099) "></path>
                    </g>
                    <path d="M51.3515465,0.77594751 L35.3715915,19.8184581" id="Path-14" stroke="#FFFFFF" stroke-width="3.91314" stroke-linecap="round"></path>
                    <path d="M64.2092812,10.1596836 L51.1477229,19.7574091" id="Path-15" stroke="#FFFFFF" stroke-width="3.91314" stroke-linecap="round"></path>
                    <g id="Group-2" transform="translate(0.957490, 4.872211)" fill="#FFFFFF">
                        <ellipse id="Oval" cx="28.3836032" cy="2.93610548" rx="2.93623482" ry="2.93610548"></ellipse>
                        <ellipse id="Oval-Copy" cx="18.5961538" cy="14.6805274" rx="2.93623482" ry="2.93610548"></ellipse>
                        <ellipse id="Oval-Copy-2" cx="12.7236842" cy="2.93610548" rx="2.93623482" ry="2.93610548"></ellipse>
                        <ellipse id="Oval-Copy-3" cx="2.93623482" cy="14.6805274" rx="2.93623482" ry="2.93610548"></ellipse>
                    </g>
                </g>
            </g>
            <g id="Group-9" transform="translate(2.000000, 379.000000)">
                <g id="Group-3-Copy-3" transform="translate(0.000000, 8.000000)" stroke="#FFFFFF">
                    <g id="noun_Sushi_1898168" transform="translate(10.182169, 7.216764)" fill="#FFFFFF" fill-rule="nonzero" stroke-width="0.9978507">
                        <path d="M24.8965065,0.0661811954 C24.512571,0.0778946473 16.1504451,0.400601112 10.8196722,6.30068194 C9.54028662,3.71844489 6.74492524,-0.348476035 1.98915692,0.0702809515 C1.36683413,0.125334272 0.886465552,0.629599721 0.873288345,1.24045775 C0.869095564,1.46008557 0.805605474,6.02248674 3.22481809,8.68261844 C0.806204461,11.3433358 0.869095564,15.9051514 0.873288345,16.1247791 C0.886465552,16.7356372 1.36683413,17.2399026 1.98915692,17.2949559 C2.22035678,17.3154545 2.44616589,17.3248253 2.6683812,17.3248253 C7.01625546,17.3248253 9.60257873,13.520872 10.8190731,11.0639691 C16.150445,16.9646357 24.5155657,17.2873421 24.9306472,17.2996413 C24.9516109,17.2996413 24.9725747,17.2996413 24.9941373,17.2996413 C35.6041724,17.2996413 38.3007049,9.11777409 38.3270593,9.03519411 C38.4073204,8.77866884 38.397737,8.50281631 38.299507,8.25214788 C34.6530189,-1.02317259 24.8833293,0.0650098022 24.8965065,0.0661811954 Z M3.38713723,14.8620659 C3.56143548,13.1712247 4.15321121,10.6879665 5.74825038,9.69407758 C6.10223764,9.47386406 6.31606752,9.09259034 6.31606752,8.68261844 C6.31606752,8.27264655 6.10163866,7.8913727 5.74825038,7.6711593 C4.15321121,6.67727034 3.5614356,4.19401217 3.38713723,2.50317101 C6.80362356,3.07420323 8.70113914,7.39823513 9.19288808,8.68261844 C8.70054015,9.96758746 6.80422254,14.2916193 3.38713723,14.8620659 Z M11.996036,8.68261844 C15.0762045,4.70428068 19.8943398,3.26659719 22.7461536,2.74754359 C21.6236216,5.19053671 20.347755,9.68236413 22.718751,14.6215734 C19.9056452,14.1116709 15.0883335,12.6806494 11.996036,8.68261844 Z M25.6444618,14.8768541 C21.9477356,8.99500235 24.9569269,3.55972711 25.6785279,2.42051787 C27.5302228,2.36561088 33.2362462,2.70222713 35.8383672,8.70018874 C35.2534047,10.0678109 32.7581987,14.6202557 25.6444618,14.8768541 Z" id="Shape"></path>
                        <path d="M24.8965065,23.3927179 C24.512571,23.4044313 16.1504451,23.7271378 10.8196722,29.6272186 C9.54028662,27.0449816 6.74492524,22.9763036 1.98915692,23.3968177 C1.36683413,23.451871 0.886465552,23.9561364 0.873288345,24.5669945 C0.869095564,24.7866223 0.806204461,29.3484377 3.22481809,32.0091551 C0.805605474,34.6692868 0.869095564,39.2316881 0.873288345,39.4513158 C0.886465552,40.0621739 1.36683413,40.5664393 1.98915692,40.6214926 C2.22035678,40.6419912 2.44616589,40.651362 2.6683812,40.651362 C7.01625546,40.651362 9.60257873,36.8474087 10.8190731,34.3905058 C16.150445,40.2911724 24.5155657,40.6138788 24.9306472,40.626178 C24.9522099,40.626178 24.9713767,40.626178 24.9929394,40.626178 C35.6029744,40.626178 38.3007049,32.4443108 38.3270593,32.3617308 C38.4073204,32.1052055 38.397737,31.829353 38.299507,31.5786846 C34.6536179,22.3033641 24.8809335,23.3897895 24.8965065,23.3927179 Z M3.38414242,38.1891883 C3.554847,36.5012755 4.14422678,34.0197744 5.74825038,33.0206144 C6.10163866,32.8004009 6.31606752,32.4191272 6.31606752,32.0091553 C6.31606752,31.5991834 6.10223764,31.2179095 5.74825038,30.9976961 C4.15321121,30.0038072 3.5614356,27.520549 3.38713723,25.8297078 C6.80362356,26.4007401 8.70113914,30.7247719 9.19288808,32.0091553 C8.70054015,33.2947099 6.80302457,37.6210844 3.38414242,38.1891883 Z M11.996036,32.0091551 C15.0756805,28.0314764 19.8929173,26.5935733 22.7460787,26.0742267 C21.6236216,28.5172199 20.347755,33.0087545 22.7187511,37.9481101 C19.9055704,37.4382809 15.0883335,36.0072594 11.996036,32.0091551 Z M25.6444618,38.2033177 C21.9516288,32.3269567 24.9511619,26.8970256 25.6762069,25.7508614 C27.5112056,25.7093518 33.251894,26.0745195 35.8383672,32.0267254 C35.2528807,33.3948601 32.7583485,37.94628 25.6444618,38.2033177 Z" id="Shape"></path>
                        <path d="M24.8965065,46.7186689 C24.512571,46.7303824 16.1504451,47.0530888 10.8196722,52.9531697 C9.54028662,50.3709326 6.74492524,46.3010833 1.98915692,46.7227687 C1.36683413,46.777822 0.886465552,47.2820874 0.873288345,47.8929455 C0.869095564,48.1125733 0.805605474,52.6743888 3.22481809,55.3351061 C0.805605474,57.9958235 0.869095564,62.5576391 0.873288345,62.7772668 C0.886465552,63.3881249 1.36683413,63.8923903 1.98915692,63.9474436 C2.22035678,63.9679422 2.44616589,63.977313 2.6683812,63.977313 C7.01625546,63.977313 9.60257873,60.1733597 10.8190731,57.7164568 C16.150445,63.6171234 24.5155657,63.9398298 24.9306472,63.952129 C24.9522099,63.952129 24.9713767,63.952129 24.9929394,63.952129 C35.6029744,63.952129 38.3007049,55.7702618 38.3270593,55.6876818 C38.4073204,55.4311566 38.397737,55.155304 38.299507,54.9046356 C34.6536179,45.6293151 24.8809335,46.7157405 24.8965065,46.7186689 Z M3.38713723,61.5145537 C3.56143548,59.8237125 4.15321121,57.3404544 5.74825038,56.3465654 C6.10223764,56.1263519 6.31606752,55.7450782 6.31606752,55.3351063 C6.31606752,54.9251344 6.10223764,54.5438605 5.74825038,54.3236471 C4.15321121,53.3297582 3.5614356,50.8465 3.38713723,49.1556588 C6.80362356,49.7266911 8.70113914,54.050723 9.19288808,55.3351063 C8.70054015,56.6200753 6.80422254,60.9441071 3.38713723,61.5145537 Z M11.996036,55.3351063 C15.0756805,51.3574275 19.8929173,49.9195244 22.7460787,49.4001779 C21.6236216,51.843171 20.347755,56.3347056 22.7187511,61.2740613 C19.9055704,60.7642319 15.0883335,59.3332104 11.996036,55.3351063 Z M25.6444618,61.5292687 C21.9512544,55.652322 24.9517608,50.2218785 25.6764315,49.0764465 C27.511655,49.0347904 33.251969,49.4012028 35.8383672,55.3526764 C35.2528807,56.7208111 32.7583485,61.272231 25.6444618,61.5292687 Z" id="Shape"></path>
                    </g>
                    <rect id="Rectangle" stroke-width="4.76576488" x="0.38288244" y="0.38288244" width="57.4986545" height="79.3872969" rx="9.53152976"></rect>
                </g>
                <g id="noun_Bento-tray_1468440-Copy-2" transform="translate(195.000000, 19.000000)" fill="#FFFFFF" fill-rule="nonzero">
                    <path d="M0,0 L0,1.87423831 L0,58.1013876 L0,59.9756259 L1.88936766,59.9756259 L43.0921163,59.9756259 L42.1474325,76.7266307 L45.9261678,76.9609105 L46.8708516,59.9756259 L54.4283223,59.9756259 L55.3730061,76.9609105 L59.1517414,76.7266307 L58.2070576,59.9756259 L66.1278682,59.9756259 L68.0172359,59.9756259 L68.0172359,58.1013876 L68.0172359,1.87423831 L68.0172359,0 L66.1278682,0 L1.88936766,0 L0,0 Z M3.77873533,5.03115846 L13.806918,5.03115846 L13.806918,14.9939061 L3.77873533,14.9939061 L3.77873533,5.03115846 Z M17.5856529,5.03115846 L64.238501,5.03115846 L64.238501,14.9939061 L17.5856529,14.9939061 L17.5856529,5.03115846 Z M3.77873533,18.7423831 L13.806918,18.7423831 L13.806918,54.944467 L3.77873533,54.944467 L3.77873533,18.7423831 Z M17.5856523,18.7423831 L64.2384999,18.7423831 L64.2384999,54.944467 L58.0004074,54.944467 L56.3176894,25.8696684 L52.538954,26.0959314 L54.2216721,54.944467 L47.0775006,54.944467 L48.7602187,26.0959314 L44.9814834,25.8696684 L43.2987653,54.944467 L17.5856523,54.944467 L17.5856523,18.7423831 Z" id="Shape"></path>
                </g>
                <g id="noun_Sushi_1186942-Copy-2" transform="translate(384.000000, 0.000000)" fill="#FFFFFF">
                    <g id="Group">
                        <path d="M83.0050065,18.1381333 C83.985549,17.5706731 84.3127819,16.3213454 83.7392571,15.3546037 C83.1645759,14.3844298 81.9099902,14.0595131 80.9282914,14.6269733 L37.8052335,39.5860698 L66.8607437,4.22963787 C67.5788061,3.3555661 67.4458316,2.07649249 66.5635746,1.36831131 C65.6836302,0.657841974 64.3874177,0.791698515 63.6728242,1.66348214 L27.7014828,45.4311388 L1.56216151,60.559216 C0.582775277,61.1266762 0.254386034,62.3725717 0.824442009,63.3404575 C1.20948996,63.9868587 1.89633225,64.3483858 2.60167534,64.3483858 C2.95665949,64.3483858 3.31048734,64.2591481 3.63772028,64.0715201 L20.31735,54.4189762 L9.35909344,67.7485707 C8.64334364,68.6203544 8.77516186,69.900572 9.65510627,70.6076092 C10.0378416,70.9176529 10.4957365,71.0652384 10.9490061,71.0652384 C11.5468133,71.0652384 12.1399953,70.8078219 12.5458567,70.3158705 L30.4176318,48.5716191 L83.0050065,18.1381333 Z" id="Path"></path>
                        <path d="M47.6603797,58.6085716 C40.5942295,58.6085716 34.8451051,64.2980466 34.8451051,71.2929089 C34.8451051,78.2831949 40.5942295,83.973814 47.6603797,83.973814 C54.7311551,83.973814 60.4814358,78.2831949 60.4814358,71.2929089 C60.4814358,64.2969025 54.7311551,58.6085716 47.6603797,58.6085716 Z M47.6603797,79.9032023 C42.8640467,79.9032023 38.9569084,76.0419559 38.9569084,71.2929089 C38.9569084,66.5415737 42.8640467,62.6780392 47.6603797,62.6780392 C52.4636505,62.6780392 56.3696324,66.5415737 56.3696324,71.2929089 C56.3696324,76.0419559 52.4636505,79.9032023 47.6603797,79.9032023 Z" id="Shape" fill-rule="nonzero"></path>
                        <path d="M56.3696324,49.9937019 C56.3696324,56.9885642 62.1164442,62.6768951 69.1837507,62.6768951 C76.2556825,62.6768951 82.0048068,56.9885642 82.0048068,49.9937019 C82.0048068,43.0022718 76.2556825,37.3139408 69.1837507,37.3139408 C62.1164442,37.3139408 56.3696324,43.0022718 56.3696324,49.9937019 Z M77.8918472,49.9937019 C77.8918472,54.743893 73.9870216,58.6074275 69.1837507,58.6074275 C64.388574,58.6074275 60.4814358,54.743893 60.4814358,49.9937019 C60.4814358,45.2480871 64.388574,41.3822644 69.1837507,41.3822644 C73.9870216,41.3822644 77.8918472,45.2480871 77.8918472,49.9937019 Z" id="Shape" fill-rule="nonzero"></path>
                        <path d="M65.598064,49.9937019 C65.598064,51.9580752 67.200696,53.5449045 69.1837507,53.5449045 C71.1714307,53.5449045 72.7740627,51.9580752 72.7740627,49.9937019 C72.7740627,48.0350489 71.1702744,46.4482197 69.1837507,46.4482197 C67.200696,46.4482197 65.598064,48.0350489 65.598064,49.9937019 Z" id="Path"></path>
                        <path d="M47.6603797,67.7428504 C45.6819501,67.7428504 44.0758492,69.3285355 44.0758492,71.2929089 C44.0758492,73.2515619 45.6807938,74.8418233 47.6603797,74.8418233 C49.6445908,74.8418233 51.251848,73.2515619 51.251848,71.2929089 C51.251848,69.3285355 49.6445908,67.7428504 47.6603797,67.7428504 Z" id="Path"></path>
                        <path d="M77.6256561,76.4772641 C77.2801778,76.4877519 69.7556503,76.7766907 64.9588381,82.059393 C63.8076031,79.7473586 61.2922412,76.1033743 57.0128378,76.4809349 C56.4528504,76.5302275 56.0205983,76.9817271 56.008741,77.5286656 C56.0049682,77.7253118 55.9478377,81.8097834 58.1247281,84.192086 C55.9478377,86.5743886 56.0049682,90.6588603 56.008741,90.8555064 C56.0205983,91.4024449 56.4528504,91.8539445 57.0128378,91.9032371 C57.2208794,91.9215907 57.4240702,91.9299809 57.6240271,91.9299809 C61.5363934,91.9299809 63.8636557,88.5240696 64.958299,86.3242545 C69.7556502,91.6074812 77.2828725,91.89642 77.6563771,91.9074321 C77.6757799,91.9074321 77.6930269,91.9074321 77.7124297,91.9074321 C87.2597029,91.9074321 89.6872132,84.5817074 89.7109278,84.5077685 C89.7831495,84.2780858 89.774526,84.0310982 89.6861354,83.8066594 C86.4054394,75.5018992 77.611643,76.4746422 77.6256561,76.4772641 Z M58.2707884,89.7249223 C58.427628,88.2110091 58.960128,85.9875966 60.395399,85.0977072 C60.7139288,84.9005366 60.9063403,84.5591589 60.9063403,84.1920861 C60.9063403,83.8250133 60.7139288,83.4836355 60.395399,83.286465 C58.960128,82.3965756 58.4276281,80.1731631 58.2707884,78.6592499 C61.3450599,79.1705299 63.0525095,83.0420994 63.495002,84.1920861 C63.0519705,85.3425972 61.3455989,89.2141666 58.2707884,89.7249223 Z M66.0173706,84.1920861 C68.7885403,80.6306277 73.1232551,79.3431853 75.6906275,78.8781827 C74.6806021,81.0655434 73.5325336,85.0870884 75.6660372,89.5095948 C73.1346407,89.0531134 68.7999259,87.7718326 66.0173706,84.1920861 Z M78.298692,89.7380975 C74.9754173,84.4761087 77.6753758,79.6139014 78.3274594,78.5883262 C79.9788563,78.551029 85.1441876,78.8791004 87.4715174,84.2078178 C86.9446765,85.4327922 84.700011,89.507956 78.298692,89.7380975 Z" id="Shape" stroke="#FFFFFF" stroke-width="1.25414865" fill-rule="nonzero" transform="translate(72.883681, 84.185487) rotate(-53.000000) translate(-72.883681, -84.185487) "></path>
                    </g>
                </g>
                <g id="noun_Sauce_129416-Copy-2" transform="translate(297.500000, 4.000000)">
                    <polygon id="Path-Copy-2" fill="#FFFFFF" points="14.7244338 0 16.3776367 5.27019175 22.6054241 5.27019175 29.5978371 5.27019175 35.8279486 5.27019175 37.4803768 0"></polygon>
                    <path d="M17.6277496,40.7589829 C13.9037695,48.7802047 9.32884817,60.2575315 11.1028779,71.3565831 L11.1453756,71.7497511 C11.1532821,71.854993 11.3914666,75.0152293 13.1862511,75.0152293 L39.0169153,75.0152293 C40.8087348,75.0152293 41.0568025,71.7874793 41.0577908,71.7497511 L41.1022651,71.3565831 C42.8753066,60.2565387 38.3013735,48.7802047 34.5754168,40.7589829 L17.6277496,40.7589829 Z" id="Path" stroke="#FFFFFF" stroke-width="4.74068191" stroke-linecap="round" stroke-linejoin="round"></path>
                    <path d="M40.8210658,30.8363407 C40.3223696,29.8360868 39.8598426,28.9087131 39.4499253,28.0690069 C36.0489268,21.0661738 35.7420369,18.3241896 35.714636,17.9354954 L35.279768,11.7729283 L31.0337261,11.7729283 L31.4992831,17.6936178 C31.4620179,18.2143413 31.4828426,21.2594646 35.6302413,29.7906687 C36.0456387,30.6493872 36.5136459,31.5852108 37.0200144,32.5939145 C41.9291578,42.4200618 50.1494247,58.8624605 47.4542732,75.0312946 C47.4422168,75.0988936 47.4356406,75.1707175 47.4323525,75.2414852 C47.418104,75.5002626 47.0377797,81.4912233 42.3401711,81.4912233 L9.86354058,81.4912233 C5.21196554,81.4912233 4.78779977,75.4939252 4.77135924,75.2414852 C4.76916716,75.1707175 4.76039888,75.0988936 4.74834249,75.0312946 C2.05428701,58.8624605 10.2734579,42.4200618 15.1847934,32.5939145 C15.6889697,31.5852108 16.159169,30.648331 16.5734705,29.7906687 C20.7197731,21.2594646 20.7427898,18.2143413 20.6945643,17.609119 L21.1699856,11.7729283 L16.9272318,11.7729283 L16.4912678,17.9354954 C16.4627709,18.3241896 16.1558809,21.0661738 12.7548825,28.0690069 C12.3449652,28.9087131 11.8835342,29.8360868 11.384838,30.828947 C6.26963989,41.0691382 -2.28601392,58.1864706 0.569158786,75.5668054 C0.798230224,79.0893466 3.01441419,85.5556128 9.86354058,85.5556128 L42.3401711,85.5556128 C49.1914896,85.5556128 51.4054815,79.0893466 51.635649,75.5668054 C54.4908217,58.1864706 45.9351679,41.0691382 40.8210658,30.8363407 Z" id="Path" fill="#FFFFFF"></path>
                </g>
                <g id="Group-5" transform="translate(95.500000, 12.000000)">
                    <g id="Group-3" transform="translate(0.000000, 31.000000)" stroke="#FFFFFF" stroke-width="3.91314">
                        <path d="M31.7751877,0.73599734 L64.8019677,0.73599734 C63.6624536,8.17430878 61.803819,13.8437005 59.2260639,17.7441726 C56.6483088,21.6446446 53.1642892,24.9850838 48.7740053,27.7654902 L48.7740053,31.8513317 C48.7740053,33.7446725 47.8459103,35.517752 46.2900938,36.5967212 L44.8120735,37.6217383 C44.1571282,38.0759473 43.3791009,38.3193307 42.5820695,38.3193307 L33.548581,38.3193307" id="Path-13"></path>
                        <path d="M2.34166895,0.73769223 L33.5950557,0.73761905 C32.4555416,8.17593049 30.596907,13.8453222 28.0191519,17.7457943 C25.4413968,21.6462663 21.9573772,24.9867056 17.5670933,27.7671119 L17.5670933,31.8529534 C17.5670933,33.7462943 16.6389983,35.5193737 15.0831818,36.5983429 L13.6051615,37.62336 C12.9502162,38.077569 12.1721889,38.3209524 11.3751575,38.3209524 L0.6178181,38.3209524" id="Path-13" transform="translate(17.106437, 19.529286) scale(-1, 1) translate(-17.106437, -19.529286) "></path>
                    </g>
                    <path d="M51,0 L35,19" id="Path-14" stroke="#FFFFFF" stroke-width="3.91314" stroke-linecap="round"></path>
                    <path d="M64,9 L51,19" id="Path-15" stroke="#FFFFFF" stroke-width="3.91314" stroke-linecap="round"></path>
                    <g id="Group-2" transform="translate(1.000000, 4.000000)" fill="#FFFFFF">
                        <ellipse id="Oval" cx="28.09375" cy="3" rx="2.90625" ry="3"></ellipse>
                        <ellipse id="Oval-Copy" cx="18.40625" cy="15" rx="2.90625" ry="3"></ellipse>
                        <ellipse id="Oval-Copy-2" cx="12.59375" cy="3" rx="2.90625" ry="3"></ellipse>
                        <ellipse id="Oval-Copy-3" cx="2.90625" cy="15" rx="2.90625" ry="3"></ellipse>
                    </g>
                </g>
            </g>
            <g id="Group-8" transform="translate(1.000000, 0.000000)">
                <g id="noun_Sushi_1186942-Copy-2" fill="#FFFFFF">
                    <g id="Group">
                        <path d="M82.9858517,18.1381333 C83.9661679,17.5706731 84.2933253,16.3213454 83.7199328,15.3546037 C83.1453842,14.3844298 81.8910881,14.0595131 80.9096158,14.6269733 L37.7965093,39.5860698 L66.8453145,4.22963787 C67.5632112,3.3555661 67.4302673,2.07649249 66.5482139,1.36831131 C65.6684726,0.657841974 64.3725592,0.791698515 63.6581306,1.66348214 L27.6950902,45.4311388 L1.56180101,60.559216 C0.582640792,61.1266762 0.25432733,62.3725717 0.824251755,63.3404575 C1.20921085,63.9868587 1.89589464,64.3483858 2.60107496,64.3483858 C2.95597719,64.3483858 3.30972339,64.2591481 3.63688081,64.0715201 L20.3126614,54.4189762 L9.35693367,67.7485707 C8.64134904,68.6203544 8.77313684,69.900572 9.6528782,70.6076092 C10.0355252,70.9176529 10.4933144,71.0652384 10.9464795,71.0652384 C11.5441487,71.0652384 12.1371938,70.8078219 12.5429615,70.3158705 L30.4106124,48.5716191 L82.9858517,18.1381333 Z" id="Path"></path>
                        <path d="M47.6493813,58.6085716 C40.5848617,58.6085716 34.837064,64.2980466 34.837064,71.2929089 C34.837064,78.2831949 40.5848617,83.973814 47.6493813,83.973814 C54.718525,83.973814 60.4674787,78.2831949 60.4674787,71.2929089 C60.4674787,64.2969025 54.718525,58.6085716 47.6493813,58.6085716 Z M47.6493813,79.9032023 C42.8541551,79.9032023 38.9479185,76.0419559 38.9479185,71.2929089 C38.9479185,66.5415737 42.8541551,62.6780392 47.6493813,62.6780392 C52.4515437,62.6780392 56.3566242,66.5415737 56.3566242,71.2929089 C56.3566242,76.0419559 52.4515437,79.9032023 47.6493813,79.9032023 Z" id="Shape" fill-rule="nonzero"></path>
                        <path d="M56.3566242,49.9937019 C56.3566242,56.9885642 62.1021098,62.6768951 69.1677854,62.6768951 C76.2380852,62.6768951 81.9858828,56.9885642 81.9858828,49.9937019 C81.9858828,43.0022718 76.2380852,37.3139408 69.1677854,37.3139408 C62.1021098,37.3139408 56.3566242,43.0022718 56.3566242,49.9937019 Z M77.8738723,49.9937019 C77.8738723,54.743893 73.9699478,58.6074275 69.1677854,58.6074275 C64.3737152,58.6074275 60.4674787,54.743893 60.4674787,49.9937019 C60.4674787,45.2480871 64.3737152,41.3822644 69.1677854,41.3822644 C73.9699478,41.3822644 77.8738723,45.2480871 77.8738723,49.9937019 Z" id="Shape" fill-rule="nonzero"></path>
                        <path d="M65.5829261,49.9937019 C65.5829261,51.9580752 67.1851883,53.5449045 69.1677854,53.5449045 C71.1550067,53.5449045 72.7572689,51.9580752 72.7572689,49.9937019 C72.7572689,48.0350489 71.1538507,46.4482197 69.1677854,46.4482197 C67.1851883,46.4482197 65.5829261,48.0350489 65.5829261,49.9937019 Z" id="Path"></path>
                        <path d="M47.6493813,67.7428504 C45.6714082,67.7428504 44.065678,69.3285355 44.065678,71.2929089 C44.065678,73.2515619 45.6702522,74.8418233 47.6493813,74.8418233 C49.6331344,74.8418233 51.2400207,73.2515619 51.2400207,71.2929089 C51.2400207,69.3285355 49.6331344,67.7428504 47.6493813,67.7428504 Z" id="Path"></path>
                        <path d="M77.6077427,76.4772642 C77.2623441,76.487752 69.739553,76.7766908 64.9438478,82.0593931 C63.7928785,79.7473587 61.2780969,76.1033744 56.9996812,76.480935 C56.439823,76.5302276 56.0076706,76.9817272 55.9958161,77.5286657 C55.9920441,77.7253119 55.9349268,81.8097835 58.1113148,84.1920861 C55.9349268,86.5743887 55.9920441,90.6588604 55.9958161,90.8555065 C56.0076706,91.402445 56.439823,91.8539446 56.9996812,91.9032372 C57.2076747,91.9215908 57.4108186,91.929981 57.6107294,91.929981 C61.5221928,91.929981 63.8489181,88.5240697 64.9433088,86.3242546 C69.7395529,91.6074813 77.2650382,91.8964201 77.6384566,91.9074322 C77.6578549,91.9074322 77.6750979,91.9074322 77.6944962,91.9074322 C87.2395663,91.9074322 89.6665164,84.5817075 89.6902255,84.5077686 C89.7624305,84.2780859 89.7538091,84.0310983 89.6654388,83.8066595 C86.3854999,75.5018993 77.5937328,76.4746423 77.6077427,76.4772642 Z M58.2573415,89.7249224 C58.4141448,88.2110092 58.946522,85.9875967 60.3814617,85.0977073 C60.6999181,84.9005367 60.8922851,84.559159 60.8922851,84.1920862 C60.8922851,83.8250134 60.6999181,83.4836356 60.3814617,83.2864651 C58.946522,82.3965757 58.4141449,80.1731632 58.2573415,78.65925 C61.3309035,79.17053 63.037959,83.0420995 63.4803495,84.1920862 C63.0374202,85.3425973 61.3314424,89.2141667 58.2573415,89.7249224 Z M66.002136,84.1920862 C68.7726662,80.6306278 73.1063807,79.3431854 75.6731606,78.8781828 C74.6633683,81.0655435 73.5155647,85.0870885 75.6485759,89.5095949 C73.1177637,89.0531135 68.7840492,87.7718327 66.002136,84.1920862 Z M78.2806232,89.7380976 C74.9581155,84.4761088 77.6574509,79.6139015 78.309384,78.5883263 C79.9603999,78.5510291 85.1245392,78.8791005 87.4513319,84.2078179 C86.9246126,85.4327923 84.6804651,89.5079561 78.2806232,89.7380976 Z" id="Shape" stroke="#FFFFFF" stroke-width="1.25414865" fill-rule="nonzero" transform="translate(72.866862, 84.185487) rotate(-53.000000) translate(-72.866862, -84.185487) "></path>
                    </g>
                </g>
                <g id="Group-3-Copy-3" transform="translate(124.500000, 9.000000)" stroke="#FFFFFF">
                    <g id="noun_Sushi_1898168" transform="translate(10.179358, 7.216764)" fill="#FFFFFF" fill-rule="nonzero" stroke-width="0.9978507">
                        <path d="M24.8907612,0.0661811954 C24.5069143,0.0778946473 16.1467181,0.400601112 10.8171754,6.30068194 C9.53808504,3.71844489 6.74336873,-0.348476035 1.98869789,0.0702809515 C1.36651871,0.125334272 0.886260985,0.629599721 0.873086819,1.24045775 C0.868895005,1.46008557 0.805419567,6.02248674 3.22407391,8.68261844 C0.806018415,11.3433358 0.868895005,15.9051514 0.873086819,16.1247791 C0.886260985,16.7356372 1.36651871,17.2399026 1.98869789,17.2949559 C2.2198444,17.3154545 2.4456014,17.3248253 2.66776543,17.3248253 C7.01463634,17.3248253 9.60036278,13.520872 10.8165764,11.0639691 C16.146718,16.9646357 24.5099083,17.2873421 24.9248941,17.2996413 C24.9458529,17.2996413 24.9668118,17.2996413 24.9883695,17.2996413 C35.5959562,17.2996413 38.2918663,9.11777409 38.3182147,9.03519411 C38.3984572,8.77866884 38.388876,8.50281631 38.2906688,8.25214788 C34.6450222,-1.02317259 24.877587,0.0650098022 24.8907612,0.0661811954 Z M3.38635559,14.8620659 C3.56061362,13.1712247 4.15225278,10.6879665 5.74692388,9.69407758 C6.10082945,9.47386406 6.31460998,9.09259034 6.31460998,8.68261844 C6.31460998,8.27264655 6.1002306,7.8913727 5.74692388,7.6711593 C4.15225278,6.67727034 3.56061374,4.19401217 3.38635559,2.50317101 C6.80205351,3.07420323 8.69913121,7.39823513 9.19076667,8.68261844 C8.69853236,9.96758746 6.80265235,14.2916193 3.38635559,14.8620659 Z M11.9932678,8.68261844 C15.0727254,4.70428068 19.8897488,3.26659719 22.7409045,2.74754359 C21.6186315,5.19053671 20.3430594,9.68236413 22.7135082,14.6215734 C19.9010516,14.1116709 15.0848517,12.6806494 11.9932678,8.68261844 Z M25.6385439,14.8768541 C21.9426708,8.99500235 24.9511677,3.55972711 25.6726021,2.42051787 C27.5238697,2.36561088 33.2285764,2.70222713 35.8300969,8.70018874 C35.2452694,10.0678109 32.7506392,14.6202557 25.6385439,14.8768541 Z" id="Shape"></path>
                        <path d="M24.8907612,23.3927179 C24.5069143,23.4044313 16.1467181,23.7271378 10.8171754,29.6272186 C9.53808504,27.0449816 6.74336873,22.9763036 1.98869789,23.3968177 C1.36651871,23.451871 0.886260985,23.9561364 0.873086819,24.5669945 C0.868895005,24.7866223 0.806018415,29.3484377 3.22407391,32.0091551 C0.805419567,34.6692868 0.868895005,39.2316881 0.873086819,39.4513158 C0.886260985,40.0621739 1.36651871,40.5664393 1.98869789,40.6214926 C2.2198444,40.6419912 2.4456014,40.651362 2.66776543,40.651362 C7.01463634,40.651362 9.60036278,36.8474087 10.8165764,34.3905058 C16.146718,40.2911724 24.5099083,40.6138788 24.9248941,40.626178 C24.9464517,40.626178 24.9656141,40.626178 24.9871718,40.626178 C35.5947585,40.626178 38.2918663,32.4443108 38.3182147,32.3617308 C38.3984572,32.1052055 38.388876,31.829353 38.2906688,31.5786846 C34.645621,22.3033641 24.8751918,23.3897895 24.8907612,23.3927179 Z M3.38336147,38.1891883 C3.55402666,36.5012755 4.14327043,34.0197744 5.74692388,33.0206144 C6.1002306,32.8004009 6.31460998,32.4191272 6.31460998,32.0091553 C6.31460998,31.5991834 6.10082945,31.2179095 5.74692388,30.9976961 C4.15225278,30.0038072 3.56061374,27.520549 3.38635559,25.8297078 C6.80205351,26.4007401 8.69913121,30.7247719 9.19076667,32.0091553 C8.69853236,33.2947099 6.80145466,37.6210844 3.38336147,38.1891883 Z M11.9932678,32.0091551 C15.0722015,28.0314764 19.8883267,26.5935733 22.7408297,26.0742267 C21.6186315,28.5172199 20.3430594,33.0087545 22.7135084,37.9481101 C19.9009768,37.4382809 15.0848517,36.0072594 11.9932678,32.0091551 Z M25.6385439,38.2033177 C21.9465631,32.3269567 24.945404,26.8970256 25.6702817,25.7508614 C27.5048569,25.7093518 33.2442206,26.0745195 35.8300969,32.0267254 C35.2447455,33.3948601 32.750789,37.94628 25.6385439,38.2033177 Z" id="Shape"></path>
                        <path d="M24.8907612,46.7186689 C24.5069143,46.7303824 16.1467181,47.0530888 10.8171754,52.9531697 C9.53808504,50.3709326 6.74336873,46.3010833 1.98869789,46.7227687 C1.36651871,46.777822 0.886260985,47.2820874 0.873086819,47.8929455 C0.868895005,48.1125733 0.805419567,52.6743888 3.22407391,55.3351061 C0.805419567,57.9958235 0.868895005,62.5576391 0.873086819,62.7772668 C0.886260985,63.3881249 1.36651871,63.8923903 1.98869789,63.9474436 C2.2198444,63.9679422 2.4456014,63.977313 2.66776543,63.977313 C7.01463634,63.977313 9.60036278,60.1733597 10.8165764,57.7164568 C16.146718,63.6171234 24.5099083,63.9398298 24.9248941,63.952129 C24.9464517,63.952129 24.9656141,63.952129 24.9871718,63.952129 C35.5947585,63.952129 38.2918663,55.7702618 38.3182147,55.6876818 C38.3984572,55.4311566 38.388876,55.155304 38.2906688,54.9046356 C34.645621,45.6293151 24.8751918,46.7157405 24.8907612,46.7186689 Z M3.38635559,61.5145537 C3.56061362,59.8237125 4.15225278,57.3404544 5.74692388,56.3465654 C6.10082945,56.1263519 6.31460998,55.7450782 6.31460998,55.3351063 C6.31460998,54.9251344 6.10082945,54.5438605 5.74692388,54.3236471 C4.15225278,53.3297582 3.56061374,50.8465 3.38635559,49.1556588 C6.80205351,49.7266911 8.69913121,54.050723 9.19076667,55.3351063 C8.69853236,56.6200753 6.80265235,60.9441071 3.38635559,61.5145537 Z M11.9932678,55.3351063 C15.0722015,51.3574275 19.8883267,49.9195244 22.7408297,49.4001779 C21.6186315,51.843171 20.3430594,56.3347056 22.7135084,61.2740613 C19.9009768,60.7642319 15.0848517,59.3332104 11.9932678,55.3351063 Z M25.6385439,61.5292687 C21.9461888,55.652322 24.9460028,50.2218785 25.6705062,49.0764465 C27.5053062,49.0347904 33.2442955,49.4012028 35.8300969,55.3526764 C35.2447455,56.7208111 32.750789,61.272231 25.6385439,61.5292687 Z" id="Shape"></path>
                    </g>
                    <rect id="Rectangle" stroke-width="4.76576488" x="0.38288244" y="0.38288244" width="57.4842859" height="79.3872969" rx="9.53152976"></rect>
                </g>
                <g id="noun_Bento-tray_1468440-Copy-2" transform="translate(317.500000, 18.000000)" fill="#FFFFFF" fill-rule="nonzero">
                    <path d="M0,0 L0,1.87423831 L0,58.1013876 L0,59.9756259 L1.88893166,59.9756259 L43.0821721,59.9756259 L42.1377062,76.7266307 L45.9155696,76.9609105 L46.8600354,59.9756259 L54.415762,59.9756259 L55.3602279,76.9609105 L59.1380912,76.7266307 L58.1936253,59.9756259 L66.1126081,59.9756259 L68.0015397,59.9756259 L68.0015397,58.1013876 L68.0015397,1.87423831 L68.0015397,0 L66.1126081,0 L1.88893166,0 L0,0 Z M3.77786332,5.03115846 L13.8037318,5.03115846 L13.8037318,14.9939061 L3.77786332,14.9939061 L3.77786332,5.03115846 Z M17.5815947,5.03115846 L64.2236768,5.03115846 L64.2236768,14.9939061 L17.5815947,14.9939061 L17.5815947,5.03115846 Z M3.77786332,18.7423831 L13.8037318,18.7423831 L13.8037318,54.944467 L3.77786332,54.944467 L3.77786332,18.7423831 Z M17.5815941,18.7423831 L64.2236758,18.7423831 L64.2236758,54.944467 L57.9870229,54.944467 L56.3046931,25.8696684 L52.5268298,26.0959314 L54.2091595,54.944467 L47.0666367,54.944467 L48.7489665,26.0959314 L44.9711031,25.8696684 L43.2887734,54.944467 L17.5815941,54.944467 L17.5815941,18.7423831 Z" id="Shape"></path>
                </g>
                <g id="noun_Sauce_129416-Copy-2" transform="translate(419.000000, 4.000000)">
                    <polygon id="Path-Copy-2" fill="#FFFFFF" points="14.7210358 0 16.3738573 5.27019175 22.6002075 5.27019175 29.5910069 5.27019175 35.8196807 5.27019175 37.4717276 0"></polygon>
                    <path d="M17.6236817,40.7589829 C13.900561,48.7802047 9.32669538,60.2575315 11.1003158,71.3565831 L11.1428036,71.7497511 C11.1507083,71.854993 11.3888379,75.0152293 13.1832081,75.0152293 L39.0079115,75.0152293 C40.7993175,75.0152293 41.047328,71.7874793 41.048316,71.7497511 L41.0927801,71.3565831 C42.8654124,60.2565387 38.2925348,48.7802047 34.567438,40.7589829 L17.6236817,40.7589829 Z" id="Path" stroke="#FFFFFF" stroke-width="4.74068191" stroke-linecap="round" stroke-linejoin="round"></path>
                    <path d="M40.8116457,30.8363407 C40.3130645,29.8360868 39.8506443,28.9087131 39.4408215,28.0690069 C36.040608,21.0661738 35.7337888,18.3241896 35.7063942,17.9354954 L35.2716266,11.7729283 L31.0265646,11.7729283 L31.4920141,17.6936178 C31.4547575,18.2143413 31.4755774,21.2594646 35.622019,29.7906687 C36.0373206,30.6493872 36.5052198,31.5852108 37.0114714,32.5939145 C41.9194819,42.4200618 50.1378519,58.8624605 47.4433223,75.0312946 C47.4312687,75.0988936 47.424694,75.1707175 47.4214067,75.2414852 C47.4071615,75.5002626 47.0269249,81.4912233 42.3304004,81.4912233 L9.86126441,81.4912233 C5.21076279,81.4912233 4.7866949,75.4939252 4.77025816,75.2414852 C4.7680666,75.1707175 4.75930034,75.0988936 4.74724673,75.0312946 C2.05381295,58.8624605 10.2710871,42.4200618 15.1812892,32.5939145 C15.6853492,31.5852108 16.15544,30.648331 16.5696459,29.7906687 C20.7149917,21.2594646 20.7380031,18.2143413 20.6897887,17.609119 L21.1651003,11.7729283 L16.9233256,11.7729283 L16.4874622,17.9354954 C16.4589718,18.3241896 16.1521527,21.0661738 12.7519391,28.0690069 C12.3421163,28.9087131 11.8807918,29.8360868 11.3822107,30.828947 C6.26819306,41.0691382 -2.28548639,58.1864706 0.569027443,75.5668054 C0.798046019,79.0893466 3.01371856,85.5556128 9.86126441,85.5556128 L42.3304004,85.5556128 C49.1801378,85.5556128 51.3936188,79.0893466 51.6237332,75.5668054 C54.478247,58.1864706 45.9245676,41.0691382 40.8116457,30.8363407 Z" id="Path" fill="#FFFFFF"></path>
                </g>
                <g id="new-rice-bowl-copy" transform="translate(219.000000, 12.000000)">
                    <g id="Group-3" transform="translate(0.000000, 31.135135)" stroke="#FFFFFF" stroke-width="3.91314">
                        <path d="M31.7751877,0.73027553 L64.8019677,0.73027553 C63.6624536,8.14407045 61.803819,13.794776 59.2260639,17.6823922 C56.6483088,21.5700084 53.1642892,24.8994376 48.7740053,27.6706798 L48.7740053,31.7363233 C48.7740053,33.6272339 47.8455764,35.397621 46.2900938,36.4728032 L44.8104206,37.4955844 C44.1564708,37.9476082 43.3803567,38.189735 42.5853876,38.189735 L33.548581,38.189735" id="Path-13"></path>
                        <path d="M2.34166895,0.73196483 L33.5950557,0.73189189 C32.4555416,8.14568682 30.596907,13.7963924 28.0191519,17.6840086 C25.4413968,21.5716247 21.9573772,24.9010539 17.5670933,27.6722961 L17.5670933,31.7379397 C17.5670933,33.6288503 16.6386644,35.3992374 15.0831818,36.4744196 L13.6035086,37.4972007 C12.9495588,37.9492246 12.1734447,38.1913514 11.3784756,38.1913514 L0.6178181,38.1913514" id="Path-13" transform="translate(17.106437, 19.461622) scale(-1, 1) translate(-17.106437, -19.461622) "></path>
                    </g>
                    <path d="M51.7018518,0.76555196 L35.6149685,19.6965968" id="Path-14" stroke="#FFFFFF" stroke-width="3.91314" stroke-linecap="round"></path>
                    <path d="M64.6456229,10.0943602 L51.4966644,19.6359051" id="Path-15" stroke="#FFFFFF" stroke-width="3.91314" stroke-linecap="round"></path>
                    <g id="Group-2" transform="translate(0.970588, 4.837838)" fill="#FFFFFF">
                        <ellipse id="Oval" cx="28.5735294" cy="2.91891892" rx="2.95588235" ry="2.91891892"></ellipse>
                        <ellipse id="Oval-Copy" cx="18.7205882" cy="14.5945946" rx="2.95588235" ry="2.91891892"></ellipse>
                        <ellipse id="Oval-Copy-2" cx="12.8088235" cy="2.91891892" rx="2.95588235" ry="2.91891892"></ellipse>
                        <ellipse id="Oval-Copy-3" cx="2.95588235" cy="14.5945946" rx="2.95588235" ry="2.91891892"></ellipse>
                    </g>
                </g>
            </g>
            <g id="Group-7" transform="translate(0.000000, 253.000000)">
                <g id="Group-10" fill="#FFFFFF">
                    <path d="M83.2559027,17.9025423 C84.2369597,17.3350821 84.5643643,16.0857544 83.9905385,15.1190127 C83.4155558,14.1488388 82.160312,13.8239221 81.1780981,14.3913823 L38.0324155,39.3504788 L67.1031698,3.99404689 C67.821609,3.11997512 67.6885647,1.84090151 66.8058448,1.13272032 C65.9254387,0.422250989 64.6285462,0.55610753 63.9135778,1.42789115 L27.9233638,45.1955478 L1.77032849,60.323625 C0.79042842,60.8910852 0.46186689,62.1369807 1.03222195,63.1048665 C1.41747191,63.7512677 2.10467456,64.1127948 2.81038771,64.1127948 C3.1655581,64.1127948 3.51957159,64.0235571 3.84697621,63.8359291 L20.5353569,54.1833852 L9.5713511,67.5129797 C8.85522579,68.3847634 8.98711317,69.6649811 9.8675192,70.3720182 C10.2504554,70.682062 10.7085905,70.8296474 11.162098,70.8296474 C11.7602188,70.8296474 12.353712,70.5722309 12.7597863,70.0802796 L30.6409379,48.3360282 L83.2559027,17.9025423 Z" id="Path"></path>
                    <path d="M47.8927323,58.3729806 C40.8228747,58.3729806 35.0707341,64.0624556 35.0707341,71.0573179 C35.0707341,78.0476039 40.8228747,83.738223 47.8927323,83.738223 C54.9672174,83.738223 60.720515,78.0476039 60.720515,71.0573179 C60.720515,64.0613115 54.9672174,58.3729806 47.8927323,58.3729806 Z M47.8927323,79.6676113 C43.0938828,79.6676113 39.1846947,75.8063649 39.1846947,71.0573179 C39.1846947,66.3059827 43.0938828,62.4424482 47.8927323,62.4424482 C52.6985231,62.4424482 56.6065543,66.3059827 56.6065543,71.0573179 C56.6065543,75.8063649 52.6985231,79.6676113 47.8927323,79.6676113 Z" id="Shape" fill-rule="nonzero"></path>
                    <path d="M56.6065543,49.7581109 C56.6065543,56.7529732 62.3563812,62.4413041 69.4273956,62.4413041 C76.5030377,62.4413041 82.2551783,56.7529732 82.2551783,49.7581109 C82.2551783,42.7666808 76.5030377,37.0783499 69.4273956,37.0783499 C62.3563812,37.0783499 56.6065543,42.7666808 56.6065543,49.7581109 Z M78.1400608,49.7581109 C78.1400608,54.508302 74.2331865,58.3718365 69.4273956,58.3718365 C64.6297031,58.3718365 60.720515,54.508302 60.720515,49.7581109 C60.720515,45.0124961 64.6297031,41.1466734 69.4273956,41.1466734 C74.2331865,41.1466734 78.1400608,45.0124961 78.1400608,49.7581109 Z" id="Shape" fill-rule="nonzero"></path>
                    <path d="M65.8398276,49.7581109 C65.8398276,51.7224842 67.4433004,53.3093135 69.4273956,53.3093135 C71.4161184,53.3093135 73.0195913,51.7224842 73.0195913,49.7581109 C73.0195913,47.7994579 71.4149615,46.2126287 69.4273956,46.2126287 C67.4433004,46.2126287 65.8398276,47.7994579 65.8398276,49.7581109 Z" id="Path"></path>
                    <path d="M47.8927323,67.5072594 C45.9132647,67.5072594 44.3063212,69.0929446 44.3063212,71.0573179 C44.3063212,73.0159709 45.9121078,74.6062323 47.8927323,74.6062323 C49.8779843,74.6062323 51.4860848,73.0159709 51.4860848,71.0573179 C51.4860848,69.0929446 49.8779843,67.5072594 47.8927323,67.5072594 Z" id="Path"></path>
                    <path d="M76.7872181,76.705897 C76.4391958,76.7146993 68.8592598,76.9572074 64.0271253,81.3910109 C62.8674129,79.4505066 60.3335285,76.3920889 56.0226129,76.7089778 C55.4585019,76.7503494 55.0230668,77.1292957 55.0111223,77.5883444 C55.0073217,77.7533907 54.9497704,81.1815121 57.1426908,83.1809928 C54.9497704,85.1804736 55.0073217,88.608595 55.0111223,88.7736412 C55.0230668,89.2326899 55.4585019,89.6116362 56.0226129,89.6530078 C56.2321864,89.6684121 56.4368735,89.675454 56.6383028,89.675454 C60.5794787,89.675454 62.9238783,86.8168524 64.0265822,84.9705345 C68.8592597,89.4047781 76.4419103,89.6472862 76.8181653,89.6565288 C76.837711,89.6565288 76.855085,89.6565288 76.8746307,89.6565288 C86.4922073,89.6565288 88.937593,83.5080044 88.9614823,83.445947 C89.0342358,83.2531729 89.0255488,83.0458748 88.9365073,82.857502 C85.6316532,75.8872674 76.7731018,76.7036963 76.7872181,76.705897 Z M58.0114893,88.7015659 C58.1615976,87.3334492 58.6712438,85.324161 60.0449155,84.5199718 C60.3497747,84.3417896 60.5339282,84.0332881 60.5339282,83.7015659 C60.5339282,83.3698439 60.3497747,83.0613422 60.0449155,82.8831602 C58.6712438,82.0789709 58.1615977,80.0696827 58.0114893,78.7015659 C60.9538188,79.1636075 62.5879878,82.662328 63.0114893,83.7015659 C62.5874719,84.7412779 60.9543346,88.2399983 58.0114893,88.7015659 Z M65.6098738,82.9771075 C68.4746479,79.9621623 72.9557806,78.8722805 75.6098738,78.4786336 C74.5657317,80.3303393 73.3788838,83.7347699 75.5844528,87.4786336 C72.9675509,87.0922002 68.4864181,86.0075345 65.6098738,82.9771075 Z M77.4647422,88.0543367 C74.0789696,83.3359939 76.829704,78.976129 77.4940507,78.0565119 C79.1765041,78.0230681 84.4389754,78.3172445 86.8100733,83.0954217 C86.2733246,84.193837 83.9864455,87.8479723 77.4647422,88.0543367 Z" id="Shape" stroke="#FFFFFF" stroke-width="1.25414865" fill-rule="nonzero" transform="translate(72.330631, 83.348081) rotate(-53.000000) translate(-72.330631, -83.348081) "></path>
                </g>
                <g id="Group-23" transform="translate(125.750000, 9.000000)" stroke="#FFFFFF">
                    <path d="M35.5094501,7.1973996 C35.12531,7.2091131 26.7587284,7.5318195 21.425115,13.4319004 C20.1450478,10.8496633 17.3481969,6.78274238 12.5898945,7.2014994 C11.9672401,7.2565527 11.4866156,7.7608181 11.4734314,8.3716762 C11.4692363,8.591304 11.4057124,13.1537052 13.8262141,15.8138369 C11.4063117,18.4745543 11.4692363,23.0363698 11.4734314,23.2559975 C11.4866156,23.8668556 11.9672401,24.371121 12.5898945,24.4261743 C12.8212176,24.4466729 13.047147,24.4560437 13.2694807,24.4560437 C17.6196717,24.4560437 20.2073731,20.6520904 21.4245156,18.1951875 C26.7587283,24.0958541 35.1283063,24.4185605 35.543609,24.4308597 C35.5645838,24.4308597 35.5855588,24.4308597 35.6071329,24.4308597 C46.2228215,24.4308597 48.9207907,16.2489925 48.9471592,16.1664125 C49.0274631,15.9098873 49.0178745,15.6340347 48.9195923,15.3833663 C45.2711612,6.10804582 35.4962658,7.1962282 35.5094501,7.1973996 Z M13.9886197,21.9932843 C14.1630108,20.3024431 14.7551019,17.819185 16.350991,16.825296 C16.7051669,16.6050825 16.9191107,16.2238088 16.9191107,15.8138369 C16.9191107,15.403865 16.7045675,15.0225911 16.350991,14.8023777 C14.7551019,13.8084888 14.163011,11.3252306 13.9886197,9.6343894 C17.4069265,10.2054216 19.3054532,14.5294535 19.7974641,15.8138369 C19.3048538,17.0988059 17.4075258,21.4228378 13.9886197,21.9932843 Z M22.6021057,15.8138369 C25.6839154,11.8354991 30.504618,10.3978156 33.3579513,9.878762 C32.2348212,12.3217551 30.9582748,16.8135825 33.3305341,21.7527918 C30.5159294,21.2428893 25.6960509,19.8118678 22.6021057,15.8138369 Z M36.2578039,22.0080726 C32.5591079,16.1262208 35.5699027,10.6909455 36.2918881,9.5517363 C38.1445697,9.4968293 43.8536335,9.8334455 46.4571411,15.8314072 C45.8718668,17.1990293 43.3753313,21.7514741 36.2578039,22.0080726 Z" id="Shape" stroke-width="0.9978507" fill="#FFFFFF" fill-rule="nonzero"></path>
                    <path d="M35.5094501,30.5239363 C35.12531,30.5356498 26.7587284,30.8583562 21.425115,36.7584371 C20.1450478,34.1762 17.3481969,30.107522 12.5898945,30.5280361 C11.9672401,30.5830894 11.4866156,31.0873548 11.4734314,31.6982129 C11.4692363,31.9178407 11.4063117,36.4796562 13.8262141,39.1403736 C11.4057124,41.8005053 11.4692363,46.3629065 11.4734314,46.5825343 C11.4866156,47.1933923 11.9672401,47.6976577 12.5898945,47.752711 C12.8212176,47.7732096 13.047147,47.7825804 13.2694807,47.7825804 C17.6196717,47.7825804 20.2073731,43.9786271 21.4245156,41.5217242 C26.7587283,47.4223908 35.1283063,47.7450972 35.543609,47.7573964 C35.5651831,47.7573964 35.5843602,47.7573964 35.6059343,47.7573964 C46.2216229,47.7573964 48.9207907,39.5755292 48.9471592,39.4929492 C49.0274631,39.236424 49.0178745,38.9605714 48.9195923,38.709903 C45.2717605,29.4345825 35.4938687,30.5210079 35.5094501,30.5239363 Z M13.9856233,45.3204067 C14.1564189,43.6324939 14.7461127,41.1509928 16.350991,40.1518328 C16.7045675,39.9316193 16.9191107,39.5503456 16.9191107,39.1403737 C16.9191107,38.7304018 16.7051669,38.3491279 16.350991,38.1289145 C14.7551019,37.1350256 14.163011,34.6517674 13.9886197,32.9609262 C17.4069265,33.5319585 19.3054532,37.8559904 19.7974641,39.1403737 C19.3048538,40.4259283 17.4063272,44.7523028 13.9856233,45.3204067 Z M22.6021057,39.1403736 C25.6833911,35.1626948 30.5031948,33.7247917 33.3578765,33.2054452 C32.2348212,35.6484383 30.9582748,40.1399729 33.3305343,45.0793285 C30.5158546,44.5694993 25.6960509,43.1384778 22.6021057,39.1403736 Z M36.2578039,45.3345361 C32.5630032,39.4581751 35.5641346,34.028244 36.2895659,32.8820798 C38.1255424,32.8405702 43.8692897,33.2057379 46.4571411,39.1579439 C45.8713425,40.5260785 43.3754812,45.0774984 36.2578039,45.3345361 Z" id="Shape" stroke-width="0.9978507" fill="#FFFFFF" fill-rule="nonzero"></path>
                    <path d="M35.5094501,53.8498873 C35.12531,53.8616008 26.7587284,54.1843072 21.425115,60.0843881 C20.1450478,57.502151 17.3481969,53.4323017 12.5898945,53.8539871 C11.9672401,53.9090404 11.4866156,54.4133058 11.4734314,55.0241639 C11.4692363,55.2437917 11.4057124,59.8056072 13.8262141,62.4663246 C11.4057124,65.127042 11.4692363,69.6888576 11.4734314,69.9084853 C11.4866156,70.5193433 11.9672401,71.0236087 12.5898945,71.0786621 C12.8212176,71.0991606 13.047147,71.1085314 13.2694807,71.1085314 C17.6196717,71.1085314 20.2073731,67.3045781 21.4245156,64.8476752 C26.7587283,70.7483418 35.1283063,71.0710482 35.543609,71.0833474 C35.5651831,71.0833474 35.5843602,71.0833474 35.6059343,71.0833474 C46.2216229,71.0833474 48.9207907,62.9014802 48.9471592,62.8189002 C49.0274631,62.562375 49.0178745,62.2865224 48.9195923,62.035854 C45.2717605,52.7605335 35.4938687,53.846959 35.5094501,53.8498873 Z M13.9886197,68.6457721 C14.1630108,66.954931 14.7551019,64.4716728 16.350991,63.4777838 C16.7051669,63.2575703 16.9191107,62.8762966 16.9191107,62.4663247 C16.9191107,62.0563528 16.7051669,61.6750789 16.350991,61.4548655 C14.7551019,60.4609766 14.163011,57.9777184 13.9886197,56.2868773 C17.4069265,56.8579095 19.3054532,61.1819414 19.7974641,62.4663247 C19.3048538,63.7512937 17.4075258,68.0753255 13.9886197,68.6457721 Z M22.6021057,62.4663247 C25.6833911,58.4886459 30.5031948,57.0507428 33.3578765,56.5313963 C32.2348212,58.9743894 30.9582748,63.465924 33.3305343,68.4052797 C30.5158546,67.8954503 25.6960509,66.4644288 22.6021057,62.4663247 Z M36.2578039,68.6604871 C32.5626286,62.7835404 35.5647338,57.3530969 36.2897906,56.2076649 C38.125992,56.1660088 43.8693647,56.5324212 46.4571411,62.4838949 C45.8713425,63.8520296 43.3754812,68.4034494 36.2578039,68.6604871 Z" id="Shape" stroke-width="0.9978507" fill="#FFFFFF" fill-rule="nonzero"></path>
                    <rect id="Rectangle" stroke-width="4.76576488" x="0.79389996" y="0.29733695" width="57.5318315" height="79.3872969" rx="9.53152976"></rect>
                </g>
                <path d="M318.25,18 L318.25,19.8751903 L318.25,76.130898 L318.25,78.0060883 L320.138889,78.0060883 L361.331197,78.0060883 L360.386752,94.7656012 L364.16453,95 L365.108974,78.0060883 L372.66453,78.0060883 L373.608974,95 L377.386752,94.7656012 L376.442308,78.0060883 L384.361111,78.0060883 L386.25,78.0060883 L386.25,76.130898 L386.25,19.8751903 L386.25,18 L384.361111,18 L320.138889,18 L318.25,18 Z M322.027778,23.0337139 L332.053419,23.0337139 L332.053419,33.0015217 L322.027778,33.0015217 L322.027778,23.0337139 Z M335.831197,23.0337139 L382.472223,23.0337139 L382.472223,33.0015217 L335.831197,33.0015217 L335.831197,23.0337139 Z M322.027778,36.7519026 L332.053419,36.7519026 L332.053419,72.9723741 L322.027778,72.9723741 L322.027778,36.7519026 Z M335.831196,36.7519026 L382.472222,36.7519026 L382.472222,72.9723741 L376.23571,72.9723741 L374.553418,43.8828079 L370.77564,44.1091859 L372.457932,72.9723741 L365.315571,72.9723741 L366.997863,44.1091859 L363.220085,43.8828079 L361.537793,72.9723741 L335.831196,72.9723741 L335.831196,36.7519026 Z" id="Shape" fill="#FFFFFF" fill-rule="nonzero"></path>
                <g id="Group-13" transform="translate(418.000000, 4.000000)">
                    <polygon id="Path-Copy-2" fill="#FFFFFF" points="15.4226776 0.063897906 17.0759661 5.33408965 23.3040762 5.33408965 30.2968516 5.33408965 36.5272859 5.33408965 38.1797998 0.063897906"></polygon>
                    <path d="M18.3261438,40.8228808 C14.6019708,48.8441026 10.0268124,60.3214294 11.8009341,71.420481 L11.843434,71.813649 C11.8513409,71.9188909 12.0895377,75.0791272 13.8844152,75.0791272 L39.7164179,75.0791272 C41.5083302,75.0791272 41.7564107,71.8513772 41.7573991,71.813649 L41.8018757,71.420481 C43.575009,60.3204366 39.000839,48.8441026 35.2746892,40.8228808 L18.3261438,40.8228808 Z" id="Path" stroke="#FFFFFF" stroke-width="4.74068191" stroke-linecap="round" stroke-linejoin="round"></path>
                    <path d="M41.5206618,30.9002386 C41.0219398,29.8999847 40.5593888,28.972611 40.1494503,28.1329048 C36.7482756,21.1300717 36.4413697,18.3880875 36.4139674,17.9993933 L35.9790769,11.8368262 L31.732815,11.8368262 L32.1983961,17.7575157 C32.161129,18.2782392 32.1819547,21.3233625 36.3295683,29.8545667 C36.7449873,30.7132851 37.2130188,31.6491087 37.7194135,32.6578124 C42.6288112,42.4839597 50.8495041,58.9263584 48.1542129,75.0951925 C48.1421559,75.1627915 48.1355793,75.2346154 48.1322911,75.3053831 C48.1180419,75.5641605 47.7376978,81.5551212 43.0398459,81.5551212 L10.5615325,81.5551212 C5.90971646,81.5551212 5.48552871,75.5578231 5.46908732,75.3053831 C5.46689514,75.2346154 5.4581264,75.1627915 5.44606938,75.0951925 C2.75187431,58.9263584 10.9714711,42.4839597 15.883061,32.6578124 C16.3872635,31.6491087 16.8574872,30.7122289 17.2718101,29.8545667 C21.4183276,21.3233625 21.4413455,18.2782392 21.3931174,17.6730169 L21.8685634,11.8368262 L17.6255898,11.8368262 L17.1896032,17.9993933 C17.1611048,18.3880875 16.8541989,21.1300717 13.4530242,28.1329048 C13.0430857,28.972611 12.5816308,29.8999847 12.0829087,30.8928449 C6.96744561,41.1330361 -1.58865152,58.2503685 1.26666913,75.6307033 C1.49575244,79.1532445 3.71205123,85.6195107 10.5615325,85.6195107 L43.0398459,85.6195107 C49.8915193,85.6195107 52.105626,79.1532445 52.3358054,75.6307033 C55.191126,58.2503685 46.6350289,41.1330361 41.5206618,30.9002386 Z" id="Path" fill="#FFFFFF"></path>
                </g>
                <g id="Group-6" transform="translate(220.500000, 12.000000)">
                    <g id="Group-3" transform="translate(0.000000, 30.000000)" stroke="#FFFFFF" stroke-width="3.91314">
                        <path d="M31.7751877,0.73599734 L64.8019677,0.73599734 C63.6624536,8.17430878 61.803819,13.8437005 59.2260639,17.7441726 C56.6483088,21.6446446 53.1642892,24.9850838 48.7740053,27.7654902 L48.7740053,31.8513317 C48.7740053,33.7446725 47.8459103,35.517752 46.2900938,36.5967212 L44.8120735,37.6217383 C44.1571282,38.0759473 43.3791009,38.3193307 42.5820695,38.3193307 L33.548581,38.3193307" id="Path-13"></path>
                        <path d="M2.34166895,0.73769223 L33.5950557,0.73761905 C32.4555416,8.17593049 30.596907,13.8453222 28.0191519,17.7457943 C25.4413968,21.6462663 21.9573772,24.9867056 17.5670933,27.7671119 L17.5670933,31.8529534 C17.5670933,33.7462943 16.6389983,35.5193737 15.0831818,36.5983429 L13.6051615,37.62336 C12.9502162,38.077569 12.1721889,38.3209524 11.3751575,38.3209524 L0.6178181,38.3209524" id="Path-13" transform="translate(17.106437, 19.529286) scale(-1, 1) translate(-17.106437, -19.529286) "></path>
                    </g>
                    <path d="M52,0 L36,19" id="Path-14" stroke="#FFFFFF" stroke-width="3.91314" stroke-linecap="round"></path>
                    <path d="M65,9 L52,19" id="Path-15" stroke="#FFFFFF" stroke-width="3.91314" stroke-linecap="round"></path>
                    <g id="Group-2" transform="translate(2.000000, 3.000000)" fill="#FFFFFF">
                        <ellipse id="Oval" cx="28.09375" cy="3" rx="2.90625" ry="3"></ellipse>
                        <ellipse id="Oval-Copy" cx="18.40625" cy="15" rx="2.90625" ry="3"></ellipse>
                        <ellipse id="Oval-Copy-2" cx="12.59375" cy="3" rx="2.90625" ry="3"></ellipse>
                        <ellipse id="Oval-Copy-3" cx="2.90625" cy="15" rx="2.90625" ry="3"></ellipse>
                    </g>
                </g>
            </g>
        </g>
    </g>
</svg>